  0
SECTION
  2
HEADER
  9
$ACADVER
  1
AC1024
  9
$ACADMAINTVER
 70
     6
  9
$DWGCODEPAGE
  3
ANSI_1252
  9
$LASTSAVEDBY
  1
Mike2
  9
$INSBASE
 10
0.0
 20
0.0
 30
0.0
  9
$EXTMIN
 10
-40.0408928704905
 20
-20.29952443470029
 30
0.0
  9
$EXTMAX
 10
620.4316456942089
 20
322.8748855255307
 30
0.0
  9
$LIMMIN
 10
0.0
 20
0.0
  9
$LIMMAX
 10
12.0
 20
9.0
  9
$ORTHOMODE
 70
     1
  9
$REGENMODE
 70
     1
  9
$FILLMODE
 70
     1
  9
$QTEXTMODE
 70
     0
  9
$MIRRTEXT
 70
     0
  9
$LTSCALE
 40
1.0
  9
$ATTMODE
 70
     1
  9
$TEXTSIZE
 40
1.25
  9
$TRACEWID
 40
0.05
  9
$TEXTSTYLE
  7
Standard
  9
$CLAYER
  8
Outline
  9
$CELTYPE
  6
ByLayer
  9
$CECOLOR
 62
   256
  9
$CELTSCALE
 40
1.0
  9
$DISPSILH
 70
     0
  9
$DIMSCALE
 40
1.0
  9
$DIMASZ
 40
3.0
  9
$DIMEXO
 40
0.0625
  9
$DIMDLI
 40
0.38
  9
$DIMRND
 40
0.0
  9
$DIMDLE
 40
0.0
  9
$DIMEXE
 40
0.18
  9
$DIMTP
 40
0.0
  9
$DIMTM
 40
0.0
  9
$DIMTXT
 40
3.0
  9
$DIMCEN
 40
0.09
  9
$DIMTSZ
 40
0.0
  9
$DIMTOL
 70
     0
  9
$DIMLIM
 70
     0
  9
$DIMTIH
 70
     1
  9
$DIMTOH
 70
     1
  9
$DIMSE1
 70
     0
  9
$DIMSE2
 70
     0
  9
$DIMTAD
 70
     0
  9
$DIMZIN
 70
     0
  9
$DIMBLK
  1

  9
$DIMASO
 70
     1
  9
$DIMSHO
 70
     1
  9
$DIMPOST
  1

  9
$DIMAPOST
  1

  9
$DIMALT
 70
     0
  9
$DIMALTD
 70
     2
  9
$DIMALTF
 40
25.4
  9
$DIMLFAC
 40
1.0
  9
$DIMTOFL
 70
     0
  9
$DIMTVP
 40
0.0
  9
$DIMTIX
 70
     0
  9
$DIMSOXD
 70
     0
  9
$DIMSAH
 70
     0
  9
$DIMBLK1
  1

  9
$DIMBLK2
  1

  9
$DIMSTYLE
  2
Standard
  9
$DIMCLRD
 70
     0
  9
$DIMCLRE
 70
     0
  9
$DIMCLRT
 70
     0
  9
$DIMTFAC
 40
1.0
  9
$DIMGAP
 40
0.09
  9
$DIMJUST
 70
     0
  9
$DIMSD1
 70
     0
  9
$DIMSD2
 70
     0
  9
$DIMTOLJ
 70
     1
  9
$DIMTZIN
 70
     0
  9
$DIMALTZ
 70
     0
  9
$DIMALTTZ
 70
     0
  9
$DIMUPT
 70
     0
  9
$DIMDEC
 70
     2
  9
$DIMTDEC
 70
     4
  9
$DIMALTU
 70
     2
  9
$DIMALTTD
 70
     2
  9
$DIMTXSTY
  7
Standard
  9
$DIMAUNIT
 70
     0
  9
$DIMADEC
 70
     0
  9
$DIMALTRND
 40
0.0
  9
$DIMAZIN
 70
     0
  9
$DIMDSEP
 70
    46
  9
$DIMATFIT
 70
     3
  9
$DIMFRAC
 70
     0
  9
$DIMLDRBLK
  1

  9
$DIMLUNIT
 70
     2
  9
$DIMLWD
 70
    -2
  9
$DIMLWE
 70
    -2
  9
$DIMTMOVE
 70
     0
  9
$DIMFXL
 40
1.0
  9
$DIMFXLON
 70
     0
  9
$DIMJOGANG
 40
0.7853981633974483
  9
$DIMTFILL
 70
     0
  9
$DIMTFILLCLR
 70
     0
  9
$DIMARCSYM
 70
     0
  9
$DIMLTYPE
  6

  9
$DIMLTEX1
  6

  9
$DIMLTEX2
  6

  9
$DIMTXTDIRECTION
 70
     0
  9
$LUNITS
 70
     2
  9
$LUPREC
 70
     6
  9
$SKETCHINC
 40
0.1
  9
$FILLETRAD
 40
0.0
  9
$AUNITS
 70
     0
  9
$AUPREC
 70
     6
  9
$MENU
  1
.
  9
$ELEVATION
 40
0.0
  9
$PELEVATION
 40
0.0
  9
$THICKNESS
 40
0.0
  9
$LIMCHECK
 70
     0
  9
$CHAMFERA
 40
0.0
  9
$CHAMFERB
 40
0.0
  9
$CHAMFERC
 40
0.0
  9
$CHAMFERD
 40
0.0
  9
$SKPOLY
 70
     0
  9
$TDCREATE
 40
2452642.771717604
  9
$TDUCREATE
 40
2452643.063384271
  9
$TDUPDATE
 40
2458064.556277593
  9
$TDUUPDATE
 40
2458064.847944259
  9
$TDINDWG
 40
5.3096495139
  9
$TDUSRTIMER
 40
2458064.846133681
  9
$USRTIMER
 70
     1
  9
$ANGBASE
 50
0.0
  9
$ANGDIR
 70
     0
  9
$PDMODE
 70
     0
  9
$PDSIZE
 40
0.0
  9
$PLINEWID
 40
0.0
  9
$SPLFRAME
 70
     0
  9
$SPLINETYPE
 70
     6
  9
$SPLINESEGS
 70
     8
  9
$HANDSEED
  5
169D
  9
$SURFTAB1
 70
     6
  9
$SURFTAB2
 70
     6
  9
$SURFTYPE
 70
     6
  9
$SURFU
 70
     6
  9
$SURFV
 70
     6
  9
$UCSBASE
  2

  9
$UCSNAME
  2

  9
$UCSORG
 10
0.0
 20
0.0
 30
0.0
  9
$UCSXDIR
 10
1.0
 20
0.0
 30
0.0
  9
$UCSYDIR
 10
0.0
 20
1.0
 30
0.0
  9
$UCSORTHOREF
  2

  9
$UCSORTHOVIEW
 70
     0
  9
$UCSORGTOP
 10
0.0
 20
0.0
 30
0.0
  9
$UCSORGBOTTOM
 10
0.0
 20
0.0
 30
0.0
  9
$UCSORGLEFT
 10
0.0
 20
0.0
 30
0.0
  9
$UCSORGRIGHT
 10
0.0
 20
0.0
 30
0.0
  9
$UCSORGFRONT
 10
0.0
 20
0.0
 30
0.0
  9
$UCSORGBACK
 10
0.0
 20
0.0
 30
0.0
  9
$PUCSBASE
  2

  9
$PUCSNAME
  2

  9
$PUCSORG
 10
0.0
 20
0.0
 30
0.0
  9
$PUCSXDIR
 10
1.0
 20
0.0
 30
0.0
  9
$PUCSYDIR
 10
0.0
 20
1.0
 30
0.0
  9
$PUCSORTHOREF
  2

  9
$PUCSORTHOVIEW
 70
     0
  9
$PUCSORGTOP
 10
0.0
 20
0.0
 30
0.0
  9
$PUCSORGBOTTOM
 10
0.0
 20
0.0
 30
0.0
  9
$PUCSORGLEFT
 10
0.0
 20
0.0
 30
0.0
  9
$PUCSORGRIGHT
 10
0.0
 20
0.0
 30
0.0
  9
$PUCSORGFRONT
 10
0.0
 20
0.0
 30
0.0
  9
$PUCSORGBACK
 10
0.0
 20
0.0
 30
0.0
  9
$USERI1
 70
     0
  9
$USERI2
 70
     0
  9
$USERI3
 70
     0
  9
$USERI4
 70
     0
  9
$USERI5
 70
     0
  9
$USERR1
 40
0.0
  9
$USERR2
 40
0.0
  9
$USERR3
 40
0.0
  9
$USERR4
 40
0.0
  9
$USERR5
 40
0.0
  9
$WORLDVIEW
 70
     1
  9
$SHADEDGE
 70
     3
  9
$SHADEDIF
 70
    70
  9
$TILEMODE
 70
     1
  9
$MAXACTVP
 70
    64
  9
$PINSBASE
 10
0.0
 20
0.0
 30
0.0
  9
$PLIMCHECK
 70
     0
  9
$PEXTMIN
 10
0.0
 20
0.0
 30
0.0
  9
$PEXTMAX
 10
0.0
 20
0.0
 30
0.0
  9
$PLIMMIN
 10
0.0
 20
0.0
  9
$PLIMMAX
 10
0.0
 20
0.0
  9
$UNITMODE
 70
     0
  9
$VISRETAIN
 70
     1
  9
$PLINEGEN
 70
     0
  9
$PSLTSCALE
 70
     1
  9
$TREEDEPTH
 70
  3020
  9
$CMLSTYLE
  2
Standard
  9
$CMLJUST
 70
     0
  9
$CMLSCALE
 40
1.0
  9
$PROXYGRAPHICS
 70
     1
  9
$MEASUREMENT
 70
     0
  9
$CELWEIGHT
370
    -1
  9
$ENDCAPS
280
     0
  9
$JOINSTYLE
280
     0
  9
$LWDISPLAY
290
     0
  9
$INSUNITS
 70
     1
  9
$HYPERLINKBASE
  1

  9
$STYLESHEET
  1

  9
$XEDIT
290
     1
  9
$CEPSNTYPE
380
     0
  9
$PSTYLEMODE
290
     1
  9
$FINGERPRINTGUID
  2
{FDEAD576-A652-11D2-9A35-0060089B3A3F}
  9
$VERSIONGUID
  2
{FBC2AE19-5C5C-49EC-81BC-71B1A3362A02}
  9
$EXTNAMES
290
     1
  9
$PSVPSCALE
 40
0.0
  9
$OLESTARTUP
290
     0
  9
$SORTENTS
280
   127
  9
$INDEXCTL
280
     0
  9
$HIDETEXT
280
     1
  9
$XCLIPFRAME
280
     0
  9
$HALOGAP
280
     0
  9
$OBSCOLOR
 70
   257
  9
$OBSLTYPE
280
     0
  9
$INTERSECTIONDISPLAY
280
     0
  9
$INTERSECTIONCOLOR
 70
   257
  9
$DIMASSOC
280
     2
  9
$PROJECTNAME
  1

  9
$CAMERADISPLAY
290
     0
  9
$LENSLENGTH
 40
50.0
  9
$CAMERAHEIGHT
 40
0.0
  9
$STEPSPERSEC
 40
2.0
  9
$STEPSIZE
 40
6.0
  9
$3DDWFPREC
 40
2.0
  9
$PSOLWIDTH
 40
0.25
  9
$PSOLHEIGHT
 40
4.0
  9
$LOFTANG1
 40
1.570796326794897
  9
$LOFTANG2
 40
1.570796326794897
  9
$LOFTMAG1
 40
0.0
  9
$LOFTMAG2
 40
0.0
  9
$LOFTPARAM
 70
     7
  9
$LOFTNORMALS
280
     1
  9
$LATITUDE
 40
37.795
  9
$LONGITUDE
 40
-122.394
  9
$NORTHDIRECTION
 40
0.0
  9
$TIMEZONE
 70
 -8000
  9
$LIGHTGLYPHDISPLAY
280
     1
  9
$TILEMODELIGHTSYNCH
280
     1
  9
$CMATERIAL
347
96
  9
$SOLIDHIST
280
     1
  9
$SHOWHIST
280
     1
  9
$DWFFRAME
280
     2
  9
$DGNFRAME
280
     0
  9
$REALWORLDSCALE
290
     1
  9
$INTERFERECOLOR
 62
     1
  9
$CSHADOW
280
     0
  9
$SHADOWPLANELOCATION
 40
0.0
  0
ENDSEC
  0
SECTION
  2
CLASSES
  0
CLASS
  1
ACDBDICTIONARYWDFLT
  2
AcDbDictionaryWithDefault
  3
ObjectDBX Classes
 90
        0
 91
        7
280
     0
281
     0
  0
CLASS
  1
ACDBPLACEHOLDER
  2
AcDbPlaceHolder
  3
ObjectDBX Classes
 90
        0
 91
        1
280
     0
281
     0
  0
CLASS
  1
LAYOUT
  2
AcDbLayout
  3
ObjectDBX Classes
 90
        0
 91
        1
280
     0
281
     0
  0
CLASS
  1
DICTIONARYVAR
  2
AcDbDictionaryVar
  3
ObjectDBX Classes
 90
        0
 91
        7
280
     0
281
     0
  0
CLASS
  1
TABLESTYLE
  2
AcDbTableStyle
  3
ObjectDBX Classes
 90
     4095
 91
        7
280
     0
281
     0
  0
CLASS
  1
MATERIAL
  2
AcDbMaterial
  3
ObjectDBX Classes
 90
     1153
 91
        7
280
     0
281
     0
  0
CLASS
  1
VISUALSTYLE
  2
AcDbVisualStyle
  3
ObjectDBX Classes
 90
     4095
 91
        7
280
     0
281
     0
  0
CLASS
  1
SCALE
  2
AcDbScale
  3
ObjectDBX Classes
 90
     1153
 91
        7
280
     0
281
     0
  0
CLASS
  1
CELLSTYLEMAP
  2
AcDbCellStyleMap
  3
ObjectDBX Classes
 90
     1152
 91
        5
280
     0
281
     0
  0
CLASS
  1
RASTERVARIABLES
  2
AcDbRasterVariables
  3
ISM
 90
        0
 91
        7
280
     0
281
     0
  0
CLASS
  1
MLEADERSTYLE
  2
AcDbMLeaderStyle
  3
ACDB_MLEADERSTYLE_CLASS
 90
     4095
 91
        7
280
     0
281
     0
  0
CLASS
  1
SUN
  2
AcDbSun
  3
SCENEOE
 90
     1153
 91
        7
280
     0
281
     0
  0
CLASS
  1
DIMASSOC
  2
AcDbDimAssoc
  3
"AcDbDimAssoc|Product Desc:     AcDim ARX App For Dimension|Company:          Autodesk, Inc.|WEB Address:      www.autodesk.com"
 90
        0
 91
        5
280
     0
281
     0
  0
ENDSEC
  0
SECTION
  2
TABLES
  0
TABLE
  2
VPORT
  5
8
330
0
100
AcDbSymbolTable
 70
     1
  0
VPORT
  5
94
330
8
100
AcDbSymbolTableRecord
100
AcDbViewportTableRecord
  2
*Active
 70
     0
 10
0.0
 20
0.0
 11
1.0
 21
1.0
 12
451.4837833467311
 22
217.9042771765553
 13
0.0
 23
0.0
 14
0.5
 24
0.5
 15
0.5
 25
0.5
 16
0.0
 26
0.0
 36
1.0
 17
-27.66959356609709
 27
-19.53870295791432
 37
0.0
 40
251.3944039374352
 41
2.034833091436865
 42
50.0
 43
0.0
 44
0.0
 50
0.0
 51
0.0
 71
    16
 72
  1000
 73
     1
 74
     2
 75
     0
 76
     0
 77
     0
 78
     0
281
     0
 65
     1
110
0.0
120
0.0
130
0.0
111
1.0
121
0.0
131
0.0
112
0.0
122
1.0
132
0.0
 79
     0
146
0.0
348
9F
 60
     2
 61
     5
292
     1
282
     1
141
0.0
142
0.0
 63
   250
421
  3355443
361
EE
  0
ENDTAB
  0
TABLE
  2
LTYPE
  5
5
330
0
100
AcDbSymbolTable
 70
     1
  0
LTYPE
  5
14
330
5
100
AcDbSymbolTableRecord
100
AcDbLinetypeTableRecord
  2
ByBlock
 70
     0
  3

 72
    65
 73
     0
 40
0.0
  0
LTYPE
  5
15
330
5
100
AcDbSymbolTableRecord
100
AcDbLinetypeTableRecord
  2
ByLayer
 70
     0
  3

 72
    65
 73
     0
 40
0.0
  0
LTYPE
  5
16
330
5
100
AcDbSymbolTableRecord
100
AcDbLinetypeTableRecord
  2
Continuous
 70
     0
  3
Solid line
 72
    65
 73
     0
 40
0.0
  0
ENDTAB
  0
TABLE
  2
LAYER
  5
2
102
{ACAD_XDICTIONARY
360
A0F
102
}
330
0
100
AcDbSymbolTable
 70
    11
  0
LAYER
  5
10
330
2
100
AcDbSymbolTableRecord
100
AcDbLayerTableRecord
  2
0
 70
     0
 62
     7
  6
Continuous
370
    -3
390
F
347
98
  0
LAYER
  5
FE6
330
2
100
AcDbSymbolTableRecord
100
AcDbLayerTableRecord
  2
KeymatrixV1
 70
     0
 62
    -7
  6
Continuous
370
    -3
390
F
347
98
1001
AcAecLayerStandard
1000

1000

  0
LAYER
  5
1029
330
2
100
AcDbSymbolTableRecord
100
AcDbLayerTableRecord
  2
LeftOpening
 70
     0
 62
     7
  6
Continuous
370
    -3
390
F
347
98
1001
AcAecLayerStandard
1000

1000

  0
LAYER
  5
1034
330
2
100
AcDbSymbolTableRecord
100
AcDbLayerTableRecord
  2
PCBOutline
 70
     0
 62
    -7
  6
Continuous
370
    -3
390
F
347
98
1001
AcAecLayerStandard
1000

1000

  0
LAYER
  5
10A0
330
2
100
AcDbSymbolTableRecord
100
AcDbLayerTableRecord
  2
Outline
 70
     0
 62
     7
  6
Continuous
370
    -3
390
F
347
98
1001
AcAecLayerStandard
1000

1000

  0
LAYER
  5
10B7
330
2
100
AcDbSymbolTableRecord
100
AcDbLayerTableRecord
  2
Keymatrix
 70
     0
 62
    -7
  6
Continuous
370
    -3
390
F
347
98
1001
AcAecLayerStandard
1000

1000

  0
LAYER
  5
1308
330
2
100
AcDbSymbolTableRecord
100
AcDbLayerTableRecord
  2
PCB
 70
     0
 62
    -7
  6
Continuous
370
    -3
390
F
347
98
1001
AcAecLayerStandard
1000

1000

  0
LAYER
  5
1550
330
2
100
AcDbSymbolTableRecord
100
AcDbLayerTableRecord
  2
RightOpening
 70
     0
 62
     7
  6
Continuous
370
    -3
390
F
347
98
1001
AcAecLayerStandard
1000

1000

  0
LAYER
  5
157F
330
2
100
AcDbSymbolTableRecord
100
AcDbLayerTableRecord
  2
LeftOpeningV1
 70
     0
 62
    -7
  6
Continuous
370
    -3
390
F
347
98
1001
AcAecLayerStandard
1000

1000

  0
LAYER
  5
1592
330
2
100
AcDbSymbolTableRecord
100
AcDbLayerTableRecord
  2
RightOpeningV1
 70
     0
 62
    -7
  6
Continuous
370
    -3
390
F
347
98
1001
AcAecLayerStandard
1000

1000

  0
LAYER
  5
15B5
330
2
100
AcDbSymbolTableRecord
100
AcDbLayerTableRecord
  2
TopV1
 70
     0
 62
    -7
  6
Continuous
370
    -3
390
F
347
98
1001
AcAecLayerStandard
1000

1000

  0
ENDTAB
  0
TABLE
  2
STYLE
  5
3
330
0
100
AcDbSymbolTable
 70
     2
  0
STYLE
  5
11
330
3
100
AcDbSymbolTableRecord
100
AcDbTextStyleTableRecord
  2
Standard
 70
     0
 40
0.0
 41
1.0
 50
0.0
 71
     0
 42
1.25
  3
arial.ttf
  4

1001
ACAD
1000
Arial
1071
        0
  0
STYLE
  5
F99
330
3
100
AcDbSymbolTableRecord
100
AcDbTextStyleTableRecord
  2
Crio
 70
     0
 40
0.0
 41
1.0
 50
0.0
 71
     0
 42
5.0
  3
criovision-font.ttf
  4

1001
ACAD
1000
Criovision
1071
        0
  0
ENDTAB
  0
TABLE
  2
VIEW
  5
6
330
0
100
AcDbSymbolTable
 70
     0
  0
ENDTAB
  0
TABLE
  2
UCS
  5
7
330
0
100
AcDbSymbolTable
 70
     0
  0
ENDTAB
  0
TABLE
  2
APPID
  5
9
330
0
100
AcDbSymbolTable
 70
     2
  0
APPID
  5
12
330
9
100
AcDbSymbolTableRecord
100
AcDbRegAppTableRecord
  2
ACAD
 70
     0
  0
APPID
  5
A13
330
9
100
AcDbSymbolTableRecord
100
AcDbRegAppTableRecord
  2
AcAecLayerStandard
 70
     0
  0
ENDTAB
  0
TABLE
  2
DIMSTYLE
  5
A
330
0
100
AcDbSymbolTable
 70
     1
100
AcDbDimStyleTable
  0
DIMSTYLE
105
27
330
A
100
AcDbSymbolTableRecord
100
AcDbDimStyleTableRecord
  2
Standard
 70
     0
 41
3.0
140
3.0
178
     0
271
     2
340
11
  0
ENDTAB
  0
TABLE
  2
BLOCK_RECORD
  5
1
330
0
100
AcDbSymbolTable
 70
     1
  0
BLOCK_RECORD
  5
1F
330
1
100
AcDbSymbolTableRecord
100
AcDbBlockTableRecord
  2
*Model_Space
340
22
 70
     0
280
     1
281
     0
  0
BLOCK_RECORD
  5
58
330
1
100
AcDbSymbolTableRecord
100
AcDbBlockTableRecord
  2
*Paper_Space
340
59
 70
     0
280
     1
281
     0
  0
BLOCK_RECORD
  5
5D
330
1
100
AcDbSymbolTableRecord
100
AcDbBlockTableRecord
  2
*Paper_Space0
340
5E
 70
     0
280
     1
281
     0
  0
ENDTAB
  0
ENDSEC
  0
SECTION
  2
BLOCKS
  0
BLOCK
  5
20
330
1F
100
AcDbEntity
  8
0
100
AcDbBlockBegin
  2
*Model_Space
 70
     0
 10
0.0
 20
0.0
 30
0.0
  3
*Model_Space
  1
*Model_Space
  0
ENDBLK
  5
21
330
1F
100
AcDbEntity
  8
0
100
AcDbBlockEnd
  0
BLOCK
  5
5A
330
58
100
AcDbEntity
 67
     1
  8
0
100
AcDbBlockBegin
  2
*Paper_Space
 70
     0
 10
0.0
 20
0.0
 30
0.0
  3
*Paper_Space
  1
*Paper_Space
  0
ENDBLK
  5
5B
330
58
100
AcDbEntity
 67
     1
  8
0
100
AcDbBlockEnd
  0
BLOCK
  5
5F
330
5D
100
AcDbEntity
  8
0
100
AcDbBlockBegin
  2
*Paper_Space0
 70
     0
 10
0.0
 20
0.0
 30
0.0
  3
*Paper_Space0
  1
*Paper_Space0
  0
ENDBLK
  5
60
330
5D
100
AcDbEntity
  8
0
100
AcDbBlockEnd
  0
ENDSEC
  0
SECTION
  2
ENTITIES
  0
LINE
  5
5DC
330
1F
100
AcDbEntity
  8
KeymatrixV1
100
AcDbLine
 10
7.0
 20
0.0
 30
0.0
 11
211.9999999999999
 21
0.0000000000000497
 31
0.0
  0
ARC
  5
5DD
330
1F
100
AcDbEntity
  8
KeymatrixV1
100
AcDbCircle
 10
7.0
 20
6.999999999999993
 30
0.0
 40
6.999999999999996
100
AcDbArc
 50
180.0
 51
270.0
  0
ARC
  5
5DE
330
1F
100
AcDbEntity
  8
KeymatrixV1
100
AcDbCircle
 10
211.9999999999999
 20
7.00000000000005
 30
0.0
 40
7.000000000000004
100
AcDbArc
 50
270.0
 51
0.0
  0
LINE
  5
772
330
1F
100
AcDbEntity
  8
KeymatrixV1
100
AcDbLine
 10
0.0
 20
111.9
 30
0.0
 11
0.0
 21
6.999999999999993
 31
0.0
  0
LINE
  5
773
330
1F
100
AcDbEntity
  8
KeymatrixV1
100
AcDbLine
 10
219.0
 20
111.9
 30
0.0
 11
218.9999999999999
 21
7.00000000000005
 31
0.0
  0
LINE
  5
777
330
1F
100
AcDbEntity
  8
KeymatrixV1
100
AcDbLine
 10
0.0
 20
111.9
 30
0.0
 11
219.0
 21
111.9
 31
0.0
  0
ARC
  5
DF8
330
1F
100
AcDbEntity
  8
0
100
AcDbCircle
 10
281.954823590587
 20
220.8353823451878
 30
0.0
 40
7.0
100
AcDbArc
 50
180.0
 51
270.0
  0
ARC
  5
DF9
330
1F
100
AcDbEntity
  8
0
100
AcDbCircle
 10
281.954823590587
 20
220.8353823451878
 30
0.0
 40
7.0
100
AcDbArc
 50
270.0
 51
0.0
  0
LINE
  5
DFA
330
1F
100
AcDbEntity
  8
0
100
AcDbLine
 10
274.954823590587
 20
232.8353823451878
 30
0.0
 11
274.954823590587
 21
220.8353823451878
 31
0.0
  0
LINE
  5
DFB
330
1F
100
AcDbEntity
  8
0
100
AcDbLine
 10
281.954823590587
 20
233.8353823451878
 30
0.0
 11
281.954823590587
 21
213.8353823451878
 31
0.0
  0
LINE
  5
DFC
330
1F
100
AcDbEntity
  8
0
100
AcDbLine
 10
288.954823590587
 20
232.8353823451878
 30
0.0
 11
288.954823590587
 21
220.8353823451878
 31
0.0
  0
LINE
  5
DFD
330
1F
100
AcDbEntity
  8
0
100
AcDbLine
 10
274.954823590587
 20
257.8353823451878
 30
0.0
 11
274.954823590587
 21
236.3353823451878
 31
0.0
  0
LINE
  5
DFE
330
1F
100
AcDbEntity
  8
0
100
AcDbLine
 10
274.954823590587
 20
271.3353823451878
 30
0.0
 11
274.954823590587
 21
261.3353823451878
 31
0.0
  0
LINE
  5
DFF
330
1F
100
AcDbEntity
  8
0
100
AcDbLine
 10
281.954823590587
 20
258.8353823451878
 30
0.0
 11
281.954823590587
 21
235.3353823451878
 31
0.0
  0
LINE
  5
E00
330
1F
100
AcDbEntity
  8
0
100
AcDbLine
 10
288.954823590587
 20
257.8353823451878
 30
0.0
 11
288.954823590587
 21
236.3353823451878
 31
0.0
  0
LINE
  5
E01
330
1F
100
AcDbEntity
  8
0
100
AcDbLine
 10
288.954823590587
 20
271.3353823451878
 30
0.0
 11
288.954823590587
 21
261.3353823451878
 31
0.0
  0
LINE
  5
E02
330
1F
100
AcDbEntity
  8
0
100
AcDbLine
 10
277.954823590587
 20
274.3353823451878
 30
0.0
 11
285.954823590587
 21
274.3353823451878
 31
0.0
  0
LINE
  5
E03
330
1F
100
AcDbEntity
  8
0
100
AcDbLine
 10
281.954823590587
 20
274.3353823451878
 30
0.0
 11
281.954823590587
 21
260.3353823451878
 31
0.0
  0
ARC
  5
E04
330
1F
100
AcDbEntity
  8
0
100
AcDbCircle
 10
354.454823590587
 20
220.8353823451878
 30
0.0
 40
7.0
100
AcDbArc
 50
180.0
 51
270.0
  0
ARC
  5
E05
330
1F
100
AcDbEntity
  8
0
100
AcDbCircle
 10
361.454823590587
 20
220.8353823451878
 30
0.0
 40
7.0
100
AcDbArc
 50
270.0
 51
0.0
  0
LINE
  5
E06
330
1F
100
AcDbEntity
  8
0
100
AcDbLine
 10
347.454823590587
 20
232.8353823451878
 30
0.0
 11
347.454823590587
 21
220.8353823451878
 31
0.0
  0
LINE
  5
E07
330
1F
100
AcDbEntity
  8
0
100
AcDbLine
 10
357.954823590587
 20
233.8353823451878
 30
0.0
 11
357.954823590587
 21
213.8353823451878
 31
0.0
  0
LINE
  5
E08
330
1F
100
AcDbEntity
  8
0
100
AcDbLine
 10
368.454823590587
 20
232.8353823451878
 30
0.0
 11
368.454823590587
 21
220.8353823451878
 31
0.0
  0
LINE
  5
E09
330
1F
100
AcDbEntity
  8
0
100
AcDbLine
 10
347.454823590587
 20
257.8353823451878
 30
0.0
 11
347.454823590587
 21
236.3353823451878
 31
0.0
  0
LINE
  5
E0A
330
1F
100
AcDbEntity
  8
0
100
AcDbLine
 10
347.454823590587
 20
271.3353823451878
 30
0.0
 11
347.454823590587
 21
261.3353823451878
 31
0.0
  0
LINE
  5
E0B
330
1F
100
AcDbEntity
  8
0
100
AcDbLine
 10
357.954823590587
 20
258.8353823451878
 30
0.0
 11
357.954823590587
 21
235.3353823451878
 31
0.0
  0
LINE
  5
E0C
330
1F
100
AcDbEntity
  8
0
100
AcDbLine
 10
368.454823590587
 20
257.8353823451878
 30
0.0
 11
368.454823590587
 21
236.3353823451878
 31
0.0
  0
LINE
  5
E0D
330
1F
100
AcDbEntity
  8
0
100
AcDbLine
 10
368.454823590587
 20
271.3353823451878
 30
0.0
 11
368.454823590587
 21
261.3353823451878
 31
0.0
  0
LINE
  5
E0E
330
1F
100
AcDbEntity
  8
0
100
AcDbLine
 10
350.454823590587
 20
274.3353823451878
 30
0.0
 11
365.454823590587
 21
274.3353823451878
 31
0.0
  0
LINE
  5
E0F
330
1F
100
AcDbEntity
  8
0
100
AcDbLine
 10
357.954823590587
 20
274.3353823451878
 30
0.0
 11
357.954823590587
 21
260.3353823451878
 31
0.0
  0
ARC
  5
E10
330
1F
100
AcDbEntity
  8
0
100
AcDbCircle
 10
449.4548235905871
 20
220.8353823451878
 30
0.0
 40
7.0
100
AcDbArc
 50
180.0
 51
270.0
  0
ARC
  5
E11
330
1F
100
AcDbEntity
  8
0
100
AcDbCircle
 10
452.9548235905871
 20
220.8353823451878
 30
0.0
 40
7.0
100
AcDbArc
 50
270.0
 51
0.0
  0
LINE
  5
E12
330
1F
100
AcDbEntity
  8
0
100
AcDbLine
 10
442.4548235905871
 20
232.8353823451878
 30
0.0
 11
442.4548235905871
 21
220.8353823451878
 31
0.0
  0
LINE
  5
E13
330
1F
100
AcDbEntity
  8
0
100
AcDbLine
 10
452.9548235905871
 20
233.8353823451878
 30
0.0
 11
452.9548235905871
 21
213.8353823451878
 31
0.0
  0
LINE
  5
E14
330
1F
100
AcDbEntity
  8
0
100
AcDbLine
 10
459.9548235905871
 20
232.8353823451878
 30
0.0
 11
459.9548235905871
 21
220.8353823451878
 31
0.0
  0
LINE
  5
E15
330
1F
100
AcDbEntity
  8
0
100
AcDbLine
 10
442.4548235905871
 20
257.8353823451878
 30
0.0
 11
442.4548235905871
 21
236.3353823451878
 31
0.0
  0
LINE
  5
E16
330
1F
100
AcDbEntity
  8
0
100
AcDbLine
 10
442.4548235905871
 20
271.3353823451878
 30
0.0
 11
442.4548235905871
 21
261.3353823451878
 31
0.0
  0
LINE
  5
E17
330
1F
100
AcDbEntity
  8
0
100
AcDbLine
 10
452.9548235905871
 20
258.8353823451878
 30
0.0
 11
452.9548235905871
 21
235.3353823451878
 31
0.0
  0
LINE
  5
E18
330
1F
100
AcDbEntity
  8
0
100
AcDbLine
 10
459.9548235905871
 20
257.8353823451878
 30
0.0
 11
459.9548235905871
 21
236.3353823451878
 31
0.0
  0
LINE
  5
E19
330
1F
100
AcDbEntity
  8
0
100
AcDbLine
 10
459.9548235905871
 20
271.3353823451878
 30
0.0
 11
459.9548235905871
 21
261.3353823451878
 31
0.0
  0
LINE
  5
E1A
330
1F
100
AcDbEntity
  8
0
100
AcDbLine
 10
445.4548235905871
 20
274.3353823451878
 30
0.0
 11
456.9548235905871
 21
274.3353823451878
 31
0.0
  0
LINE
  5
E1B
330
1F
100
AcDbEntity
  8
0
100
AcDbLine
 10
452.9548235905871
 20
274.3353823451878
 30
0.0
 11
452.9548235905871
 21
260.3353823451878
 31
0.0
  0
LINE
  5
E1C
330
1F
100
AcDbEntity
  8
0
100
AcDbLine
 10
275.954823590587
 20
260.3353823451878
 30
0.0
 11
287.954823590587
 21
260.3353823451878
 31
0.0
  0
LINE
  5
E1D
330
1F
100
AcDbEntity
  8
0
100
AcDbLine
 10
275.954823590587
 20
258.8353823451878
 30
0.0
 11
287.954823590587
 21
258.8353823451878
 31
0.0
  0
LINE
  5
E1E
330
1F
100
AcDbEntity
  8
0
100
AcDbLine
 10
275.954823590587
 20
235.3353823451878
 30
0.0
 11
287.954823590587
 21
235.3353823451878
 31
0.0
  0
LINE
  5
E1F
330
1F
100
AcDbEntity
  8
0
100
AcDbLine
 10
275.954823590587
 20
233.8353823451878
 30
0.0
 11
287.954823590587
 21
233.8353823451878
 31
0.0
  0
LINE
  5
E20
330
1F
100
AcDbEntity
  8
0
100
AcDbLine
 10
348.454823590587
 20
260.3353823451878
 30
0.0
 11
367.454823590587
 21
260.3353823451878
 31
0.0
  0
LINE
  5
E21
330
1F
100
AcDbEntity
  8
0
100
AcDbLine
 10
348.454823590587
 20
258.8353823451878
 30
0.0
 11
367.454823590587
 21
258.8353823451878
 31
0.0
  0
LINE
  5
E22
330
1F
100
AcDbEntity
  8
0
100
AcDbLine
 10
348.454823590587
 20
235.3353823451878
 30
0.0
 11
367.454823590587
 21
235.3353823451878
 31
0.0
  0
LINE
  5
E23
330
1F
100
AcDbEntity
  8
0
100
AcDbLine
 10
348.454823590587
 20
233.8353823451878
 30
0.0
 11
367.454823590587
 21
233.8353823451878
 31
0.0
  0
LINE
  5
E24
330
1F
100
AcDbEntity
  8
0
100
AcDbLine
 10
443.4548235905871
 20
260.3353823451878
 30
0.0
 11
458.9548235905871
 21
260.3353823451878
 31
0.0
  0
LINE
  5
E25
330
1F
100
AcDbEntity
  8
0
100
AcDbLine
 10
443.4548235905871
 20
258.8353823451878
 30
0.0
 11
458.9548235905871
 21
258.8353823451878
 31
0.0
  0
LINE
  5
E26
330
1F
100
AcDbEntity
  8
0
100
AcDbLine
 10
443.4548235905871
 20
235.3353823451878
 30
0.0
 11
458.9548235905871
 21
235.3353823451878
 31
0.0
  0
LINE
  5
E27
330
1F
100
AcDbEntity
  8
0
100
AcDbLine
 10
443.4548235905871
 20
233.8353823451878
 30
0.0
 11
458.9548235905871
 21
233.8353823451878
 31
0.0
  0
ARC
  5
E28
330
1F
100
AcDbEntity
  8
0
100
AcDbCircle
 10
275.954823590587
 20
261.3353823451878
 30
0.0
 40
1.0
100
AcDbArc
 50
180.0
 51
270.0
  0
ARC
  5
E29
330
1F
100
AcDbEntity
  8
0
100
AcDbCircle
 10
287.954823590587
 20
261.3353823451878
 30
0.0
 40
1.0
100
AcDbArc
 50
270.0
 51
0.0
  0
ARC
  5
E2A
330
1F
100
AcDbEntity
  8
0
100
AcDbCircle
 10
287.954823590587
 20
257.8353823451878
 30
0.0
 40
1.0
100
AcDbArc
 50
0.0
 51
90.0
  0
ARC
  5
E2B
330
1F
100
AcDbEntity
  8
0
100
AcDbCircle
 10
275.954823590587
 20
257.8353823451878
 30
0.0
 40
1.0
100
AcDbArc
 50
90.0
 51
180.0
  0
ARC
  5
E2C
330
1F
100
AcDbEntity
  8
0
100
AcDbCircle
 10
275.954823590587
 20
236.3353823451878
 30
0.0
 40
1.0
100
AcDbArc
 50
180.0
 51
270.0
  0
ARC
  5
E2D
330
1F
100
AcDbEntity
  8
0
100
AcDbCircle
 10
287.954823590587
 20
236.3353823451878
 30
0.0
 40
1.0
100
AcDbArc
 50
270.0
 51
0.0
  0
ARC
  5
E2E
330
1F
100
AcDbEntity
  8
0
100
AcDbCircle
 10
275.954823590587
 20
232.8353823451878
 30
0.0
 40
1.0
100
AcDbArc
 50
90.0
 51
180.0
  0
ARC
  5
E2F
330
1F
100
AcDbEntity
  8
0
100
AcDbCircle
 10
287.954823590587
 20
232.8353823451878
 30
0.0
 40
1.0
100
AcDbArc
 50
0.0
 51
90.0
  0
LINE
  5
E30
330
1F
100
AcDbEntity
  8
0
100
AcDbLine
 10
452.9548235905871
 20
213.8353823451878
 30
0.0
 11
449.4548235905871
 21
213.8353823451878
 31
0.0
  0
ARC
  5
E31
330
1F
100
AcDbEntity
  8
0
100
AcDbCircle
 10
277.954823590587
 20
271.3353823451878
 30
0.0
 40
3.000000000000001
100
AcDbArc
 50
90.0
 51
180.0
  0
ARC
  5
E32
330
1F
100
AcDbEntity
  8
0
100
AcDbCircle
 10
285.954823590587
 20
271.3353823451878
 30
0.0
 40
3.000000000000001
100
AcDbArc
 50
0.0
 51
90.0
  0
ARC
  5
E33
330
1F
100
AcDbEntity
  8
0
100
AcDbCircle
 10
350.454823590587
 20
271.3353823451878
 30
0.0
 40
3.000000000000001
100
AcDbArc
 50
90.0
 51
180.0
  0
ARC
  5
E34
330
1F
100
AcDbEntity
  8
0
100
AcDbCircle
 10
365.454823590587
 20
271.3353823451878
 30
0.0
 40
3.000000000000001
100
AcDbArc
 50
0.0
 51
90.0
  0
ARC
  5
E35
330
1F
100
AcDbEntity
  8
0
100
AcDbCircle
 10
445.4548235905871
 20
271.3353823451878
 30
0.0
 40
2.999999999999999
100
AcDbArc
 50
90.0
 51
180.0
  0
ARC
  5
E36
330
1F
100
AcDbEntity
  8
0
100
AcDbCircle
 10
456.9548235905871
 20
271.3353823451878
 30
0.0
 40
3.000000000000002
100
AcDbArc
 50
0.0
 51
90.0
  0
ARC
  5
E37
330
1F
100
AcDbEntity
  8
0
100
AcDbCircle
 10
348.454823590587
 20
261.3353823451878
 30
0.0
 40
1.0
100
AcDbArc
 50
180.0
 51
270.0
  0
ARC
  5
E38
330
1F
100
AcDbEntity
  8
0
100
AcDbCircle
 10
367.454823590587
 20
261.3353823451878
 30
0.0
 40
1.0
100
AcDbArc
 50
270.0
 51
0.0
  0
ARC
  5
E39
330
1F
100
AcDbEntity
  8
0
100
AcDbCircle
 10
348.454823590587
 20
257.8353823451878
 30
0.0
 40
1.0
100
AcDbArc
 50
90.0
 51
180.0
  0
ARC
  5
E3A
330
1F
100
AcDbEntity
  8
0
100
AcDbCircle
 10
367.454823590587
 20
257.8353823451878
 30
0.0
 40
1.0
100
AcDbArc
 50
0.0
 51
90.0
  0
ARC
  5
E3B
330
1F
100
AcDbEntity
  8
0
100
AcDbCircle
 10
348.454823590587
 20
236.3353823451878
 30
0.0
 40
1.0
100
AcDbArc
 50
180.0
 51
270.0
  0
ARC
  5
E3C
330
1F
100
AcDbEntity
  8
0
100
AcDbCircle
 10
367.454823590587
 20
236.3353823451878
 30
0.0
 40
1.0
100
AcDbArc
 50
270.0
 51
0.0
  0
ARC
  5
E3D
330
1F
100
AcDbEntity
  8
0
100
AcDbCircle
 10
348.454823590587
 20
232.8353823451878
 30
0.0
 40
1.0
100
AcDbArc
 50
90.0
 51
180.0
  0
ARC
  5
E3E
330
1F
100
AcDbEntity
  8
0
100
AcDbCircle
 10
367.454823590587
 20
232.8353823451878
 30
0.0
 40
1.0
100
AcDbArc
 50
0.0
 51
90.0
  0
ARC
  5
E3F
330
1F
100
AcDbEntity
  8
0
100
AcDbCircle
 10
443.4548235905871
 20
232.8353823451878
 30
0.0
 40
1.0
100
AcDbArc
 50
90.0
 51
180.0
  0
ARC
  5
E40
330
1F
100
AcDbEntity
  8
0
100
AcDbCircle
 10
458.9548235905871
 20
232.8353823451878
 30
0.0
 40
1.0
100
AcDbArc
 50
0.0
 51
90.0
  0
ARC
  5
E41
330
1F
100
AcDbEntity
  8
0
100
AcDbCircle
 10
458.9548235905871
 20
236.3353823451878
 30
0.0
 40
1.0
100
AcDbArc
 50
270.0
 51
0.0
  0
ARC
  5
E42
330
1F
100
AcDbEntity
  8
0
100
AcDbCircle
 10
443.4548235905871
 20
236.3353823451878
 30
0.0
 40
1.0
100
AcDbArc
 50
180.0
 51
270.0
  0
ARC
  5
E43
330
1F
100
AcDbEntity
  8
0
100
AcDbCircle
 10
443.4548235905871
 20
261.3353823451878
 30
0.0
 40
1.0
100
AcDbArc
 50
180.0
 51
270.0
  0
ARC
  5
E44
330
1F
100
AcDbEntity
  8
0
100
AcDbCircle
 10
458.9548235905871
 20
261.3353823451878
 30
0.0
 40
1.0
100
AcDbArc
 50
270.0
 51
0.0
  0
ARC
  5
E45
330
1F
100
AcDbEntity
  8
0
100
AcDbCircle
 10
300.954823590587
 20
220.8353823451878
 30
0.0
 40
7.0
100
AcDbArc
 50
180.0
 51
270.0
  0
ARC
  5
E46
330
1F
100
AcDbEntity
  8
0
100
AcDbCircle
 10
300.954823590587
 20
220.8353823451878
 30
0.0
 40
7.0
100
AcDbArc
 50
270.0
 51
0.0
  0
LINE
  5
E47
330
1F
100
AcDbEntity
  8
0
100
AcDbLine
 10
293.954823590587
 20
232.8353823451878
 30
0.0
 11
293.954823590587
 21
220.8353823451878
 31
0.0
  0
LINE
  5
E48
330
1F
100
AcDbEntity
  8
0
100
AcDbLine
 10
300.954823590587
 20
233.8353823451878
 30
0.0
 11
300.954823590587
 21
213.8353823451878
 31
0.0
  0
LINE
  5
E49
330
1F
100
AcDbEntity
  8
0
100
AcDbLine
 10
307.954823590587
 20
232.8353823451878
 30
0.0
 11
307.954823590587
 21
220.8353823451878
 31
0.0
  0
LINE
  5
E4A
330
1F
100
AcDbEntity
  8
0
100
AcDbLine
 10
293.954823590587
 20
257.8353823451878
 30
0.0
 11
293.954823590587
 21
236.3353823451878
 31
0.0
  0
LINE
  5
E4B
330
1F
100
AcDbEntity
  8
0
100
AcDbLine
 10
293.954823590587
 20
271.3353823451878
 30
0.0
 11
293.954823590587
 21
261.3353823451878
 31
0.0
  0
LINE
  5
E4C
330
1F
100
AcDbEntity
  8
0
100
AcDbLine
 10
300.954823590587
 20
258.8353823451878
 30
0.0
 11
300.954823590587
 21
235.3353823451878
 31
0.0
  0
LINE
  5
E4D
330
1F
100
AcDbEntity
  8
0
100
AcDbLine
 10
307.954823590587
 20
257.8353823451878
 30
0.0
 11
307.954823590587
 21
236.3353823451878
 31
0.0
  0
LINE
  5
E4E
330
1F
100
AcDbEntity
  8
0
100
AcDbLine
 10
307.954823590587
 20
271.3353823451878
 30
0.0
 11
307.954823590587
 21
261.3353823451878
 31
0.0
  0
LINE
  5
E4F
330
1F
100
AcDbEntity
  8
0
100
AcDbLine
 10
296.954823590587
 20
274.3353823451878
 30
0.0
 11
304.954823590587
 21
274.3353823451878
 31
0.0
  0
LINE
  5
E50
330
1F
100
AcDbEntity
  8
0
100
AcDbLine
 10
300.954823590587
 20
274.3353823451878
 30
0.0
 11
300.954823590587
 21
260.3353823451878
 31
0.0
  0
LINE
  5
E51
330
1F
100
AcDbEntity
  8
0
100
AcDbLine
 10
294.954823590587
 20
260.3353823451878
 30
0.0
 11
306.954823590587
 21
260.3353823451878
 31
0.0
  0
LINE
  5
E52
330
1F
100
AcDbEntity
  8
0
100
AcDbLine
 10
294.954823590587
 20
258.8353823451878
 30
0.0
 11
306.954823590587
 21
258.8353823451878
 31
0.0
  0
LINE
  5
E53
330
1F
100
AcDbEntity
  8
0
100
AcDbLine
 10
294.954823590587
 20
235.3353823451878
 30
0.0
 11
306.954823590587
 21
235.3353823451878
 31
0.0
  0
LINE
  5
E54
330
1F
100
AcDbEntity
  8
0
100
AcDbLine
 10
294.954823590587
 20
233.8353823451878
 30
0.0
 11
306.954823590587
 21
233.8353823451878
 31
0.0
  0
ARC
  5
E55
330
1F
100
AcDbEntity
  8
0
100
AcDbCircle
 10
294.954823590587
 20
261.3353823451878
 30
0.0
 40
1.0
100
AcDbArc
 50
180.0
 51
270.0
  0
ARC
  5
E56
330
1F
100
AcDbEntity
  8
0
100
AcDbCircle
 10
306.954823590587
 20
261.3353823451878
 30
0.0
 40
1.0
100
AcDbArc
 50
270.0
 51
0.0
  0
ARC
  5
E57
330
1F
100
AcDbEntity
  8
0
100
AcDbCircle
 10
306.954823590587
 20
257.8353823451878
 30
0.0
 40
1.0
100
AcDbArc
 50
0.0
 51
90.0
  0
ARC
  5
E58
330
1F
100
AcDbEntity
  8
0
100
AcDbCircle
 10
294.954823590587
 20
257.8353823451878
 30
0.0
 40
1.0
100
AcDbArc
 50
90.0
 51
180.0
  0
ARC
  5
E59
330
1F
100
AcDbEntity
  8
0
100
AcDbCircle
 10
294.954823590587
 20
236.3353823451878
 30
0.0
 40
1.0
100
AcDbArc
 50
180.0
 51
270.0
  0
ARC
  5
E5A
330
1F
100
AcDbEntity
  8
0
100
AcDbCircle
 10
306.954823590587
 20
236.3353823451878
 30
0.0
 40
1.0
100
AcDbArc
 50
270.0
 51
0.0
  0
ARC
  5
E5B
330
1F
100
AcDbEntity
  8
0
100
AcDbCircle
 10
294.954823590587
 20
232.8353823451878
 30
0.0
 40
1.0
100
AcDbArc
 50
90.0
 51
180.0
  0
ARC
  5
E5C
330
1F
100
AcDbEntity
  8
0
100
AcDbCircle
 10
306.954823590587
 20
232.8353823451878
 30
0.0
 40
1.0
100
AcDbArc
 50
0.0
 51
90.0
  0
ARC
  5
E5D
330
1F
100
AcDbEntity
  8
0
100
AcDbCircle
 10
296.954823590587
 20
271.3353823451878
 30
0.0
 40
3.000000000000001
100
AcDbArc
 50
90.0
 51
180.0
  0
ARC
  5
E5E
330
1F
100
AcDbEntity
  8
0
100
AcDbCircle
 10
304.954823590587
 20
271.3353823451878
 30
0.0
 40
3.000000000000001
100
AcDbArc
 50
0.0
 51
90.0
  0
ARC
  5
E5F
330
1F
100
AcDbEntity
  8
0
100
AcDbCircle
 10
319.954823590587
 20
220.8353823451878
 30
0.0
 40
7.0
100
AcDbArc
 50
180.0
 51
270.0
  0
ARC
  5
E60
330
1F
100
AcDbEntity
  8
0
100
AcDbCircle
 10
319.954823590587
 20
220.8353823451878
 30
0.0
 40
7.0
100
AcDbArc
 50
270.0
 51
0.0
  0
LINE
  5
E61
330
1F
100
AcDbEntity
  8
0
100
AcDbLine
 10
312.954823590587
 20
232.8353823451878
 30
0.0
 11
312.954823590587
 21
220.8353823451878
 31
0.0
  0
LINE
  5
E62
330
1F
100
AcDbEntity
  8
0
100
AcDbLine
 10
319.954823590587
 20
233.8353823451878
 30
0.0
 11
319.954823590587
 21
213.8353823451878
 31
0.0
  0
LINE
  5
E63
330
1F
100
AcDbEntity
  8
0
100
AcDbLine
 10
326.954823590587
 20
232.8353823451878
 30
0.0
 11
326.954823590587
 21
220.8353823451878
 31
0.0
  0
LINE
  5
E64
330
1F
100
AcDbEntity
  8
0
100
AcDbLine
 10
312.954823590587
 20
257.8353823451878
 30
0.0
 11
312.954823590587
 21
236.3353823451878
 31
0.0
  0
LINE
  5
E65
330
1F
100
AcDbEntity
  8
0
100
AcDbLine
 10
312.954823590587
 20
271.3353823451878
 30
0.0
 11
312.954823590587
 21
261.3353823451878
 31
0.0
  0
LINE
  5
E66
330
1F
100
AcDbEntity
  8
0
100
AcDbLine
 10
319.954823590587
 20
258.8353823451878
 30
0.0
 11
319.954823590587
 21
235.3353823451878
 31
0.0
  0
LINE
  5
E67
330
1F
100
AcDbEntity
  8
0
100
AcDbLine
 10
326.954823590587
 20
257.8353823451878
 30
0.0
 11
326.954823590587
 21
236.3353823451878
 31
0.0
  0
LINE
  5
E68
330
1F
100
AcDbEntity
  8
0
100
AcDbLine
 10
326.954823590587
 20
271.3353823451878
 30
0.0
 11
326.954823590587
 21
261.3353823451878
 31
0.0
  0
LINE
  5
E69
330
1F
100
AcDbEntity
  8
0
100
AcDbLine
 10
315.954823590587
 20
274.3353823451878
 30
0.0
 11
323.954823590587
 21
274.3353823451878
 31
0.0
  0
LINE
  5
E6A
330
1F
100
AcDbEntity
  8
0
100
AcDbLine
 10
319.954823590587
 20
274.3353823451878
 30
0.0
 11
319.954823590587
 21
260.3353823451878
 31
0.0
  0
LINE
  5
E6B
330
1F
100
AcDbEntity
  8
0
100
AcDbLine
 10
313.954823590587
 20
260.3353823451878
 30
0.0
 11
325.954823590587
 21
260.3353823451878
 31
0.0
  0
LINE
  5
E6C
330
1F
100
AcDbEntity
  8
0
100
AcDbLine
 10
313.954823590587
 20
258.8353823451878
 30
0.0
 11
325.954823590587
 21
258.8353823451878
 31
0.0
  0
LINE
  5
E6D
330
1F
100
AcDbEntity
  8
0
100
AcDbLine
 10
313.954823590587
 20
235.3353823451878
 30
0.0
 11
325.954823590587
 21
235.3353823451878
 31
0.0
  0
LINE
  5
E6E
330
1F
100
AcDbEntity
  8
0
100
AcDbLine
 10
313.954823590587
 20
233.8353823451878
 30
0.0
 11
325.954823590587
 21
233.8353823451878
 31
0.0
  0
ARC
  5
E6F
330
1F
100
AcDbEntity
  8
0
100
AcDbCircle
 10
313.954823590587
 20
261.3353823451878
 30
0.0
 40
1.0
100
AcDbArc
 50
180.0
 51
270.0
  0
ARC
  5
E70
330
1F
100
AcDbEntity
  8
0
100
AcDbCircle
 10
325.954823590587
 20
261.3353823451878
 30
0.0
 40
1.0
100
AcDbArc
 50
270.0
 51
0.0
  0
ARC
  5
E71
330
1F
100
AcDbEntity
  8
0
100
AcDbCircle
 10
325.954823590587
 20
257.8353823451878
 30
0.0
 40
1.0
100
AcDbArc
 50
0.0
 51
90.0
  0
ARC
  5
E72
330
1F
100
AcDbEntity
  8
0
100
AcDbCircle
 10
313.954823590587
 20
257.8353823451878
 30
0.0
 40
1.0
100
AcDbArc
 50
90.0
 51
180.0
  0
ARC
  5
E73
330
1F
100
AcDbEntity
  8
0
100
AcDbCircle
 10
313.954823590587
 20
236.3353823451878
 30
0.0
 40
1.0
100
AcDbArc
 50
180.0
 51
270.0
  0
ARC
  5
E74
330
1F
100
AcDbEntity
  8
0
100
AcDbCircle
 10
325.954823590587
 20
236.3353823451878
 30
0.0
 40
1.0
100
AcDbArc
 50
270.0
 51
0.0
  0
ARC
  5
E75
330
1F
100
AcDbEntity
  8
0
100
AcDbCircle
 10
313.954823590587
 20
232.8353823451878
 30
0.0
 40
1.0
100
AcDbArc
 50
90.0
 51
180.0
  0
ARC
  5
E76
330
1F
100
AcDbEntity
  8
0
100
AcDbCircle
 10
325.954823590587
 20
232.8353823451878
 30
0.0
 40
1.0
100
AcDbArc
 50
0.0
 51
90.0
  0
ARC
  5
E77
330
1F
100
AcDbEntity
  8
0
100
AcDbCircle
 10
315.954823590587
 20
271.3353823451878
 30
0.0
 40
3.000000000000001
100
AcDbArc
 50
90.0
 51
180.0
  0
ARC
  5
E78
330
1F
100
AcDbEntity
  8
0
100
AcDbCircle
 10
323.954823590587
 20
271.3353823451878
 30
0.0
 40
3.000000000000001
100
AcDbArc
 50
0.0
 51
90.0
  0
ARC
  5
E79
330
1F
100
AcDbEntity
  8
0
100
AcDbCircle
 10
338.954823590587
 20
220.8353823451878
 30
0.0
 40
7.0
100
AcDbArc
 50
180.0
 51
270.0
  0
ARC
  5
E7A
330
1F
100
AcDbEntity
  8
0
100
AcDbCircle
 10
338.954823590587
 20
220.8353823451878
 30
0.0
 40
7.0
100
AcDbArc
 50
270.0
 51
0.0
  0
LINE
  5
E7B
330
1F
100
AcDbEntity
  8
0
100
AcDbLine
 10
331.954823590587
 20
232.8353823451878
 30
0.0
 11
331.954823590587
 21
220.8353823451878
 31
0.0
  0
LINE
  5
E7C
330
1F
100
AcDbEntity
  8
0
100
AcDbLine
 10
338.954823590587
 20
233.8353823451878
 30
0.0
 11
338.954823590587
 21
213.8353823451878
 31
0.0
  0
LINE
  5
E7D
330
1F
100
AcDbEntity
  8
0
100
AcDbLine
 10
345.954823590587
 20
232.8353823451878
 30
0.0
 11
345.954823590587
 21
220.8353823451878
 31
0.0
  0
LINE
  5
E7E
330
1F
100
AcDbEntity
  8
0
100
AcDbLine
 10
331.954823590587
 20
257.8353823451878
 30
0.0
 11
331.954823590587
 21
236.3353823451878
 31
0.0
  0
LINE
  5
E7F
330
1F
100
AcDbEntity
  8
0
100
AcDbLine
 10
331.954823590587
 20
271.3353823451878
 30
0.0
 11
331.954823590587
 21
261.3353823451878
 31
0.0
  0
LINE
  5
E80
330
1F
100
AcDbEntity
  8
0
100
AcDbLine
 10
338.954823590587
 20
258.8353823451878
 30
0.0
 11
338.954823590587
 21
235.3353823451878
 31
0.0
  0
LINE
  5
E81
330
1F
100
AcDbEntity
  8
0
100
AcDbLine
 10
345.954823590587
 20
257.8353823451878
 30
0.0
 11
345.954823590587
 21
236.3353823451878
 31
0.0
  0
LINE
  5
E82
330
1F
100
AcDbEntity
  8
0
100
AcDbLine
 10
345.954823590587
 20
271.3353823451878
 30
0.0
 11
345.954823590587
 21
261.3353823451878
 31
0.0
  0
LINE
  5
E83
330
1F
100
AcDbEntity
  8
0
100
AcDbLine
 10
334.954823590587
 20
274.3353823451878
 30
0.0
 11
342.954823590587
 21
274.3353823451878
 31
0.0
  0
LINE
  5
E84
330
1F
100
AcDbEntity
  8
0
100
AcDbLine
 10
338.954823590587
 20
274.3353823451878
 30
0.0
 11
338.954823590587
 21
260.3353823451878
 31
0.0
  0
LINE
  5
E85
330
1F
100
AcDbEntity
  8
0
100
AcDbLine
 10
332.954823590587
 20
260.3353823451878
 30
0.0
 11
344.954823590587
 21
260.3353823451878
 31
0.0
  0
LINE
  5
E86
330
1F
100
AcDbEntity
  8
0
100
AcDbLine
 10
332.954823590587
 20
258.8353823451878
 30
0.0
 11
344.954823590587
 21
258.8353823451878
 31
0.0
  0
LINE
  5
E87
330
1F
100
AcDbEntity
  8
0
100
AcDbLine
 10
332.954823590587
 20
235.3353823451878
 30
0.0
 11
344.954823590587
 21
235.3353823451878
 31
0.0
  0
LINE
  5
E88
330
1F
100
AcDbEntity
  8
0
100
AcDbLine
 10
332.954823590587
 20
233.8353823451878
 30
0.0
 11
344.954823590587
 21
233.8353823451878
 31
0.0
  0
ARC
  5
E89
330
1F
100
AcDbEntity
  8
0
100
AcDbCircle
 10
332.954823590587
 20
261.3353823451878
 30
0.0
 40
1.0
100
AcDbArc
 50
180.0
 51
270.0
  0
ARC
  5
E8A
330
1F
100
AcDbEntity
  8
0
100
AcDbCircle
 10
344.954823590587
 20
261.3353823451878
 30
0.0
 40
1.0
100
AcDbArc
 50
270.0
 51
0.0
  0
ARC
  5
E8B
330
1F
100
AcDbEntity
  8
0
100
AcDbCircle
 10
344.954823590587
 20
257.8353823451878
 30
0.0
 40
1.0
100
AcDbArc
 50
0.0
 51
90.0
  0
ARC
  5
E8C
330
1F
100
AcDbEntity
  8
0
100
AcDbCircle
 10
332.954823590587
 20
257.8353823451878
 30
0.0
 40
1.0
100
AcDbArc
 50
90.0
 51
180.0
  0
ARC
  5
E8D
330
1F
100
AcDbEntity
  8
0
100
AcDbCircle
 10
332.954823590587
 20
236.3353823451878
 30
0.0
 40
1.0
100
AcDbArc
 50
180.0
 51
270.0
  0
ARC
  5
E8E
330
1F
100
AcDbEntity
  8
0
100
AcDbCircle
 10
344.954823590587
 20
236.3353823451878
 30
0.0
 40
1.0
100
AcDbArc
 50
270.0
 51
0.0
  0
ARC
  5
E8F
330
1F
100
AcDbEntity
  8
0
100
AcDbCircle
 10
332.954823590587
 20
232.8353823451878
 30
0.0
 40
1.0
100
AcDbArc
 50
90.0
 51
180.0
  0
ARC
  5
E90
330
1F
100
AcDbEntity
  8
0
100
AcDbCircle
 10
344.954823590587
 20
232.8353823451878
 30
0.0
 40
1.0
100
AcDbArc
 50
0.0
 51
90.0
  0
ARC
  5
E91
330
1F
100
AcDbEntity
  8
0
100
AcDbCircle
 10
334.954823590587
 20
271.3353823451878
 30
0.0
 40
3.000000000000001
100
AcDbArc
 50
90.0
 51
180.0
  0
ARC
  5
E92
330
1F
100
AcDbEntity
  8
0
100
AcDbCircle
 10
342.954823590587
 20
271.3353823451878
 30
0.0
 40
3.000000000000001
100
AcDbArc
 50
0.0
 51
90.0
  0
ARC
  5
E93
330
1F
100
AcDbEntity
  8
0
100
AcDbCircle
 10
376.954823590587
 20
220.8353823451878
 30
0.0
 40
7.0
100
AcDbArc
 50
180.0
 51
270.0
  0
ARC
  5
E94
330
1F
100
AcDbEntity
  8
0
100
AcDbCircle
 10
376.954823590587
 20
220.8353823451878
 30
0.0
 40
7.0
100
AcDbArc
 50
270.0
 51
0.0
  0
LINE
  5
E95
330
1F
100
AcDbEntity
  8
0
100
AcDbLine
 10
369.954823590587
 20
232.8353823451878
 30
0.0
 11
369.954823590587
 21
220.8353823451878
 31
0.0
  0
LINE
  5
E96
330
1F
100
AcDbEntity
  8
0
100
AcDbLine
 10
376.954823590587
 20
233.8353823451878
 30
0.0
 11
376.954823590587
 21
213.8353823451878
 31
0.0
  0
LINE
  5
E97
330
1F
100
AcDbEntity
  8
0
100
AcDbLine
 10
383.954823590587
 20
232.8353823451878
 30
0.0
 11
383.954823590587
 21
220.8353823451878
 31
0.0
  0
LINE
  5
E98
330
1F
100
AcDbEntity
  8
0
100
AcDbLine
 10
369.954823590587
 20
257.8353823451878
 30
0.0
 11
369.954823590587
 21
236.3353823451878
 31
0.0
  0
LINE
  5
E99
330
1F
100
AcDbEntity
  8
0
100
AcDbLine
 10
369.954823590587
 20
271.3353823451878
 30
0.0
 11
369.954823590587
 21
261.3353823451878
 31
0.0
  0
LINE
  5
E9A
330
1F
100
AcDbEntity
  8
0
100
AcDbLine
 10
376.954823590587
 20
258.8353823451878
 30
0.0
 11
376.954823590587
 21
235.3353823451878
 31
0.0
  0
LINE
  5
E9B
330
1F
100
AcDbEntity
  8
0
100
AcDbLine
 10
383.954823590587
 20
257.8353823451878
 30
0.0
 11
383.954823590587
 21
236.3353823451878
 31
0.0
  0
LINE
  5
E9C
330
1F
100
AcDbEntity
  8
0
100
AcDbLine
 10
383.954823590587
 20
271.3353823451878
 30
0.0
 11
383.954823590587
 21
261.3353823451878
 31
0.0
  0
LINE
  5
E9D
330
1F
100
AcDbEntity
  8
0
100
AcDbLine
 10
372.954823590587
 20
274.3353823451878
 30
0.0
 11
380.954823590587
 21
274.3353823451878
 31
0.0
  0
LINE
  5
E9E
330
1F
100
AcDbEntity
  8
0
100
AcDbLine
 10
376.954823590587
 20
274.3353823451878
 30
0.0
 11
376.954823590587
 21
260.3353823451878
 31
0.0
  0
LINE
  5
E9F
330
1F
100
AcDbEntity
  8
0
100
AcDbLine
 10
370.954823590587
 20
260.3353823451878
 30
0.0
 11
382.954823590587
 21
260.3353823451878
 31
0.0
  0
LINE
  5
EA0
330
1F
100
AcDbEntity
  8
0
100
AcDbLine
 10
370.954823590587
 20
258.8353823451878
 30
0.0
 11
382.954823590587
 21
258.8353823451878
 31
0.0
  0
LINE
  5
EA1
330
1F
100
AcDbEntity
  8
0
100
AcDbLine
 10
370.954823590587
 20
235.3353823451878
 30
0.0
 11
382.954823590587
 21
235.3353823451878
 31
0.0
  0
LINE
  5
EA2
330
1F
100
AcDbEntity
  8
0
100
AcDbLine
 10
370.954823590587
 20
233.8353823451878
 30
0.0
 11
382.954823590587
 21
233.8353823451878
 31
0.0
  0
ARC
  5
EA3
330
1F
100
AcDbEntity
  8
0
100
AcDbCircle
 10
370.954823590587
 20
261.3353823451878
 30
0.0
 40
1.0
100
AcDbArc
 50
180.0
 51
270.0
  0
ARC
  5
EA4
330
1F
100
AcDbEntity
  8
0
100
AcDbCircle
 10
382.954823590587
 20
261.3353823451878
 30
0.0
 40
1.0
100
AcDbArc
 50
270.0
 51
0.0
  0
ARC
  5
EA5
330
1F
100
AcDbEntity
  8
0
100
AcDbCircle
 10
382.954823590587
 20
257.8353823451878
 30
0.0
 40
1.0
100
AcDbArc
 50
0.0
 51
90.0
  0
ARC
  5
EA6
330
1F
100
AcDbEntity
  8
0
100
AcDbCircle
 10
370.954823590587
 20
257.8353823451878
 30
0.0
 40
1.0
100
AcDbArc
 50
90.0
 51
180.0
  0
ARC
  5
EA7
330
1F
100
AcDbEntity
  8
0
100
AcDbCircle
 10
370.954823590587
 20
236.3353823451878
 30
0.0
 40
1.0
100
AcDbArc
 50
180.0
 51
270.0
  0
ARC
  5
EA8
330
1F
100
AcDbEntity
  8
0
100
AcDbCircle
 10
382.954823590587
 20
236.3353823451878
 30
0.0
 40
1.0
100
AcDbArc
 50
270.0
 51
0.0
  0
ARC
  5
EA9
330
1F
100
AcDbEntity
  8
0
100
AcDbCircle
 10
370.954823590587
 20
232.8353823451878
 30
0.0
 40
1.0
100
AcDbArc
 50
90.0
 51
180.0
  0
ARC
  5
EAA
330
1F
100
AcDbEntity
  8
0
100
AcDbCircle
 10
382.954823590587
 20
232.8353823451878
 30
0.0
 40
1.0
100
AcDbArc
 50
0.0
 51
90.0
  0
ARC
  5
EAB
330
1F
100
AcDbEntity
  8
0
100
AcDbCircle
 10
372.954823590587
 20
271.3353823451878
 30
0.0
 40
3.000000000000001
100
AcDbArc
 50
90.0
 51
180.0
  0
ARC
  5
EAC
330
1F
100
AcDbEntity
  8
0
100
AcDbCircle
 10
380.954823590587
 20
271.3353823451878
 30
0.0
 40
3.000000000000001
100
AcDbArc
 50
0.0
 51
90.0
  0
ARC
  5
EAD
330
1F
100
AcDbEntity
  8
0
100
AcDbCircle
 10
395.954823590587
 20
220.8353823451878
 30
0.0
 40
7.0
100
AcDbArc
 50
180.0
 51
270.0
  0
ARC
  5
EAE
330
1F
100
AcDbEntity
  8
0
100
AcDbCircle
 10
395.954823590587
 20
220.8353823451878
 30
0.0
 40
7.0
100
AcDbArc
 50
270.0
 51
0.0
  0
LINE
  5
EAF
330
1F
100
AcDbEntity
  8
0
100
AcDbLine
 10
388.954823590587
 20
232.8353823451878
 30
0.0
 11
388.954823590587
 21
220.8353823451878
 31
0.0
  0
LINE
  5
EB0
330
1F
100
AcDbEntity
  8
0
100
AcDbLine
 10
395.954823590587
 20
233.8353823451878
 30
0.0
 11
395.954823590587
 21
213.8353823451878
 31
0.0
  0
LINE
  5
EB1
330
1F
100
AcDbEntity
  8
0
100
AcDbLine
 10
402.954823590587
 20
232.8353823451878
 30
0.0
 11
402.954823590587
 21
220.8353823451878
 31
0.0
  0
LINE
  5
EB2
330
1F
100
AcDbEntity
  8
0
100
AcDbLine
 10
388.954823590587
 20
257.8353823451878
 30
0.0
 11
388.954823590587
 21
236.3353823451878
 31
0.0
  0
LINE
  5
EB3
330
1F
100
AcDbEntity
  8
0
100
AcDbLine
 10
388.954823590587
 20
271.3353823451878
 30
0.0
 11
388.954823590587
 21
261.3353823451878
 31
0.0
  0
LINE
  5
EB4
330
1F
100
AcDbEntity
  8
0
100
AcDbLine
 10
395.954823590587
 20
258.8353823451878
 30
0.0
 11
395.954823590587
 21
235.3353823451878
 31
0.0
  0
LINE
  5
EB5
330
1F
100
AcDbEntity
  8
0
100
AcDbLine
 10
402.954823590587
 20
257.8353823451878
 30
0.0
 11
402.954823590587
 21
236.3353823451878
 31
0.0
  0
LINE
  5
EB6
330
1F
100
AcDbEntity
  8
0
100
AcDbLine
 10
402.954823590587
 20
271.3353823451878
 30
0.0
 11
402.954823590587
 21
261.3353823451878
 31
0.0
  0
LINE
  5
EB7
330
1F
100
AcDbEntity
  8
0
100
AcDbLine
 10
391.954823590587
 20
274.3353823451878
 30
0.0
 11
399.954823590587
 21
274.3353823451878
 31
0.0
  0
LINE
  5
EB8
330
1F
100
AcDbEntity
  8
0
100
AcDbLine
 10
395.954823590587
 20
274.3353823451878
 30
0.0
 11
395.954823590587
 21
260.3353823451878
 31
0.0
  0
LINE
  5
EB9
330
1F
100
AcDbEntity
  8
0
100
AcDbLine
 10
389.954823590587
 20
260.3353823451878
 30
0.0
 11
401.954823590587
 21
260.3353823451878
 31
0.0
  0
LINE
  5
EBA
330
1F
100
AcDbEntity
  8
0
100
AcDbLine
 10
389.954823590587
 20
258.8353823451878
 30
0.0
 11
401.954823590587
 21
258.8353823451878
 31
0.0
  0
LINE
  5
EBB
330
1F
100
AcDbEntity
  8
0
100
AcDbLine
 10
389.954823590587
 20
235.3353823451878
 30
0.0
 11
401.954823590587
 21
235.3353823451878
 31
0.0
  0
LINE
  5
EBC
330
1F
100
AcDbEntity
  8
0
100
AcDbLine
 10
389.954823590587
 20
233.8353823451878
 30
0.0
 11
401.954823590587
 21
233.8353823451878
 31
0.0
  0
ARC
  5
EBD
330
1F
100
AcDbEntity
  8
0
100
AcDbCircle
 10
389.954823590587
 20
261.3353823451878
 30
0.0
 40
1.0
100
AcDbArc
 50
180.0
 51
270.0
  0
ARC
  5
EBE
330
1F
100
AcDbEntity
  8
0
100
AcDbCircle
 10
401.954823590587
 20
261.3353823451878
 30
0.0
 40
1.0
100
AcDbArc
 50
270.0
 51
0.0
  0
ARC
  5
EBF
330
1F
100
AcDbEntity
  8
0
100
AcDbCircle
 10
401.954823590587
 20
257.8353823451878
 30
0.0
 40
1.0
100
AcDbArc
 50
0.0
 51
90.0
  0
ARC
  5
EC0
330
1F
100
AcDbEntity
  8
0
100
AcDbCircle
 10
389.954823590587
 20
257.8353823451878
 30
0.0
 40
1.0
100
AcDbArc
 50
90.0
 51
180.0
  0
ARC
  5
EC1
330
1F
100
AcDbEntity
  8
0
100
AcDbCircle
 10
389.954823590587
 20
236.3353823451878
 30
0.0
 40
1.0
100
AcDbArc
 50
180.0
 51
270.0
  0
ARC
  5
EC2
330
1F
100
AcDbEntity
  8
0
100
AcDbCircle
 10
401.954823590587
 20
236.3353823451878
 30
0.0
 40
1.0
100
AcDbArc
 50
270.0
 51
0.0
  0
ARC
  5
EC3
330
1F
100
AcDbEntity
  8
0
100
AcDbCircle
 10
389.954823590587
 20
232.8353823451878
 30
0.0
 40
1.0
100
AcDbArc
 50
90.0
 51
180.0
  0
ARC
  5
EC4
330
1F
100
AcDbEntity
  8
0
100
AcDbCircle
 10
401.954823590587
 20
232.8353823451878
 30
0.0
 40
1.0
100
AcDbArc
 50
0.0
 51
90.0
  0
ARC
  5
EC5
330
1F
100
AcDbEntity
  8
0
100
AcDbCircle
 10
391.954823590587
 20
271.3353823451878
 30
0.0
 40
3.000000000000001
100
AcDbArc
 50
90.0
 51
180.0
  0
ARC
  5
EC6
330
1F
100
AcDbEntity
  8
0
100
AcDbCircle
 10
399.954823590587
 20
271.3353823451878
 30
0.0
 40
3.000000000000001
100
AcDbArc
 50
0.0
 51
90.0
  0
ARC
  5
EC7
330
1F
100
AcDbEntity
  8
0
100
AcDbCircle
 10
414.9548235905871
 20
220.8353823451878
 30
0.0
 40
7.0
100
AcDbArc
 50
180.0
 51
270.0
  0
ARC
  5
EC8
330
1F
100
AcDbEntity
  8
0
100
AcDbCircle
 10
414.9548235905871
 20
220.8353823451878
 30
0.0
 40
7.0
100
AcDbArc
 50
270.0
 51
0.0
  0
LINE
  5
EC9
330
1F
100
AcDbEntity
  8
0
100
AcDbLine
 10
407.9548235905871
 20
232.8353823451878
 30
0.0
 11
407.9548235905871
 21
220.8353823451878
 31
0.0
  0
LINE
  5
ECA
330
1F
100
AcDbEntity
  8
0
100
AcDbLine
 10
414.9548235905871
 20
233.8353823451878
 30
0.0
 11
414.9548235905871
 21
213.8353823451878
 31
0.0
  0
LINE
  5
ECB
330
1F
100
AcDbEntity
  8
0
100
AcDbLine
 10
421.9548235905871
 20
232.8353823451878
 30
0.0
 11
421.9548235905871
 21
220.8353823451878
 31
0.0
  0
LINE
  5
ECC
330
1F
100
AcDbEntity
  8
0
100
AcDbLine
 10
407.9548235905871
 20
257.8353823451878
 30
0.0
 11
407.9548235905871
 21
236.3353823451878
 31
0.0
  0
LINE
  5
ECD
330
1F
100
AcDbEntity
  8
0
100
AcDbLine
 10
407.9548235905871
 20
271.3353823451878
 30
0.0
 11
407.9548235905871
 21
261.3353823451878
 31
0.0
  0
LINE
  5
ECE
330
1F
100
AcDbEntity
  8
0
100
AcDbLine
 10
414.9548235905871
 20
258.8353823451878
 30
0.0
 11
414.9548235905871
 21
235.3353823451878
 31
0.0
  0
LINE
  5
ECF
330
1F
100
AcDbEntity
  8
0
100
AcDbLine
 10
421.9548235905871
 20
257.8353823451878
 30
0.0
 11
421.9548235905871
 21
236.3353823451878
 31
0.0
  0
LINE
  5
ED0
330
1F
100
AcDbEntity
  8
0
100
AcDbLine
 10
421.9548235905871
 20
271.3353823451878
 30
0.0
 11
421.9548235905871
 21
261.3353823451878
 31
0.0
  0
LINE
  5
ED1
330
1F
100
AcDbEntity
  8
0
100
AcDbLine
 10
410.9548235905871
 20
274.3353823451878
 30
0.0
 11
418.9548235905871
 21
274.3353823451878
 31
0.0
  0
LINE
  5
ED2
330
1F
100
AcDbEntity
  8
0
100
AcDbLine
 10
414.9548235905871
 20
274.3353823451878
 30
0.0
 11
414.9548235905871
 21
260.3353823451878
 31
0.0
  0
LINE
  5
ED3
330
1F
100
AcDbEntity
  8
0
100
AcDbLine
 10
408.9548235905871
 20
260.3353823451878
 30
0.0
 11
420.9548235905871
 21
260.3353823451878
 31
0.0
  0
LINE
  5
ED4
330
1F
100
AcDbEntity
  8
0
100
AcDbLine
 10
408.9548235905871
 20
258.8353823451878
 30
0.0
 11
420.9548235905871
 21
258.8353823451878
 31
0.0
  0
LINE
  5
ED5
330
1F
100
AcDbEntity
  8
0
100
AcDbLine
 10
408.9548235905871
 20
235.3353823451878
 30
0.0
 11
420.9548235905871
 21
235.3353823451878
 31
0.0
  0
LINE
  5
ED6
330
1F
100
AcDbEntity
  8
0
100
AcDbLine
 10
408.9548235905871
 20
233.8353823451878
 30
0.0
 11
420.9548235905871
 21
233.8353823451878
 31
0.0
  0
ARC
  5
ED7
330
1F
100
AcDbEntity
  8
0
100
AcDbCircle
 10
408.9548235905871
 20
261.3353823451878
 30
0.0
 40
1.0
100
AcDbArc
 50
180.0
 51
270.0
  0
ARC
  5
ED8
330
1F
100
AcDbEntity
  8
0
100
AcDbCircle
 10
420.9548235905871
 20
261.3353823451878
 30
0.0
 40
1.0
100
AcDbArc
 50
270.0
 51
0.0
  0
ARC
  5
ED9
330
1F
100
AcDbEntity
  8
0
100
AcDbCircle
 10
420.9548235905871
 20
257.8353823451878
 30
0.0
 40
1.0
100
AcDbArc
 50
0.0
 51
90.0
  0
ARC
  5
EDA
330
1F
100
AcDbEntity
  8
0
100
AcDbCircle
 10
408.9548235905871
 20
257.8353823451878
 30
0.0
 40
1.0
100
AcDbArc
 50
90.0
 51
180.0
  0
ARC
  5
EDB
330
1F
100
AcDbEntity
  8
0
100
AcDbCircle
 10
408.9548235905871
 20
236.3353823451878
 30
0.0
 40
1.0
100
AcDbArc
 50
180.0
 51
270.0
  0
ARC
  5
EDC
330
1F
100
AcDbEntity
  8
0
100
AcDbCircle
 10
420.9548235905871
 20
236.3353823451878
 30
0.0
 40
1.0
100
AcDbArc
 50
270.0
 51
0.0
  0
ARC
  5
EDD
330
1F
100
AcDbEntity
  8
0
100
AcDbCircle
 10
408.9548235905871
 20
232.8353823451878
 30
0.0
 40
1.0
100
AcDbArc
 50
90.0
 51
180.0
  0
ARC
  5
EDE
330
1F
100
AcDbEntity
  8
0
100
AcDbCircle
 10
420.9548235905871
 20
232.8353823451878
 30
0.0
 40
1.0
100
AcDbArc
 50
0.0
 51
90.0
  0
ARC
  5
EDF
330
1F
100
AcDbEntity
  8
0
100
AcDbCircle
 10
410.9548235905871
 20
271.3353823451878
 30
0.0
 40
3.000000000000001
100
AcDbArc
 50
90.0
 51
180.0
  0
ARC
  5
EE0
330
1F
100
AcDbEntity
  8
0
100
AcDbCircle
 10
418.9548235905871
 20
271.3353823451878
 30
0.0
 40
3.000000000000001
100
AcDbArc
 50
0.0
 51
90.0
  0
ARC
  5
EE1
330
1F
100
AcDbEntity
  8
0
100
AcDbCircle
 10
433.9548235905871
 20
220.8353823451878
 30
0.0
 40
7.0
100
AcDbArc
 50
180.0
 51
270.0
  0
ARC
  5
EE2
330
1F
100
AcDbEntity
  8
0
100
AcDbCircle
 10
433.9548235905871
 20
220.8353823451878
 30
0.0
 40
7.0
100
AcDbArc
 50
270.0
 51
0.0
  0
LINE
  5
EE3
330
1F
100
AcDbEntity
  8
0
100
AcDbLine
 10
426.9548235905871
 20
232.8353823451878
 30
0.0
 11
426.9548235905871
 21
220.8353823451878
 31
0.0
  0
LINE
  5
EE4
330
1F
100
AcDbEntity
  8
0
100
AcDbLine
 10
433.9548235905871
 20
233.8353823451878
 30
0.0
 11
433.9548235905871
 21
213.8353823451878
 31
0.0
  0
LINE
  5
EE5
330
1F
100
AcDbEntity
  8
0
100
AcDbLine
 10
440.9548235905871
 20
232.8353823451878
 30
0.0
 11
440.9548235905871
 21
220.8353823451878
 31
0.0
  0
LINE
  5
EE6
330
1F
100
AcDbEntity
  8
0
100
AcDbLine
 10
426.9548235905871
 20
257.8353823451878
 30
0.0
 11
426.9548235905871
 21
236.3353823451878
 31
0.0
  0
LINE
  5
EE7
330
1F
100
AcDbEntity
  8
0
100
AcDbLine
 10
426.9548235905871
 20
271.3353823451878
 30
0.0
 11
426.9548235905871
 21
261.3353823451878
 31
0.0
  0
LINE
  5
EE8
330
1F
100
AcDbEntity
  8
0
100
AcDbLine
 10
433.9548235905871
 20
258.8353823451878
 30
0.0
 11
433.9548235905871
 21
235.3353823451878
 31
0.0
  0
LINE
  5
EE9
330
1F
100
AcDbEntity
  8
0
100
AcDbLine
 10
440.9548235905871
 20
257.8353823451878
 30
0.0
 11
440.9548235905871
 21
236.3353823451878
 31
0.0
  0
LINE
  5
EEA
330
1F
100
AcDbEntity
  8
0
100
AcDbLine
 10
440.9548235905871
 20
271.3353823451878
 30
0.0
 11
440.9548235905871
 21
261.3353823451878
 31
0.0
  0
LINE
  5
EEB
330
1F
100
AcDbEntity
  8
0
100
AcDbLine
 10
429.9548235905871
 20
274.3353823451878
 30
0.0
 11
437.9548235905871
 21
274.3353823451878
 31
0.0
  0
LINE
  5
EEC
330
1F
100
AcDbEntity
  8
0
100
AcDbLine
 10
433.9548235905871
 20
274.3353823451878
 30
0.0
 11
433.9548235905871
 21
260.3353823451878
 31
0.0
  0
LINE
  5
EED
330
1F
100
AcDbEntity
  8
0
100
AcDbLine
 10
427.9548235905871
 20
260.3353823451878
 30
0.0
 11
439.9548235905871
 21
260.3353823451878
 31
0.0
  0
LINE
  5
EEE
330
1F
100
AcDbEntity
  8
0
100
AcDbLine
 10
427.9548235905871
 20
258.8353823451878
 30
0.0
 11
439.9548235905871
 21
258.8353823451878
 31
0.0
  0
LINE
  5
EEF
330
1F
100
AcDbEntity
  8
0
100
AcDbLine
 10
427.9548235905871
 20
235.3353823451878
 30
0.0
 11
439.9548235905871
 21
235.3353823451878
 31
0.0
  0
LINE
  5
EF0
330
1F
100
AcDbEntity
  8
0
100
AcDbLine
 10
427.9548235905871
 20
233.8353823451878
 30
0.0
 11
439.9548235905871
 21
233.8353823451878
 31
0.0
  0
ARC
  5
EF1
330
1F
100
AcDbEntity
  8
0
100
AcDbCircle
 10
427.9548235905871
 20
261.3353823451878
 30
0.0
 40
1.0
100
AcDbArc
 50
180.0
 51
270.0
  0
ARC
  5
EF2
330
1F
100
AcDbEntity
  8
0
100
AcDbCircle
 10
439.9548235905871
 20
261.3353823451878
 30
0.0
 40
1.0
100
AcDbArc
 50
270.0
 51
0.0
  0
ARC
  5
EF3
330
1F
100
AcDbEntity
  8
0
100
AcDbCircle
 10
439.9548235905871
 20
257.8353823451878
 30
0.0
 40
1.0
100
AcDbArc
 50
0.0
 51
90.0
  0
ARC
  5
EF4
330
1F
100
AcDbEntity
  8
0
100
AcDbCircle
 10
427.9548235905871
 20
257.8353823451878
 30
0.0
 40
1.0
100
AcDbArc
 50
90.0
 51
180.0
  0
ARC
  5
EF5
330
1F
100
AcDbEntity
  8
0
100
AcDbCircle
 10
427.9548235905871
 20
236.3353823451878
 30
0.0
 40
1.0
100
AcDbArc
 50
180.0
 51
270.0
  0
ARC
  5
EF6
330
1F
100
AcDbEntity
  8
0
100
AcDbCircle
 10
439.9548235905871
 20
236.3353823451878
 30
0.0
 40
1.0
100
AcDbArc
 50
270.0
 51
0.0
  0
ARC
  5
EF7
330
1F
100
AcDbEntity
  8
0
100
AcDbCircle
 10
427.9548235905871
 20
232.8353823451878
 30
0.0
 40
1.0
100
AcDbArc
 50
90.0
 51
180.0
  0
ARC
  5
EF8
330
1F
100
AcDbEntity
  8
0
100
AcDbCircle
 10
439.9548235905871
 20
232.8353823451878
 30
0.0
 40
1.0
100
AcDbArc
 50
0.0
 51
90.0
  0
ARC
  5
EF9
330
1F
100
AcDbEntity
  8
0
100
AcDbCircle
 10
429.9548235905871
 20
271.3353823451878
 30
0.0
 40
3.000000000000001
100
AcDbArc
 50
90.0
 51
180.0
  0
ARC
  5
EFA
330
1F
100
AcDbEntity
  8
0
100
AcDbCircle
 10
437.9548235905871
 20
271.3353823451878
 30
0.0
 40
3.000000000000001
100
AcDbArc
 50
0.0
 51
90.0
  0
LINE
  5
EFB
330
1F
100
AcDbEntity
  8
0
100
AcDbLine
 10
272.954823590587
 20
271.3353823451878
 30
0.0
 11
272.954823590587
 21
220.8353823451878
 31
0.0
  0
ARC
  5
EFC
330
1F
100
AcDbEntity
  8
0
100
AcDbCircle
 10
277.954823590587
 20
271.3353823451878
 30
0.0
 40
5.000000000000002
100
AcDbArc
 50
90.0
 51
180.0
  0
LINE
  5
EFD
330
1F
100
AcDbEntity
  8
0
100
AcDbLine
 10
277.954823590587
 20
276.3353823451878
 30
0.0
 11
456.9548235905871
 21
276.3353823451878
 31
0.0
  0
ARC
  5
EFE
330
1F
100
AcDbEntity
  8
0
100
AcDbCircle
 10
456.9548235905871
 20
271.3353823451878
 30
0.0
 40
5.000000000000002
100
AcDbArc
 50
0.0
 51
90.0
  0
LINE
  5
EFF
330
1F
100
AcDbEntity
  8
0
100
AcDbLine
 10
461.9548235905871
 20
271.3353823451878
 30
0.0
 11
461.9548235905871
 21
220.8353823451878
 31
0.0
  0
ARC
  5
F00
330
1F
100
AcDbEntity
  8
0
100
AcDbCircle
 10
452.9548235905871
 20
220.8353823451878
 30
0.0
 40
9.0
100
AcDbArc
 50
270.0
 51
0.0
  0
ARC
  5
F01
330
1F
100
AcDbEntity
  8
0
100
AcDbCircle
 10
281.954823590587
 20
220.8353823451878
 30
0.0
 40
9.0
100
AcDbArc
 50
180.0
 51
270.0
  0
LINE
  5
F02
330
1F
100
AcDbEntity
  8
0
100
AcDbLine
 10
397.454823590587
 20
211.8353823451878
 30
0.0
 11
452.9548235905871
 21
211.8353823451878
 31
0.0
  0
LINE
  5
F03
330
1F
100
AcDbEntity
  8
0
100
AcDbLine
 10
354.454823590587
 20
213.8353823451878
 30
0.0
 11
361.454823590587
 21
213.8353823451878
 31
0.0
  0
LINE
  5
F04
330
1F
100
AcDbEntity
  8
0
100
AcDbLine
 10
281.954823590587
 20
223.8353823451878
 30
0.0
 11
452.9548235905871
 21
223.8353823451878
 31
0.0
  0
LINE
  5
F05
330
1F
100
AcDbEntity
  8
0
100
AcDbLine
 10
281.954823590587
 20
247.0853823451878
 30
0.0
 11
452.9548235905871
 21
247.0853823451878
 31
0.0
  0
LINE
  5
F06
330
1F
100
AcDbEntity
  8
0
100
AcDbLine
 10
281.954823590587
 20
267.3353823451878
 30
0.0
 11
452.9548235905871
 21
267.3353823451878
 31
0.0
  0
LINE
  5
F07
330
1F
100
AcDbEntity
  8
0
100
AcDbLine
 10
300.954823590587
 20
258.8353823451878
 30
0.0
 11
300.954823590587
 21
235.3353823451878
 31
0.0
  0
LINE
  5
F08
330
1F
100
AcDbEntity
  8
0
100
AcDbLine
 10
319.954823590587
 20
258.8353823451878
 30
0.0
 11
319.954823590587
 21
235.3353823451878
 31
0.0
  0
LINE
  5
F09
330
1F
100
AcDbEntity
  8
0
100
AcDbLine
 10
338.954823590587
 20
258.8353823451878
 30
0.0
 11
338.954823590587
 21
235.3353823451878
 31
0.0
  0
LINE
  5
F0A
330
1F
100
AcDbEntity
  8
0
100
AcDbLine
 10
357.954823590587
 20
258.8353823451878
 30
0.0
 11
357.954823590587
 21
235.3353823451878
 31
0.0
  0
LINE
  5
F0B
330
1F
100
AcDbEntity
  8
0
100
AcDbLine
 10
376.954823590587
 20
258.8353823451878
 30
0.0
 11
376.954823590587
 21
235.3353823451878
 31
0.0
  0
LINE
  5
F0C
330
1F
100
AcDbEntity
  8
0
100
AcDbLine
 10
395.954823590587
 20
258.8353823451878
 30
0.0
 11
395.954823590587
 21
235.3353823451878
 31
0.0
  0
LINE
  5
F0D
330
1F
100
AcDbEntity
  8
0
100
AcDbLine
 10
414.9548235905871
 20
258.8353823451878
 30
0.0
 11
414.9548235905871
 21
235.3353823451878
 31
0.0
  0
LINE
  5
F0E
330
1F
100
AcDbEntity
  8
0
100
AcDbLine
 10
433.9548235905871
 20
258.8353823451878
 30
0.0
 11
433.9548235905871
 21
235.3353823451878
 31
0.0
  0
LINE
  5
F0F
330
1F
100
AcDbEntity
  8
0
100
AcDbLine
 10
452.9548235905871
 20
258.8353823451878
 30
0.0
 11
452.9548235905871
 21
235.3353823451878
 31
0.0
  0
ARC
  5
F10
330
1F
100
AcDbEntity
  8
0
100
AcDbCircle
 10
443.4548235905871
 20
257.8353823451878
 30
0.0
 40
1.0
100
AcDbArc
 50
90.0
 51
180.0
  0
ARC
  5
F11
330
1F
100
AcDbEntity
  8
0
100
AcDbCircle
 10
458.9548235905871
 20
257.8353823451878
 30
0.0
 40
1.0
100
AcDbArc
 50
0.0
 51
90.0
  0
LINE
  5
F12
330
1F
100
AcDbEntity
  8
0
100
AcDbLine
 10
281.954823590587
 20
211.8353823451878
 30
0.0
 11
318.454823590587
 21
211.8353823451878
 31
0.0
  0
ARC
  5
F13
330
1F
100
AcDbEntity
  8
0
100
AcDbCircle
 10
329.454823590587
 20
195.8353823451878
 30
0.0
 40
7.0
100
AcDbArc
 50
180.0
 51
270.0
  0
ARC
  5
F14
330
1F
100
AcDbEntity
  8
0
100
AcDbCircle
 10
329.454823590587
 20
195.8353823451878
 30
0.0
 40
7.0
100
AcDbArc
 50
270.0
 51
0.0
  0
LINE
  5
F15
330
1F
100
AcDbEntity
  8
0
100
AcDbLine
 10
322.454823590587
 20
207.8353823451878
 30
0.0
 11
322.454823590587
 21
195.8353823451878
 31
0.0
  0
LINE
  5
F16
330
1F
100
AcDbEntity
  8
0
100
AcDbLine
 10
329.454823590587
 20
208.8353823451878
 30
0.0
 11
329.454823590587
 21
188.8353823451878
 31
0.0
  0
LINE
  5
F17
330
1F
100
AcDbEntity
  8
0
100
AcDbLine
 10
336.454823590587
 20
207.8353823451878
 30
0.0
 11
336.454823590587
 21
195.8353823451878
 31
0.0
  0
LINE
  5
F18
330
1F
100
AcDbEntity
  8
0
100
AcDbLine
 10
323.454823590587
 20
208.8353823451878
 30
0.0
 11
335.454823590587
 21
208.8353823451878
 31
0.0
  0
ARC
  5
F19
330
1F
100
AcDbEntity
  8
0
100
AcDbCircle
 10
323.454823590587
 20
207.8353823451878
 30
0.0
 40
1.0
100
AcDbArc
 50
90.0
 51
180.0
  0
ARC
  5
F1A
330
1F
100
AcDbEntity
  8
0
100
AcDbCircle
 10
335.454823590587
 20
207.8353823451878
 30
0.0
 40
1.0
100
AcDbArc
 50
0.0
 51
90.0
  0
ARC
  5
F1B
330
1F
100
AcDbEntity
  8
0
100
AcDbCircle
 10
348.454823590587
 20
195.8353823451878
 30
0.0
 40
7.0
100
AcDbArc
 50
180.0
 51
270.0
  0
ARC
  5
F1C
330
1F
100
AcDbEntity
  8
0
100
AcDbCircle
 10
348.454823590587
 20
195.8353823451878
 30
0.0
 40
7.0
100
AcDbArc
 50
270.0
 51
0.0
  0
LINE
  5
F1D
330
1F
100
AcDbEntity
  8
0
100
AcDbLine
 10
341.454823590587
 20
207.8353823451878
 30
0.0
 11
341.454823590587
 21
195.8353823451878
 31
0.0
  0
LINE
  5
F1E
330
1F
100
AcDbEntity
  8
0
100
AcDbLine
 10
348.454823590587
 20
208.8353823451878
 30
0.0
 11
348.454823590587
 21
188.8353823451878
 31
0.0
  0
LINE
  5
F1F
330
1F
100
AcDbEntity
  8
0
100
AcDbLine
 10
355.454823590587
 20
207.8353823451878
 30
0.0
 11
355.454823590587
 21
195.8353823451878
 31
0.0
  0
LINE
  5
F20
330
1F
100
AcDbEntity
  8
0
100
AcDbLine
 10
342.454823590587
 20
208.8353823451878
 30
0.0
 11
354.454823590587
 21
208.8353823451878
 31
0.0
  0
ARC
  5
F21
330
1F
100
AcDbEntity
  8
0
100
AcDbCircle
 10
342.454823590587
 20
207.8353823451878
 30
0.0
 40
1.0
100
AcDbArc
 50
90.0
 51
180.0
  0
ARC
  5
F22
330
1F
100
AcDbEntity
  8
0
100
AcDbCircle
 10
354.454823590587
 20
207.8353823451878
 30
0.0
 40
1.0
100
AcDbArc
 50
0.0
 51
90.0
  0
ARC
  5
F23
330
1F
100
AcDbEntity
  8
0
100
AcDbCircle
 10
367.454823590587
 20
195.8353823451878
 30
0.0
 40
7.0
100
AcDbArc
 50
180.0
 51
270.0
  0
ARC
  5
F24
330
1F
100
AcDbEntity
  8
0
100
AcDbCircle
 10
367.454823590587
 20
195.8353823451878
 30
0.0
 40
7.0
100
AcDbArc
 50
270.0
 51
0.0
  0
LINE
  5
F25
330
1F
100
AcDbEntity
  8
0
100
AcDbLine
 10
360.454823590587
 20
207.8353823451878
 30
0.0
 11
360.454823590587
 21
195.8353823451878
 31
0.0
  0
LINE
  5
F26
330
1F
100
AcDbEntity
  8
0
100
AcDbLine
 10
367.454823590587
 20
208.8353823451878
 30
0.0
 11
367.454823590587
 21
188.8353823451878
 31
0.0
  0
LINE
  5
F27
330
1F
100
AcDbEntity
  8
0
100
AcDbLine
 10
374.454823590587
 20
207.8353823451878
 30
0.0
 11
374.454823590587
 21
195.8353823451878
 31
0.0
  0
LINE
  5
F28
330
1F
100
AcDbEntity
  8
0
100
AcDbLine
 10
361.454823590587
 20
208.8353823451878
 30
0.0
 11
373.454823590587
 21
208.8353823451878
 31
0.0
  0
ARC
  5
F29
330
1F
100
AcDbEntity
  8
0
100
AcDbCircle
 10
361.454823590587
 20
207.8353823451878
 30
0.0
 40
1.0
100
AcDbArc
 50
90.0
 51
180.0
  0
ARC
  5
F2A
330
1F
100
AcDbEntity
  8
0
100
AcDbCircle
 10
373.454823590587
 20
207.8353823451878
 30
0.0
 40
1.0
100
AcDbArc
 50
0.0
 51
90.0
  0
ARC
  5
F2B
330
1F
100
AcDbEntity
  8
0
100
AcDbCircle
 10
386.454823590587
 20
195.8353823451878
 30
0.0
 40
7.0
100
AcDbArc
 50
180.0
 51
270.0
  0
ARC
  5
F2C
330
1F
100
AcDbEntity
  8
0
100
AcDbCircle
 10
386.454823590587
 20
195.8353823451878
 30
0.0
 40
7.0
100
AcDbArc
 50
270.0
 51
0.0
  0
LINE
  5
F2D
330
1F
100
AcDbEntity
  8
0
100
AcDbLine
 10
379.454823590587
 20
207.8353823451878
 30
0.0
 11
379.454823590587
 21
195.8353823451878
 31
0.0
  0
LINE
  5
F2E
330
1F
100
AcDbEntity
  8
0
100
AcDbLine
 10
386.454823590587
 20
208.8353823451878
 30
0.0
 11
386.454823590587
 21
188.8353823451878
 31
0.0
  0
LINE
  5
F2F
330
1F
100
AcDbEntity
  8
0
100
AcDbLine
 10
393.454823590587
 20
207.8353823451878
 30
0.0
 11
393.454823590587
 21
195.8353823451878
 31
0.0
  0
LINE
  5
F30
330
1F
100
AcDbEntity
  8
0
100
AcDbLine
 10
380.454823590587
 20
208.8353823451878
 30
0.0
 11
392.454823590587
 21
208.8353823451878
 31
0.0
  0
ARC
  5
F31
330
1F
100
AcDbEntity
  8
0
100
AcDbCircle
 10
380.454823590587
 20
207.8353823451878
 30
0.0
 40
1.0
100
AcDbArc
 50
90.0
 51
180.0
  0
ARC
  5
F32
330
1F
100
AcDbEntity
  8
0
100
AcDbCircle
 10
392.454823590587
 20
207.8353823451878
 30
0.0
 40
1.0
100
AcDbArc
 50
0.0
 51
90.0
  0
LINE
  5
F33
330
1F
100
AcDbEntity
  8
0
100
AcDbLine
 10
329.454823590587
 20
186.8353823451878
 30
0.0
 11
386.454823590587
 21
186.8353823451878
 31
0.0
  0
ARC
  5
F34
330
1F
100
AcDbEntity
  8
0
100
AcDbCircle
 10
329.454823590587
 20
195.8353823451878
 30
0.0
 40
9.0
100
AcDbArc
 50
180.0
 51
270.0
  0
ARC
  5
F35
330
1F
100
AcDbEntity
  8
0
100
AcDbCircle
 10
386.454823590587
 20
195.8353823451878
 30
0.0
 40
9.0
100
AcDbArc
 50
270.0
 51
0.0
  0
ARC
  5
F36
330
1F
100
AcDbEntity
  8
0
100
AcDbCircle
 10
318.454823590587
 20
209.8353823451878
 30
0.0
 40
2.000000000000001
100
AcDbArc
 50
0.0
 51
90.0
  0
ARC
  5
F37
330
1F
100
AcDbEntity
  8
0
100
AcDbCircle
 10
397.454823590587
 20
209.8353823451878
 30
0.0
 40
2.000000000000001
100
AcDbArc
 50
90.0
 51
180.0
  0
LINE
  5
F38
330
1F
100
AcDbEntity
  8
0
100
AcDbLine
 10
264.954823590587
 20
171.8353823451877
 30
0.0
 11
469.9548235905869
 21
171.8353823451878
 31
0.0
  0
ARC
  5
F39
330
1F
100
AcDbEntity
  8
0
100
AcDbCircle
 10
264.954823590587
 20
178.8353823451877
 30
0.0
 40
6.999999999999996
100
AcDbArc
 50
180.0
 51
270.0
  0
ARC
  5
F3A
330
1F
100
AcDbEntity
  8
0
100
AcDbCircle
 10
469.9548235905869
 20
178.8353823451878
 30
0.0
 40
7.000000000000004
100
AcDbArc
 50
270.0
 51
0.0
  0
LINE
  5
F3B
330
1F
100
AcDbEntity
  8
0
100
AcDbLine
 10
446.474823590587
 20
286.3353823451878
 30
0.0
 11
446.474823590587
 21
304.3353823451878
 31
0.0
  0
LINE
  5
F3C
330
1F
100
AcDbEntity
  8
0
100
AcDbLine
 10
446.474823590587
 20
286.3353823451878
 30
0.0
 11
476.9548235905871
 21
286.3353823451878
 31
0.0
  0
LINE
  5
F3D
330
1F
100
AcDbEntity
  8
0
100
AcDbLine
 10
477.6548235905869
 20
291.3353823451878
 30
0.0
 11
477.6548235905869
 21
299.3353823451878
 31
0.0
  0
LINE
  5
F3E
330
1F
100
AcDbEntity
  8
0
100
AcDbLine
 10
476.9548235905871
 20
291.3353823451878
 30
0.0
 11
477.6548235905869
 21
291.3353823451878
 31
0.0
  0
LINE
  5
F3F
330
1F
100
AcDbEntity
  8
0
100
AcDbLine
 10
476.9548235905871
 20
299.3353823451878
 30
0.0
 11
476.9548235905871
 21
304.3353823451878
 31
0.0
  0
LINE
  5
F40
330
1F
100
AcDbEntity
  8
0
100
AcDbLine
 10
476.9548235905871
 20
286.3353823451878
 30
0.0
 11
476.9548235905871
 21
291.3353823451878
 31
0.0
  0
LINE
  5
F41
330
1F
100
AcDbEntity
  8
0
100
AcDbLine
 10
476.9548235905871
 20
299.3353823451878
 30
0.0
 11
477.6548235905869
 21
299.3353823451878
 31
0.0
  0
LINE
  5
F42
330
1F
100
AcDbEntity
  8
0
100
AcDbLine
 10
320.454823590587
 20
209.8353823451878
 30
0.0
 11
320.454823590587
 21
195.8353823451878
 31
0.0
  0
LINE
  5
F43
330
1F
100
AcDbEntity
  8
0
100
AcDbLine
 10
395.454823590587
 20
209.8353823451878
 30
0.0
 11
395.454823590587
 21
195.8353823451878
 31
0.0
  0
LINE
  5
F44
330
1F
100
AcDbEntity
  8
0
100
AcDbLine
 10
257.954823590587
 20
304.3353823451878
 30
0.0
 11
257.954823590587
 21
178.8353823451877
 31
0.0
  0
LINE
  5
F45
330
1F
100
AcDbEntity
  8
0
100
AcDbLine
 10
476.9548235905871
 20
304.3353823451878
 30
0.0
 11
476.9548235905869
 21
178.8353823451878
 31
0.0
  0
LINE
  5
F46
330
1F
100
AcDbEntity
  8
0
100
AcDbLine
 10
264.954823590587
 20
311.3353823451878
 30
0.0
 11
469.9548235905871
 21
311.3353823451878
 31
0.0
  0
ARC
  5
F47
330
1F
100
AcDbEntity
  8
0
100
AcDbCircle
 10
469.9548235905871
 20
304.3353823451878
 30
0.0
 40
6.999999999999999
100
AcDbArc
 50
0.0
 51
90.0
  0
ARC
  5
F48
330
1F
100
AcDbEntity
  8
0
100
AcDbCircle
 10
264.954823590587
 20
304.3353823451878
 30
0.0
 40
6.999999999999999
100
AcDbArc
 50
90.0
 51
180.0
  0
LINE
  5
F49
330
1F
100
AcDbEntity
  8
0
100
AcDbLine
 10
446.474823590587
 20
304.3353823451878
 30
0.0
 11
476.9548235905871
 21
304.3353823451878
 31
0.0
  0
LINE
  5
F4A
330
1F
100
AcDbEntity
  8
0
100
AcDbLine
 10
446.474823590587
 20
295.3353823451878
 30
0.0
 11
477.6548235905869
 21
295.3353823451878
 31
0.0
  0
LINE
  5
F4B
330
1F
100
AcDbEntity
  8
0
100
AcDbLine
 10
461.7148235905869
 20
304.3353823451878
 30
0.0
 11
461.7148235905869
 21
286.3353823451878
 31
0.0
  0
CIRCLE
  5
F4E
330
1F
100
AcDbEntity
  8
0
100
AcDbCircle
 10
264.954823590587
 20
271.3353823451878
 30
0.0
 40
3.0
  0
CIRCLE
  5
F51
330
1F
100
AcDbEntity
  8
0
100
AcDbCircle
 10
264.954823590587
 20
211.8353823451877
 30
0.0
 40
3.0
  0
CIRCLE
  5
F52
330
1F
100
AcDbEntity
  8
0
100
AcDbCircle
 10
317.954823590587
 20
178.8353823451877
 30
0.0
 40
3.0
  0
CIRCLE
  5
F53
330
1F
100
AcDbEntity
  8
0
100
AcDbCircle
 10
416.9548235905869
 20
178.8353823451878
 30
0.0
 40
3.0
  0
CIRCLE
  5
F54
330
1F
100
AcDbEntity
  8
0
100
AcDbCircle
 10
469.9548235905869
 20
211.8353823451878
 30
0.0
 40
3.0
  0
CIRCLE
  5
F55
330
1F
100
AcDbEntity
  8
0
100
AcDbCircle
 10
469.9548235905871
 20
271.3353823451878
 30
0.0
 40
3.0
  0
CIRCLE
  5
F56
330
1F
100
AcDbEntity
  8
0
100
AcDbCircle
 10
416.9548235905871
 20
304.3353823451878
 30
0.0
 40
3.0
  0
CIRCLE
  5
F57
330
1F
100
AcDbEntity
  8
0
100
AcDbCircle
 10
317.954823590587
 20
304.3353823451878
 30
0.0
 40
3.0
  0
CIRCLE
  5
F5C
330
1F
100
AcDbEntity
  8
0
100
AcDbCircle
 10
307.954823590587
 20
304.3353823451878
 30
0.0
 40
3.0
  0
CIRCLE
  5
F5D
330
1F
100
AcDbEntity
  8
0
100
AcDbCircle
 10
264.954823590587
 20
281.3353823451878
 30
0.0
 40
3.0
  0
CIRCLE
  5
F5E
330
1F
100
AcDbEntity
  8
0
100
AcDbCircle
 10
264.954823590587
 20
201.8353823451877
 30
0.0
 40
3.0
  0
CIRCLE
  5
F5F
330
1F
100
AcDbEntity
  8
0
100
AcDbCircle
 10
469.9548235905871
 20
281.3353823451878
 30
0.0
 40
3.0
  0
CIRCLE
  5
F60
330
1F
100
AcDbEntity
  8
0
100
AcDbCircle
 10
469.9548235905869
 20
201.8353823451878
 30
0.0
 40
3.0
  0
CIRCLE
  5
F61
330
1F
100
AcDbEntity
  8
0
100
AcDbCircle
 10
426.9548235905869
 20
178.8353823451878
 30
0.0
 40
3.0
  0
CIRCLE
  5
F62
330
1F
100
AcDbEntity
  8
0
100
AcDbCircle
 10
307.954823590587
 20
178.8353823451877
 30
0.0
 40
3.0
  0
CIRCLE
  5
F63
330
1F
100
AcDbEntity
  8
0
100
AcDbCircle
 10
426.9548235905871
 20
304.3353823451878
 30
0.0
 40
3.0
  0
LINE
  5
F74
330
1F
100
AcDbEntity
  8
0
100
AcDbLine
 10
288.434823590587
 20
286.3353823451879
 30
0.0
 11
288.434823590587
 21
304.3353823451879
 31
0.0
  0
LINE
  5
F75
330
1F
100
AcDbEntity
  8
0
100
AcDbLine
 10
288.434823590587
 20
286.3353823451879
 30
0.0
 11
257.954823590587
 21
286.3353823451879
 31
0.0
  0
LINE
  5
F76
330
1F
100
AcDbEntity
  8
0
100
AcDbLine
 10
257.2548235905871
 20
291.3353823451879
 30
0.0
 11
257.2548235905871
 21
299.3353823451879
 31
0.0
  0
LINE
  5
F77
330
1F
100
AcDbEntity
  8
0
100
AcDbLine
 10
257.954823590587
 20
291.3353823451879
 30
0.0
 11
257.2548235905871
 21
291.3353823451879
 31
0.0
  0
LINE
  5
F78
330
1F
100
AcDbEntity
  8
0
100
AcDbLine
 10
257.954823590587
 20
299.3353823451879
 30
0.0
 11
257.954823590587
 21
304.3353823451879
 31
0.0
  0
LINE
  5
F79
330
1F
100
AcDbEntity
  8
0
100
AcDbLine
 10
257.954823590587
 20
286.3353823451879
 30
0.0
 11
257.954823590587
 21
291.3353823451879
 31
0.0
  0
LINE
  5
F7A
330
1F
100
AcDbEntity
  8
0
100
AcDbLine
 10
257.954823590587
 20
299.3353823451879
 30
0.0
 11
257.2548235905871
 21
299.3353823451879
 31
0.0
  0
LINE
  5
F7B
330
1F
100
AcDbEntity
  8
0
100
AcDbLine
 10
288.434823590587
 20
304.3353823451879
 30
0.0
 11
257.954823590587
 21
304.3353823451879
 31
0.0
  0
LINE
  5
F7C
330
1F
100
AcDbEntity
  8
0
100
AcDbLine
 10
288.434823590587
 20
295.3353823451879
 30
0.0
 11
257.2548235905871
 21
295.3353823451879
 31
0.0
  0
LINE
  5
F7D
330
1F
100
AcDbEntity
  8
0
100
AcDbLine
 10
273.194823590587
 20
304.3353823451879
 30
0.0
 11
273.194823590587
 21
286.3353823451879
 31
0.0
  0
CIRCLE
  5
F7E
330
1F
100
AcDbEntity
  8
0
100
AcDbCircle
 10
319.954823590587
 20
291.5887966485826
 30
0.0
 40
3.5
  0
CIRCLE
  5
F7F
330
1F
100
AcDbEntity
  8
0
100
AcDbCircle
 10
300.954823590587
 20
291.5887966485826
 30
0.0
 40
3.0
  0
CIRCLE
  5
F85
330
1F
100
AcDbEntity
  8
0
100
AcDbCircle
 10
338.954823590587
 20
291.5887966485826
 30
0.0
 40
3.5
  0
CIRCLE
  5
F91
330
1F
100
AcDbEntity
  8
0
100
AcDbCircle
 10
433.9548235905871
 20
291.5887966485826
 30
0.0
 40
3.0
  0
CIRCLE
  5
F92
330
1F
100
AcDbEntity
  8
0
100
AcDbCircle
 10
414.9548235905871
 20
291.5887966485826
 30
0.0
 40
3.5
  0
CIRCLE
  5
F93
330
1F
100
AcDbEntity
  8
0
100
AcDbCircle
 10
395.954823590587
 20
291.5887966485826
 30
0.0
 40
3.5
  0
LINE
  5
F94
330
1F
100
AcDbEntity
  8
0
100
AcDbLine
 10
264.954823590587
 20
171.8353823451877
 30
0.0
 11
238.3670766982124
 21
171.8353823451877
 31
0.0
  0
LINE
  5
F95
330
1F
100
AcDbEntity
  8
0
100
AcDbLine
 10
257.954823590587
 20
178.8353823451877
 30
0.0
 11
257.954823590587
 21
158.8478298721264
 31
0.0
  0
TEXT
  5
F9E
330
1F
100
AcDbEntity
  8
0
100
AcDbText
 10
331.8096930116437
 20
299.6657667476994
 30
0.0
 40
6.0
  1
STENOKEY
  7
Crio
100
AcDbText
  0
LINE
  5
F9F
330
1F
100
AcDbEntity
  8
0
100
AcDbLine
 10
257.954823590587
 20
283.7353823451878
 30
0.0
 11
476.954823590587
 21
283.7353823451878
 31
0.0
  0
LINE
  5
FA0
330
1F
100
AcDbEntity
  8
0
100
AcDbLine
 10
257.954823590587
 20
283.7353823451878
 30
0.0
 11
476.954823590587
 21
283.7353823451878
 31
0.0
  0
LINE
  5
FE8
330
1F
100
AcDbEntity
  8
0
100
AcDbLine
 10
7.0
 20
0.0
 30
0.0
 11
-40.0408928704905
 21
0.0
 31
0.0
  0
LINE
  5
FE9
330
1F
100
AcDbEntity
  8
0
100
AcDbLine
 10
0.0000000000000044
 20
6.999999999999994
 30
0.0
 11
0.0000000000000044
 21
-20.29952443470029
 31
0.0
  0
LINE
  5
FEB
330
1F
100
AcDbEntity
  8
PCBOutline
100
AcDbLine
 10
7.0
 20
139.5000000000001
 30
0.0
 11
212.0000000000001
 21
139.5000000000001
 31
0.0
  0
ARC
  5
FEC
330
1F
100
AcDbEntity
  8
PCBOutline
100
AcDbCircle
 10
7.0
 20
132.5000000000001
 30
0.0
 40
6.999999999999999
100
AcDbArc
 50
90.0
 51
180.0
  0
LINE
  5
FED
330
1F
100
AcDbEntity
  8
PCBOutline
100
AcDbLine
 10
0.0
 20
132.5000000000001
 30
0.0
 11
0.0
 21
7.0
 31
0.0
  0
ARC
  5
FEE
330
1F
100
AcDbEntity
  8
PCBOutline
100
AcDbCircle
 10
7.0
 20
7.0
 30
0.0
 40
6.999999999999996
100
AcDbArc
 50
180.0
 51
270.0
  0
LINE
  5
FEF
330
1F
100
AcDbEntity
  8
PCBOutline
100
AcDbLine
 10
7.0
 20
0.0
 30
0.0
 11
211.9999999999999
 21
0.0000000000001137
 31
0.0
  0
ARC
  5
FF0
330
1F
100
AcDbEntity
  8
PCBOutline
100
AcDbCircle
 10
211.9999999999999
 20
7.000000000000114
 30
0.0
 40
7.000000000000004
100
AcDbArc
 50
270.0
 51
0.0
  0
LINE
  5
FF1
330
1F
100
AcDbEntity
  8
PCBOutline
100
AcDbLine
 10
219.0000000000001
 20
132.5000000000001
 30
0.0
 11
218.9999999999999
 21
7.000000000000114
 31
0.0
  0
ARC
  5
FF2
330
1F
100
AcDbEntity
  8
PCBOutline
100
AcDbCircle
 10
212.0000000000001
 20
132.5000000000001
 30
0.0
 40
6.999999999999999
100
AcDbArc
 50
0.0
 51
90.0
  0
LINE
  5
1016
330
1F
100
AcDbEntity
  8
LeftOpening
100
AcDbLine
 10
15.0
 20
99.50000000000009
 30
0.0
 11
15.0
 21
49.00000000000011
 31
0.0
  0
ARC
  5
1017
330
1F
100
AcDbEntity
  8
LeftOpening
100
AcDbCircle
 10
20.0
 20
99.50000000000009
 30
0.0
 40
5.000000000000002
100
AcDbArc
 50
90.0
 51
180.0
  0
LINE
  5
1018
330
1F
100
AcDbEntity
  8
LeftOpening
100
AcDbLine
 10
20.0
 20
104.5000000000001
 30
0.0
 11
199.0000000000001
 21
104.5000000000001
 31
0.0
  0
ARC
  5
1019
330
1F
100
AcDbEntity
  8
LeftOpening
100
AcDbCircle
 10
24.0
 20
49.00000000000011
 30
0.0
 40
9.0
100
AcDbArc
 50
180.0
 51
270.0
  0
ARC
  5
101A
330
1F
100
AcDbEntity
  8
LeftOpening
100
AcDbCircle
 10
60.5
 20
38.00000000000011
 30
0.0
 40
2.000000000000001
100
AcDbArc
 50
0.0
 51
90.0
  0
LINE
  5
101C
330
1F
100
AcDbEntity
  8
LeftOpening
100
AcDbLine
 10
62.5
 20
38.00000000000011
 30
0.0
 11
62.5
 21
24.00000000000011
 31
0.0
  0
ARC
  5
101D
330
1F
100
AcDbEntity
  8
LeftOpening
100
AcDbCircle
 10
71.5
 20
24.00000000000011
 30
0.0
 40
9.0
100
AcDbArc
 50
180.0
 51
270.0
  0
LINE
  5
101E
330
1F
100
AcDbEntity
  8
LeftOpening
100
AcDbLine
 10
71.5
 20
15.00000000000011
 30
0.0
 11
128.5
 21
15.00000000000011
 31
0.0
  0
ARC
  5
101F
330
1F
100
AcDbEntity
  8
LeftOpening
100
AcDbCircle
 10
128.5
 20
24.00000000000011
 30
0.0
 40
9.0
100
AcDbArc
 50
270.0
 51
0.0
  0
LINE
  5
1020
330
1F
100
AcDbEntity
  8
LeftOpening
100
AcDbLine
 10
137.5
 20
38.00000000000011
 30
0.0
 11
137.5
 21
24.00000000000011
 31
0.0
  0
ARC
  5
1021
330
1F
100
AcDbEntity
  8
LeftOpening
100
AcDbCircle
 10
139.5
 20
38.00000000000011
 30
0.0
 40
2.000000000000001
100
AcDbArc
 50
90.0
 51
180.0
  0
LINE
  5
1022
330
1F
100
AcDbEntity
  8
LeftOpening
100
AcDbLine
 10
139.5
 20
40.00000000000011
 30
0.0
 11
195.0000000000001
 21
40.00000000000011
 31
0.0
  0
ARC
  5
1023
330
1F
100
AcDbEntity
  8
LeftOpening
100
AcDbCircle
 10
195.0000000000001
 20
49.00000000000011
 30
0.0
 40
9.0
100
AcDbArc
 50
270.0
 51
0.0
  0
LINE
  5
1024
330
1F
100
AcDbEntity
  8
LeftOpening
100
AcDbLine
 10
204.0000000000001
 20
99.50000000000009
 30
0.0
 11
204.0000000000001
 21
49.00000000000011
 31
0.0
  0
ARC
  5
1025
330
1F
100
AcDbEntity
  8
LeftOpening
100
AcDbCircle
 10
199.0000000000001
 20
99.50000000000009
 30
0.0
 40
5.000000000000002
100
AcDbArc
 50
0.0
 51
90.0
  0
LINE
  5
1026
330
1F
100
AcDbEntity
  8
LeftOpening
100
AcDbLine
 10
24.0
 20
40.00000000000011
 30
0.0
 11
60.5
 21
40.00000000000011
 31
0.0
  0
TEXT
  5
107F
330
1F
100
AcDbEntity
  8
0
100
AcDbText
 10
20.35301796399904
 20
287.8767616700641
 30
0.0
 40
5.0
  1
Layers Exported for OpenSCAD:
100
AcDbText
  0
TEXT
  5
1080
330
1F
100
AcDbEntity
  8
0
100
AcDbText
 10
20.35301796399904
 20
272.8767616700641
 30
0.0
 40
5.0
  1
KeymatrixV1 -- original key support matrix outline
100
AcDbText
  0
TEXT
  5
1081
330
1F
100
AcDbEntity
  8
0
100
AcDbText
 10
20.35301796399904
 20
227.8767616700641
 30
0.0
 40
5.0
  1
LeftOpening -- key opening in top with left interface
100
AcDbText
  0
TEXT
  5
1082
330
1F
100
AcDbEntity
  8
0
100
AcDbText
 10
20.35301796399904
 20
212.8767616700641
 30
0.0
 40
5.0
  1
Outline -- outer perimeter for both top and base
100
AcDbText
  0
TEXT
  5
10A3
330
1F
100
AcDbEntity
  8
0
100
AcDbText
 10
20.35301796399904
 20
205.3767616700641
 30
0.0
 40
5.0
  1
PCBOutline -- outer perimeter of PCB
100
AcDbText
  0
TEXT
  5
10A4
330
1F
100
AcDbEntity
  8
0
100
AcDbText
 10
20.35301796399904
 20
235.3767616700641
 30
0.0
 40
5.0
  1
Keymatrix -- internal key support matrix outline
100
AcDbText
  0
LINE
  5
11F4
330
1F
100
AcDbEntity
  8
PCB
100
AcDbLine
 10
7.0
 20
139.5
 30
0.0
 11
212.0
 21
139.5
 31
0.0
  0
LINE
  5
11F5
330
1F
100
AcDbEntity
  8
PCB
100
AcDbLine
 10
7.0
 20
0.0
 30
0.0
 11
212.0
 21
0.0
 31
0.0
  0
ARC
  5
11F6
330
1F
100
AcDbEntity
  8
PCB
100
AcDbCircle
 10
7.0
 20
132.5
 30
0.0
 40
7.0
100
AcDbArc
 50
90.0
 51
180.0
  0
ARC
  5
11F7
330
1F
100
AcDbEntity
  8
PCB
100
AcDbCircle
 10
212.0
 20
132.5
 30
0.0
 40
7.0
100
AcDbArc
 50
0.0
 51
90.0
  0
LINE
  5
11F8
330
1F
100
AcDbEntity
  8
PCB
100
AcDbLine
 10
219.0
 20
132.5
 30
0.0
 11
219.0
 21
7.0
 31
0.0
  0
LINE
  5
11F9
330
1F
100
AcDbEntity
  8
PCB
100
AcDbLine
 10
0.0
 20
132.5
 30
0.0
 11
0.0
 21
7.0
 31
0.0
  0
ARC
  5
11FA
330
1F
100
AcDbEntity
  8
PCB
100
AcDbCircle
 10
212.0
 20
7.0
 30
0.0
 40
7.0
100
AcDbArc
 50
270.0
 51
0.0
  0
ARC
  5
11FB
330
1F
100
AcDbEntity
  8
PCB
100
AcDbCircle
 10
7.0
 20
7.0
 30
0.0
 40
7.0
100
AcDbArc
 50
180.0
 51
270.0
  0
CIRCLE
  5
11FC
330
1F
100
AcDbEntity
  8
PCB
100
AcDbCircle
 10
23.0
 20
104.0
 30
0.0
 40
0.4
  0
CIRCLE
  5
11FD
330
1F
100
AcDbEntity
  8
PCB
100
AcDbCircle
 10
23.0
 20
83.5
 30
0.0
 40
0.4
  0
CIRCLE
  5
11FE
330
1F
100
AcDbEntity
  8
PCB
100
AcDbCircle
 10
23.0
 20
60.5
 30
0.0
 40
0.4
  0
CIRCLE
  5
11FF
330
1F
100
AcDbEntity
  8
PCB
100
AcDbCircle
 10
31.0
 20
104.0
 30
0.0
 40
0.4
  0
CIRCLE
  5
1200
330
1F
100
AcDbEntity
  8
PCB
100
AcDbCircle
 10
31.0
 20
83.5
 30
0.0
 40
0.4
  0
CIRCLE
  5
1201
330
1F
100
AcDbEntity
  8
PCB
100
AcDbCircle
 10
31.0
 20
60.5
 30
0.0
 40
0.4
  0
CIRCLE
  5
1202
330
1F
100
AcDbEntity
  8
PCB
100
AcDbCircle
 10
39.0
 20
126.75
 30
0.0
 40
0.4
  0
CIRCLE
  5
1203
330
1F
100
AcDbEntity
  8
PCB
100
AcDbCircle
 10
42.0
 20
104.0
 30
0.0
 40
0.4
  0
CIRCLE
  5
1204
330
1F
100
AcDbEntity
  8
PCB
100
AcDbCircle
 10
42.0
 20
83.5
 30
0.0
 40
0.4
  0
CIRCLE
  5
1205
330
1F
100
AcDbEntity
  8
PCB
100
AcDbCircle
 10
42.0
 20
60.5
 30
0.0
 40
0.4
  0
CIRCLE
  5
1206
330
1F
100
AcDbEntity
  8
PCB
100
AcDbCircle
 10
47.0
 20
126.75
 30
0.0
 40
0.4
  0
CIRCLE
  5
1207
330
1F
100
AcDbEntity
  8
PCB
100
AcDbCircle
 10
50.0
 20
104.0
 30
0.0
 40
0.4
  0
CIRCLE
  5
1208
330
1F
100
AcDbEntity
  8
PCB
100
AcDbCircle
 10
50.0
 20
83.5
 30
0.0
 40
0.4
  0
CIRCLE
  5
1209
330
1F
100
AcDbEntity
  8
PCB
100
AcDbCircle
 10
50.0
 20
60.5
 30
0.0
 40
0.4
  0
CIRCLE
  5
120A
330
1F
100
AcDbEntity
  8
PCB
100
AcDbCircle
 10
61.0
 20
104.0
 30
0.0
 40
0.4
  0
CIRCLE
  5
120B
330
1F
100
AcDbEntity
  8
PCB
100
AcDbCircle
 10
61.0
 20
83.5
 30
0.0
 40
0.4
  0
CIRCLE
  5
120C
330
1F
100
AcDbEntity
  8
PCB
100
AcDbCircle
 10
61.0
 20
60.5
 30
0.0
 40
0.4
  0
CIRCLE
  5
120D
330
1F
100
AcDbEntity
  8
PCB
100
AcDbCircle
 10
69.0
 20
104.0
 30
0.0
 40
0.4
  0
CIRCLE
  5
120E
330
1F
100
AcDbEntity
  8
PCB
100
AcDbCircle
 10
69.0
 20
83.5
 30
0.0
 40
0.4
  0
CIRCLE
  5
120F
330
1F
100
AcDbEntity
  8
PCB
100
AcDbCircle
 10
69.0
 20
60.5
 30
0.0
 40
0.4
  0
CIRCLE
  5
1210
330
1F
100
AcDbEntity
  8
PCB
100
AcDbCircle
 10
70.5
 20
35.5
 30
0.0
 40
0.4
  0
CIRCLE
  5
1211
330
1F
100
AcDbEntity
  8
PCB
100
AcDbCircle
 10
78.5
 20
35.5
 30
0.0
 40
0.4
  0
CIRCLE
  5
1212
330
1F
100
AcDbEntity
  8
PCB
100
AcDbCircle
 10
80.0
 20
104.0
 30
0.0
 40
0.4
  0
CIRCLE
  5
1213
330
1F
100
AcDbEntity
  8
PCB
100
AcDbCircle
 10
80.0
 20
83.5
 30
0.0
 40
0.4
  0
CIRCLE
  5
1214
330
1F
100
AcDbEntity
  8
PCB
100
AcDbCircle
 10
80.0
 20
60.5
 30
0.0
 40
0.4
  0
CIRCLE
  5
1215
330
1F
100
AcDbEntity
  8
PCB
100
AcDbCircle
 10
88.0
 20
104.0
 30
0.0
 40
0.4
  0
CIRCLE
  5
1216
330
1F
100
AcDbEntity
  8
PCB
100
AcDbCircle
 10
88.0
 20
83.5
 30
0.0
 40
0.4
  0
CIRCLE
  5
1217
330
1F
100
AcDbEntity
  8
PCB
100
AcDbCircle
 10
88.0
 20
60.5
 30
0.0
 40
0.4
  0
CIRCLE
  5
1218
330
1F
100
AcDbEntity
  8
PCB
100
AcDbCircle
 10
89.5
 20
35.5
 30
0.0
 40
0.4
  0
CIRCLE
  5
1219
330
1F
100
AcDbEntity
  8
PCB
100
AcDbCircle
 10
91.0
 20
123.0
 30
0.0
 40
0.4
  0
CIRCLE
  5
121A
330
1F
100
AcDbEntity
  8
PCB
100
AcDbCircle
 10
91.0
 20
116.0
 30
0.0
 40
0.4
  0
CIRCLE
  5
121B
330
1F
100
AcDbEntity
  8
PCB
100
AcDbCircle
 10
97.5
 20
35.5
 30
0.0
 40
0.4
  0
CIRCLE
  5
121C
330
1F
100
AcDbEntity
  8
PCB
100
AcDbCircle
 10
99.0
 20
123.0
 30
0.0
 40
0.4
  0
CIRCLE
  5
121D
330
1F
100
AcDbEntity
  8
PCB
100
AcDbCircle
 10
99.0
 20
116.0
 30
0.0
 40
0.4
  0
CIRCLE
  5
121E
330
1F
100
AcDbEntity
  8
PCB
100
AcDbCircle
 10
99.0
 20
104.0
 30
0.0
 40
0.4
  0
CIRCLE
  5
121F
330
1F
100
AcDbEntity
  8
PCB
100
AcDbCircle
 10
99.0
 20
83.5
 30
0.0
 40
0.4
  0
CIRCLE
  5
1220
330
1F
100
AcDbEntity
  8
PCB
100
AcDbCircle
 10
99.0
 20
60.5
 30
0.0
 40
0.4
  0
CIRCLE
  5
1221
330
1F
100
AcDbEntity
  8
PCB
100
AcDbCircle
 10
105.0
 20
123.0
 30
0.0
 40
0.4
  0
CIRCLE
  5
1222
330
1F
100
AcDbEntity
  8
PCB
100
AcDbCircle
 10
105.0
 20
116.0
 30
0.0
 40
0.4
  0
CIRCLE
  5
1223
330
1F
100
AcDbEntity
  8
PCB
100
AcDbCircle
 10
107.0
 20
104.0
 30
0.0
 40
0.4
  0
CIRCLE
  5
1224
330
1F
100
AcDbEntity
  8
PCB
100
AcDbCircle
 10
107.0
 20
83.5
 30
0.0
 40
0.4
  0
CIRCLE
  5
1225
330
1F
100
AcDbEntity
  8
PCB
100
AcDbCircle
 10
107.0
 20
60.5
 30
0.0
 40
0.4
  0
CIRCLE
  5
1226
330
1F
100
AcDbEntity
  8
PCB
100
AcDbCircle
 10
108.5
 20
35.5
 30
0.0
 40
0.4
  0
CIRCLE
  5
1227
330
1F
100
AcDbEntity
  8
PCB
100
AcDbCircle
 10
113.0
 20
123.0
 30
0.0
 40
0.4
  0
CIRCLE
  5
1228
330
1F
100
AcDbEntity
  8
PCB
100
AcDbCircle
 10
113.0
 20
116.0
 30
0.0
 40
0.4
  0
CIRCLE
  5
1229
330
1F
100
AcDbEntity
  8
PCB
100
AcDbCircle
 10
116.5
 20
35.5
 30
0.0
 40
0.4
  0
CIRCLE
  5
122A
330
1F
100
AcDbEntity
  8
PCB
100
AcDbCircle
 10
118.0
 20
104.0
 30
0.0
 40
0.4
  0
CIRCLE
  5
122B
330
1F
100
AcDbEntity
  8
PCB
100
AcDbCircle
 10
118.0
 20
83.5
 30
0.0
 40
0.4
  0
CIRCLE
  5
122C
330
1F
100
AcDbEntity
  8
PCB
100
AcDbCircle
 10
118.0
 20
60.5
 30
0.0
 40
0.4
  0
CIRCLE
  5
122D
330
1F
100
AcDbEntity
  8
PCB
100
AcDbCircle
 10
119.0
 20
123.0
 30
0.0
 40
0.4
  0
CIRCLE
  5
122E
330
1F
100
AcDbEntity
  8
PCB
100
AcDbCircle
 10
119.0
 20
116.0
 30
0.0
 40
0.4
  0
CIRCLE
  5
122F
330
1F
100
AcDbEntity
  8
PCB
100
AcDbCircle
 10
126.0
 20
104.0
 30
0.0
 40
0.4
  0
CIRCLE
  5
1230
330
1F
100
AcDbEntity
  8
PCB
100
AcDbCircle
 10
126.0
 20
83.5
 30
0.0
 40
0.4
  0
CIRCLE
  5
1231
330
1F
100
AcDbEntity
  8
PCB
100
AcDbCircle
 10
126.0
 20
60.5
 30
0.0
 40
0.4
  0
CIRCLE
  5
1232
330
1F
100
AcDbEntity
  8
PCB
100
AcDbCircle
 10
127.0
 20
123.0
 30
0.0
 40
0.4
  0
CIRCLE
  5
1233
330
1F
100
AcDbEntity
  8
PCB
100
AcDbCircle
 10
127.0
 20
116.0
 30
0.0
 40
0.4
  0
CIRCLE
  5
1234
330
1F
100
AcDbEntity
  8
PCB
100
AcDbCircle
 10
127.5
 20
35.5
 30
0.0
 40
0.4
  0
CIRCLE
  5
1235
330
1F
100
AcDbEntity
  8
PCB
100
AcDbCircle
 10
135.5
 20
35.5
 30
0.0
 40
0.4
  0
CIRCLE
  5
1236
330
1F
100
AcDbEntity
  8
PCB
100
AcDbCircle
 10
137.0
 20
104.0
 30
0.0
 40
0.4
  0
CIRCLE
  5
1237
330
1F
100
AcDbEntity
  8
PCB
100
AcDbCircle
 10
137.0
 20
83.5
 30
0.0
 40
0.4
  0
CIRCLE
  5
1238
330
1F
100
AcDbEntity
  8
PCB
100
AcDbCircle
 10
137.0
 20
60.5
 30
0.0
 40
0.4
  0
CIRCLE
  5
1239
330
1F
100
AcDbEntity
  8
PCB
100
AcDbCircle
 10
145.0
 20
104.0
 30
0.0
 40
0.4
  0
CIRCLE
  5
123A
330
1F
100
AcDbEntity
  8
PCB
100
AcDbCircle
 10
145.0
 20
83.5
 30
0.0
 40
0.4
  0
CIRCLE
  5
123B
330
1F
100
AcDbEntity
  8
PCB
100
AcDbCircle
 10
145.0
 20
60.5
 30
0.0
 40
0.4
  0
CIRCLE
  5
123C
330
1F
100
AcDbEntity
  8
PCB
100
AcDbCircle
 10
156.0
 20
104.0
 30
0.0
 40
0.4
  0
CIRCLE
  5
123D
330
1F
100
AcDbEntity
  8
PCB
100
AcDbCircle
 10
156.0
 20
83.5
 30
0.0
 40
0.4
  0
CIRCLE
  5
123E
330
1F
100
AcDbEntity
  8
PCB
100
AcDbCircle
 10
156.0
 20
60.5
 30
0.0
 40
0.4
  0
CIRCLE
  5
123F
330
1F
100
AcDbEntity
  8
PCB
100
AcDbCircle
 10
164.0
 20
104.0
 30
0.0
 40
0.4
  0
CIRCLE
  5
1240
330
1F
100
AcDbEntity
  8
PCB
100
AcDbCircle
 10
164.0
 20
83.5
 30
0.0
 40
0.4
  0
CIRCLE
  5
1241
330
1F
100
AcDbEntity
  8
PCB
100
AcDbCircle
 10
164.0
 20
60.5
 30
0.0
 40
0.4
  0
CIRCLE
  5
1242
330
1F
100
AcDbEntity
  8
PCB
100
AcDbCircle
 10
172.0
 20
126.5
 30
0.0
 40
0.4
  0
CIRCLE
  5
1243
330
1F
100
AcDbEntity
  8
PCB
100
AcDbCircle
 10
175.0
 20
104.0
 30
0.0
 40
0.4
  0
CIRCLE
  5
1244
330
1F
100
AcDbEntity
  8
PCB
100
AcDbCircle
 10
175.0
 20
83.5
 30
0.0
 40
0.4
  0
CIRCLE
  5
1245
330
1F
100
AcDbEntity
  8
PCB
100
AcDbCircle
 10
175.0
 20
60.5
 30
0.0
 40
0.4
  0
CIRCLE
  5
1246
330
1F
100
AcDbEntity
  8
PCB
100
AcDbCircle
 10
180.0
 20
126.5
 30
0.0
 40
0.4
  0
CIRCLE
  5
1247
330
1F
100
AcDbEntity
  8
PCB
100
AcDbCircle
 10
183.0
 20
104.0
 30
0.0
 40
0.4
  0
CIRCLE
  5
1248
330
1F
100
AcDbEntity
  8
PCB
100
AcDbCircle
 10
183.0
 20
83.5
 30
0.0
 40
0.4
  0
CIRCLE
  5
1249
330
1F
100
AcDbEntity
  8
PCB
100
AcDbCircle
 10
183.0
 20
60.5
 30
0.0
 40
0.4
  0
CIRCLE
  5
124A
330
1F
100
AcDbEntity
  8
PCB
100
AcDbCircle
 10
194.0
 20
104.0
 30
0.0
 40
0.4
  0
CIRCLE
  5
124B
330
1F
100
AcDbEntity
  8
PCB
100
AcDbCircle
 10
194.0
 20
83.5
 30
0.0
 40
0.4
  0
CIRCLE
  5
124C
330
1F
100
AcDbEntity
  8
PCB
100
AcDbCircle
 10
194.0
 20
60.5
 30
0.0
 40
0.4
  0
CIRCLE
  5
124D
330
1F
100
AcDbEntity
  8
PCB
100
AcDbCircle
 10
202.0
 20
104.0
 30
0.0
 40
0.4
  0
CIRCLE
  5
124E
330
1F
100
AcDbEntity
  8
PCB
100
AcDbCircle
 10
202.0
 20
83.5
 30
0.0
 40
0.4
  0
CIRCLE
  5
124F
330
1F
100
AcDbEntity
  8
PCB
100
AcDbCircle
 10
202.0
 20
60.5
 30
0.0
 40
0.4
  0
CIRCLE
  5
1250
330
1F
100
AcDbEntity
  8
PCB
100
AcDbCircle
 10
7.0
 20
109.5
 30
0.0
 40
3.0
  0
CIRCLE
  5
1251
330
1F
100
AcDbEntity
  8
PCB
100
AcDbCircle
 10
7.0
 20
99.5
 30
0.0
 40
3.0
  0
CIRCLE
  5
1252
330
1F
100
AcDbEntity
  8
PCB
100
AcDbCircle
 10
7.0
 20
40.0
 30
0.0
 40
3.0
  0
CIRCLE
  5
1253
330
1F
100
AcDbEntity
  8
PCB
100
AcDbCircle
 10
7.0
 20
30.0
 30
0.0
 40
3.0
  0
CIRCLE
  5
1254
330
1F
100
AcDbEntity
  8
PCB
100
AcDbCircle
 10
50.0
 20
132.5
 30
0.0
 40
3.0
  0
CIRCLE
  5
1255
330
1F
100
AcDbEntity
  8
PCB
100
AcDbCircle
 10
50.0
 20
7.0
 30
0.0
 40
3.0
  0
CIRCLE
  5
1256
330
1F
100
AcDbEntity
  8
PCB
100
AcDbCircle
 10
60.0
 20
132.5
 30
0.0
 40
3.0
  0
CIRCLE
  5
1257
330
1F
100
AcDbEntity
  8
PCB
100
AcDbCircle
 10
60.0
 20
7.0
 30
0.0
 40
3.0
  0
CIRCLE
  5
1258
330
1F
100
AcDbEntity
  8
PCB
100
AcDbCircle
 10
159.0
 20
132.5
 30
0.0
 40
3.0
  0
CIRCLE
  5
1259
330
1F
100
AcDbEntity
  8
PCB
100
AcDbCircle
 10
159.0
 20
7.0
 30
0.0
 40
3.0
  0
CIRCLE
  5
125A
330
1F
100
AcDbEntity
  8
PCB
100
AcDbCircle
 10
169.0
 20
132.5
 30
0.0
 40
3.0
  0
CIRCLE
  5
125B
330
1F
100
AcDbEntity
  8
PCB
100
AcDbCircle
 10
169.0
 20
7.0
 30
0.0
 40
3.0
  0
CIRCLE
  5
125C
330
1F
100
AcDbEntity
  8
PCB
100
AcDbCircle
 10
212.0
 20
109.5
 30
0.0
 40
3.0
  0
CIRCLE
  5
125D
330
1F
100
AcDbEntity
  8
PCB
100
AcDbCircle
 10
212.0
 20
99.5
 30
0.0
 40
3.0
  0
CIRCLE
  5
125E
330
1F
100
AcDbEntity
  8
PCB
100
AcDbCircle
 10
212.0
 20
40.0
 30
0.0
 40
3.0
  0
CIRCLE
  5
125F
330
1F
100
AcDbEntity
  8
PCB
100
AcDbCircle
 10
212.0
 20
30.0
 30
0.0
 40
3.0
  0
CIRCLE
  5
1260
330
1F
100
AcDbEntity
  8
PCB
  6
ByBlock
100
AcDbCircle
 10
1.28000000000003
 20
131.12
 30
0.0
 40
0.4499999999999886
  0
CIRCLE
  5
1261
330
1F
100
AcDbEntity
  8
PCB
  6
ByBlock
100
AcDbCircle
 10
3.819999999999993
 20
131.12
 30
0.0
 40
0.4499999999999886
  0
CIRCLE
  5
1262
330
1F
100
AcDbEntity
  8
PCB
  6
ByBlock
100
AcDbCircle
 10
6.360000000000014
 20
131.12
 30
0.0
 40
0.4499999999999886
  0
CIRCLE
  5
1263
330
1F
100
AcDbEntity
  8
PCB
  6
ByBlock
100
AcDbCircle
 10
8.900000000000034
 20
131.12
 30
0.0
 40
0.4499999999999886
  0
CIRCLE
  5
1264
330
1F
100
AcDbEntity
  8
PCB
  6
ByBlock
100
AcDbCircle
 10
11.44
 20
131.12
 30
0.0
 40
0.4499999999999886
  0
CIRCLE
  5
1265
330
1F
100
AcDbEntity
  8
PCB
  6
ByBlock
100
AcDbCircle
 10
11.44
 20
128.58
 30
0.0
 40
0.4499999999999886
  0
CIRCLE
  5
1266
330
1F
100
AcDbEntity
  8
PCB
  6
ByBlock
100
AcDbCircle
 10
13.98000000000002
 20
131.12
 30
0.0
 40
0.4499999999999886
  0
CIRCLE
  5
1267
330
1F
100
AcDbEntity
  8
PCB
  6
ByBlock
100
AcDbCircle
 10
16.51999999999998
 20
131.12
 30
0.0
 40
0.4499999999999886
  0
CIRCLE
  5
1268
330
1F
100
AcDbEntity
  8
PCB
  6
ByBlock
100
AcDbCircle
 10
19.06
 20
131.12
 30
0.0
 40
0.4499999999999886
  0
CIRCLE
  5
1269
330
1F
100
AcDbEntity
  8
PCB
  6
ByBlock
100
AcDbCircle
 10
21.60000000000002
 20
131.12
 30
0.0
 40
0.4499999999999886
  0
CIRCLE
  5
126A
330
1F
100
AcDbEntity
  8
PCB
  6
ByBlock
100
AcDbCircle
 10
24.13999999999999
 20
131.12
 30
0.0
 40
0.4499999999999886
  0
CIRCLE
  5
126B
330
1F
100
AcDbEntity
  8
PCB
  6
ByBlock
100
AcDbCircle
 10
26.68000000000001
 20
131.12
 30
0.0
 40
0.4499999999999886
  0
CIRCLE
  5
126C
330
1F
100
AcDbEntity
  8
PCB
  6
ByBlock
100
AcDbCircle
 10
29.21999999999997
 20
131.12
 30
0.0
 40
0.4499999999999886
  0
CIRCLE
  5
126D
330
1F
100
AcDbEntity
  8
PCB
  6
ByBlock
100
AcDbCircle
 10
29.21999999999997
 20
128.58
 30
0.0
 40
0.4499999999999886
  0
CIRCLE
  5
126E
330
1F
100
AcDbEntity
  8
PCB
  6
ByBlock
100
AcDbCircle
 10
29.21999999999997
 20
126.04
 30
0.0
 40
0.4499999999999886
  0
CIRCLE
  5
126F
330
1F
100
AcDbEntity
  8
PCB
  6
ByBlock
100
AcDbCircle
 10
29.21999999999997
 20
123.5
 30
0.0
 40
0.4499999999999886
  0
CIRCLE
  5
1270
330
1F
100
AcDbEntity
  8
PCB
  6
ByBlock
100
AcDbCircle
 10
29.21999999999997
 20
120.96
 30
0.0
 40
0.4499999999999886
  0
CIRCLE
  5
1271
330
1F
100
AcDbEntity
  8
PCB
  6
ByBlock
100
AcDbCircle
 10
29.21999999999997
 20
118.42
 30
0.0
 40
0.4499999999999886
  0
CIRCLE
  5
1272
330
1F
100
AcDbEntity
  8
PCB
  6
ByBlock
100
AcDbCircle
 10
29.21999999999997
 20
115.88
 30
0.0
 40
0.4499999999999886
  0
CIRCLE
  5
1273
330
1F
100
AcDbEntity
  8
PCB
  6
ByBlock
100
AcDbCircle
 10
26.68000000000001
 20
115.88
 30
0.0
 40
0.4499999999999886
  0
CIRCLE
  5
1274
330
1F
100
AcDbEntity
  8
PCB
  6
ByBlock
100
AcDbCircle
 10
24.13999999999999
 20
115.88
 30
0.0
 40
0.4499999999999886
  0
CIRCLE
  5
1275
330
1F
100
AcDbEntity
  8
PCB
  6
ByBlock
100
AcDbCircle
 10
21.60000000000002
 20
115.88
 30
0.0
 40
0.4499999999999886
  0
CIRCLE
  5
1276
330
1F
100
AcDbEntity
  8
PCB
  6
ByBlock
100
AcDbCircle
 10
19.06
 20
115.88
 30
0.0
 40
0.4499999999999886
  0
CIRCLE
  5
1277
330
1F
100
AcDbEntity
  8
PCB
  6
ByBlock
100
AcDbCircle
 10
16.51999999999998
 20
115.88
 30
0.0
 40
0.4499999999999886
  0
CIRCLE
  5
1278
330
1F
100
AcDbEntity
  8
PCB
  6
ByBlock
100
AcDbCircle
 10
13.98000000000002
 20
115.88
 30
0.0
 40
0.4499999999999886
  0
CIRCLE
  5
1279
330
1F
100
AcDbEntity
  8
PCB
  6
ByBlock
100
AcDbCircle
 10
11.44
 20
118.42
 30
0.0
 40
0.4499999999999886
  0
CIRCLE
  5
127A
330
1F
100
AcDbEntity
  8
PCB
  6
ByBlock
100
AcDbCircle
 10
11.44
 20
115.88
 30
0.0
 40
0.4499999999999886
  0
CIRCLE
  5
127B
330
1F
100
AcDbEntity
  8
PCB
  6
ByBlock
100
AcDbCircle
 10
8.900000000000034
 20
115.88
 30
0.0
 40
0.4499999999999886
  0
CIRCLE
  5
127C
330
1F
100
AcDbEntity
  8
PCB
  6
ByBlock
100
AcDbCircle
 10
6.360000000000014
 20
115.88
 30
0.0
 40
0.4499999999999886
  0
CIRCLE
  5
127D
330
1F
100
AcDbEntity
  8
PCB
  6
ByBlock
100
AcDbCircle
 10
3.819999999999993
 20
115.88
 30
0.0
 40
0.4499999999999886
  0
CIRCLE
  5
127E
330
1F
100
AcDbEntity
  8
PCB
  6
ByBlock
100
AcDbCircle
 10
1.28000000000003
 20
115.88
 30
0.0
 40
0.4499999999999886
  0
CIRCLE
  5
127F
330
1F
100
AcDbEntity
  8
PCB
  6
ByBlock
100
AcDbCircle
 10
217.72
 20
131.12
 30
0.0
 40
0.4499999999999886
  0
CIRCLE
  5
1280
330
1F
100
AcDbEntity
  8
PCB
  6
ByBlock
100
AcDbCircle
 10
215.18
 20
131.12
 30
0.0
 40
0.4499999999999886
  0
CIRCLE
  5
1281
330
1F
100
AcDbEntity
  8
PCB
  6
ByBlock
100
AcDbCircle
 10
212.64
 20
131.12
 30
0.0
 40
0.4499999999999886
  0
CIRCLE
  5
1282
330
1F
100
AcDbEntity
  8
PCB
  6
ByBlock
100
AcDbCircle
 10
210.1
 20
131.12
 30
0.0
 40
0.4499999999999886
  0
CIRCLE
  5
1283
330
1F
100
AcDbEntity
  8
PCB
  6
ByBlock
100
AcDbCircle
 10
207.56
 20
131.12
 30
0.0
 40
0.4499999999999886
  0
CIRCLE
  5
1284
330
1F
100
AcDbEntity
  8
PCB
  6
ByBlock
100
AcDbCircle
 10
205.02
 20
131.12
 30
0.0
 40
0.4499999999999886
  0
CIRCLE
  5
1285
330
1F
100
AcDbEntity
  8
PCB
  6
ByBlock
100
AcDbCircle
 10
202.48
 20
131.12
 30
0.0
 40
0.4499999999999886
  0
CIRCLE
  5
1286
330
1F
100
AcDbEntity
  8
PCB
  6
ByBlock
100
AcDbCircle
 10
199.94
 20
131.12
 30
0.0
 40
0.4499999999999886
  0
CIRCLE
  5
1287
330
1F
100
AcDbEntity
  8
PCB
  6
ByBlock
100
AcDbCircle
 10
197.4
 20
131.12
 30
0.0
 40
0.4499999999999886
  0
CIRCLE
  5
1288
330
1F
100
AcDbEntity
  8
PCB
  6
ByBlock
100
AcDbCircle
 10
207.56
 20
128.58
 30
0.0
 40
0.4499999999999886
  0
CIRCLE
  5
1289
330
1F
100
AcDbEntity
  8
PCB
  6
ByBlock
100
AcDbCircle
 10
194.86
 20
131.12
 30
0.0
 40
0.4499999999999886
  0
CIRCLE
  5
128A
330
1F
100
AcDbEntity
  8
PCB
  6
ByBlock
100
AcDbCircle
 10
192.32
 20
131.12
 30
0.0
 40
0.4499999999999886
  0
CIRCLE
  5
128B
330
1F
100
AcDbEntity
  8
PCB
  6
ByBlock
100
AcDbCircle
 10
189.78
 20
131.12
 30
0.0
 40
0.4499999999999886
  0
CIRCLE
  5
128C
330
1F
100
AcDbEntity
  8
PCB
  6
ByBlock
100
AcDbCircle
 10
189.78
 20
128.58
 30
0.0
 40
0.4499999999999886
  0
CIRCLE
  5
128D
330
1F
100
AcDbEntity
  8
PCB
  6
ByBlock
100
AcDbCircle
 10
189.78
 20
126.04
 30
0.0
 40
0.4499999999999886
  0
CIRCLE
  5
128E
330
1F
100
AcDbEntity
  8
PCB
  6
ByBlock
100
AcDbCircle
 10
189.78
 20
123.5
 30
0.0
 40
0.4499999999999886
  0
CIRCLE
  5
128F
330
1F
100
AcDbEntity
  8
PCB
  6
ByBlock
100
AcDbCircle
 10
189.78
 20
120.96
 30
0.0
 40
0.4499999999999886
  0
CIRCLE
  5
1290
330
1F
100
AcDbEntity
  8
PCB
  6
ByBlock
100
AcDbCircle
 10
189.78
 20
118.42
 30
0.0
 40
0.4499999999999886
  0
CIRCLE
  5
1291
330
1F
100
AcDbEntity
  8
PCB
  6
ByBlock
100
AcDbCircle
 10
189.78
 20
115.88
 30
0.0
 40
0.4499999999999886
  0
CIRCLE
  5
1292
330
1F
100
AcDbEntity
  8
PCB
  6
ByBlock
100
AcDbCircle
 10
192.32
 20
115.88
 30
0.0
 40
0.4499999999999886
  0
CIRCLE
  5
1293
330
1F
100
AcDbEntity
  8
PCB
  6
ByBlock
100
AcDbCircle
 10
194.86
 20
115.88
 30
0.0
 40
0.4499999999999886
  0
CIRCLE
  5
1294
330
1F
100
AcDbEntity
  8
PCB
  6
ByBlock
100
AcDbCircle
 10
197.4
 20
115.88
 30
0.0
 40
0.4499999999999886
  0
CIRCLE
  5
1295
330
1F
100
AcDbEntity
  8
PCB
  6
ByBlock
100
AcDbCircle
 10
199.94
 20
115.88
 30
0.0
 40
0.4499999999999886
  0
CIRCLE
  5
1296
330
1F
100
AcDbEntity
  8
PCB
  6
ByBlock
100
AcDbCircle
 10
202.48
 20
115.88
 30
0.0
 40
0.4499999999999886
  0
CIRCLE
  5
1297
330
1F
100
AcDbEntity
  8
PCB
  6
ByBlock
100
AcDbCircle
 10
205.02
 20
115.88
 30
0.0
 40
0.4499999999999886
  0
CIRCLE
  5
1298
330
1F
100
AcDbEntity
  8
PCB
  6
ByBlock
100
AcDbCircle
 10
207.56
 20
115.88
 30
0.0
 40
0.4499999999999886
  0
CIRCLE
  5
1299
330
1F
100
AcDbEntity
  8
PCB
  6
ByBlock
100
AcDbCircle
 10
207.56
 20
118.42
 30
0.0
 40
0.4499999999999886
  0
CIRCLE
  5
129A
330
1F
100
AcDbEntity
  8
PCB
  6
ByBlock
100
AcDbCircle
 10
210.1
 20
115.88
 30
0.0
 40
0.4499999999999886
  0
CIRCLE
  5
129B
330
1F
100
AcDbEntity
  8
PCB
  6
ByBlock
100
AcDbCircle
 10
212.64
 20
115.88
 30
0.0
 40
0.4499999999999886
  0
CIRCLE
  5
129C
330
1F
100
AcDbEntity
  8
PCB
  6
ByBlock
100
AcDbCircle
 10
215.18
 20
115.88
 30
0.0
 40
0.4499999999999886
  0
CIRCLE
  5
129D
330
1F
100
AcDbEntity
  8
PCB
  6
ByBlock
100
AcDbCircle
 10
217.72
 20
115.88
 30
0.0
 40
0.4499999999999886
  0
CIRCLE
  5
129E
330
1F
100
AcDbEntity
  8
PCB
  6
ByBlock
100
AcDbCircle
 10
21.5
 20
99.5
 30
0.0
 40
0.75
  0
CIRCLE
  5
129F
330
1F
100
AcDbEntity
  8
PCB
  6
ByBlock
100
AcDbCircle
 10
26.5
 20
100.0
 30
0.0
 40
0.75
  0
CIRCLE
  5
12A0
330
1F
100
AcDbEntity
  8
PCB
  6
ByBlock
100
AcDbCircle
 10
40.5
 20
99.5
 30
0.0
 40
0.75
  0
CIRCLE
  5
12A1
330
1F
100
AcDbEntity
  8
PCB
  6
ByBlock
100
AcDbCircle
 10
45.5
 20
100.0
 30
0.0
 40
0.75
  0
CIRCLE
  5
12A2
330
1F
100
AcDbEntity
  8
PCB
  6
ByBlock
100
AcDbCircle
 10
21.5
 20
79.25
 30
0.0
 40
0.75
  0
CIRCLE
  5
12A3
330
1F
100
AcDbEntity
  8
PCB
  6
ByBlock
100
AcDbCircle
 10
26.5
 20
79.75
 30
0.0
 40
0.75
  0
CIRCLE
  5
12A4
330
1F
100
AcDbEntity
  8
PCB
  6
ByBlock
100
AcDbCircle
 10
40.5
 20
79.25
 30
0.0
 40
0.75
  0
CIRCLE
  5
12A5
330
1F
100
AcDbEntity
  8
PCB
  6
ByBlock
100
AcDbCircle
 10
45.5
 20
79.75
 30
0.0
 40
0.75
  0
CIRCLE
  5
12A6
330
1F
100
AcDbEntity
  8
PCB
  6
ByBlock
100
AcDbCircle
 10
21.5
 20
56.0
 30
0.0
 40
0.75
  0
CIRCLE
  5
12A7
330
1F
100
AcDbEntity
  8
PCB
  6
ByBlock
100
AcDbCircle
 10
26.5
 20
56.5
 30
0.0
 40
0.75
  0
CIRCLE
  5
12A8
330
1F
100
AcDbEntity
  8
PCB
  6
ByBlock
100
AcDbCircle
 10
40.5
 20
56.0
 30
0.0
 40
0.75
  0
CIRCLE
  5
12A9
330
1F
100
AcDbEntity
  8
PCB
  6
ByBlock
100
AcDbCircle
 10
45.5
 20
56.5
 30
0.0
 40
0.75
  0
CIRCLE
  5
12AA
330
1F
100
AcDbEntity
  8
PCB
  6
ByBlock
100
AcDbCircle
 10
59.5
 20
56.0
 30
0.0
 40
0.75
  0
CIRCLE
  5
12AB
330
1F
100
AcDbEntity
  8
PCB
  6
ByBlock
100
AcDbCircle
 10
64.5
 20
56.5
 30
0.0
 40
0.75
  0
CIRCLE
  5
12AC
330
1F
100
AcDbEntity
  8
PCB
  6
ByBlock
100
AcDbCircle
 10
78.5
 20
56.0
 30
0.0
 40
0.75
  0
CIRCLE
  5
12AD
330
1F
100
AcDbEntity
  8
PCB
  6
ByBlock
100
AcDbCircle
 10
83.5
 20
56.5
 30
0.0
 40
0.75
  0
CIRCLE
  5
12AE
330
1F
100
AcDbEntity
  8
PCB
  6
ByBlock
100
AcDbCircle
 10
69.0
 20
31.0
 30
0.0
 40
0.75
  0
CIRCLE
  5
12AF
330
1F
100
AcDbEntity
  8
PCB
  6
ByBlock
100
AcDbCircle
 10
74.0
 20
31.5
 30
0.0
 40
0.75
  0
CIRCLE
  5
12B0
330
1F
100
AcDbEntity
  8
PCB
  6
ByBlock
100
AcDbCircle
 10
88.0
 20
31.0
 30
0.0
 40
0.75
  0
CIRCLE
  5
12B1
330
1F
100
AcDbEntity
  8
PCB
  6
ByBlock
100
AcDbCircle
 10
93.0
 20
31.5
 30
0.0
 40
0.75
  0
CIRCLE
  5
12B2
330
1F
100
AcDbEntity
  8
PCB
  6
ByBlock
100
AcDbCircle
 10
107.0
 20
31.0
 30
0.0
 40
0.75
  0
CIRCLE
  5
12B3
330
1F
100
AcDbEntity
  8
PCB
  6
ByBlock
100
AcDbCircle
 10
112.0
 20
31.5
 30
0.0
 40
0.75
  0
CIRCLE
  5
12B4
330
1F
100
AcDbEntity
  8
PCB
  6
ByBlock
100
AcDbCircle
 10
126.0
 20
31.0
 30
0.0
 40
0.75
  0
CIRCLE
  5
12B5
330
1F
100
AcDbEntity
  8
PCB
  6
ByBlock
100
AcDbCircle
 10
131.0
 20
31.5
 30
0.0
 40
0.75
  0
CIRCLE
  5
12B6
330
1F
100
AcDbEntity
  8
PCB
  6
ByBlock
100
AcDbCircle
 10
97.5
 20
56.0
 30
0.0
 40
0.75
  0
CIRCLE
  5
12B7
330
1F
100
AcDbEntity
  8
PCB
  6
ByBlock
100
AcDbCircle
 10
102.5
 20
56.5
 30
0.0
 40
0.75
  0
CIRCLE
  5
12B8
330
1F
100
AcDbEntity
  8
PCB
  6
ByBlock
100
AcDbCircle
 10
116.5
 20
56.0
 30
0.0
 40
0.75
  0
CIRCLE
  5
12B9
330
1F
100
AcDbEntity
  8
PCB
  6
ByBlock
100
AcDbCircle
 10
121.5
 20
56.5
 30
0.0
 40
0.75
  0
CIRCLE
  5
12BA
330
1F
100
AcDbEntity
  8
PCB
  6
ByBlock
100
AcDbCircle
 10
135.5
 20
56.0
 30
0.0
 40
0.75
  0
CIRCLE
  5
12BB
330
1F
100
AcDbEntity
  8
PCB
  6
ByBlock
100
AcDbCircle
 10
140.5
 20
56.5
 30
0.0
 40
0.75
  0
CIRCLE
  5
12BC
330
1F
100
AcDbEntity
  8
PCB
  6
ByBlock
100
AcDbCircle
 10
154.5
 20
56.0
 30
0.0
 40
0.75
  0
CIRCLE
  5
12BD
330
1F
100
AcDbEntity
  8
PCB
  6
ByBlock
100
AcDbCircle
 10
159.5
 20
56.5
 30
0.0
 40
0.75
  0
CIRCLE
  5
12BE
330
1F
100
AcDbEntity
  8
PCB
  6
ByBlock
100
AcDbCircle
 10
173.5
 20
56.0
 30
0.0
 40
0.75
  0
CIRCLE
  5
12BF
330
1F
100
AcDbEntity
  8
PCB
  6
ByBlock
100
AcDbCircle
 10
178.5
 20
56.5
 30
0.0
 40
0.75
  0
CIRCLE
  5
12C0
330
1F
100
AcDbEntity
  8
PCB
  6
ByBlock
100
AcDbCircle
 10
192.5
 20
56.0
 30
0.0
 40
0.75
  0
CIRCLE
  5
12C1
330
1F
100
AcDbEntity
  8
PCB
  6
ByBlock
100
AcDbCircle
 10
197.5
 20
56.5
 30
0.0
 40
0.75
  0
CIRCLE
  5
12C2
330
1F
100
AcDbEntity
  8
PCB
  6
ByBlock
100
AcDbCircle
 10
59.5
 20
79.25
 30
0.0
 40
0.75
  0
CIRCLE
  5
12C3
330
1F
100
AcDbEntity
  8
PCB
  6
ByBlock
100
AcDbCircle
 10
64.5
 20
79.75
 30
0.0
 40
0.75
  0
CIRCLE
  5
12C4
330
1F
100
AcDbEntity
  8
PCB
  6
ByBlock
100
AcDbCircle
 10
78.5
 20
79.25
 30
0.0
 40
0.75
  0
CIRCLE
  5
12C5
330
1F
100
AcDbEntity
  8
PCB
  6
ByBlock
100
AcDbCircle
 10
83.5
 20
79.75
 30
0.0
 40
0.75
  0
CIRCLE
  5
12C6
330
1F
100
AcDbEntity
  8
PCB
  6
ByBlock
100
AcDbCircle
 10
97.5
 20
79.25
 30
0.0
 40
0.75
  0
CIRCLE
  5
12C7
330
1F
100
AcDbEntity
  8
PCB
  6
ByBlock
100
AcDbCircle
 10
102.5
 20
79.75
 30
0.0
 40
0.75
  0
CIRCLE
  5
12C8
330
1F
100
AcDbEntity
  8
PCB
  6
ByBlock
100
AcDbCircle
 10
116.5
 20
79.25
 30
0.0
 40
0.75
  0
CIRCLE
  5
12C9
330
1F
100
AcDbEntity
  8
PCB
  6
ByBlock
100
AcDbCircle
 10
121.5
 20
79.75
 30
0.0
 40
0.75
  0
CIRCLE
  5
12CA
330
1F
100
AcDbEntity
  8
PCB
  6
ByBlock
100
AcDbCircle
 10
135.5
 20
79.25
 30
0.0
 40
0.75
  0
CIRCLE
  5
12CB
330
1F
100
AcDbEntity
  8
PCB
  6
ByBlock
100
AcDbCircle
 10
140.5
 20
79.75
 30
0.0
 40
0.75
  0
CIRCLE
  5
12CC
330
1F
100
AcDbEntity
  8
PCB
  6
ByBlock
100
AcDbCircle
 10
154.5
 20
79.25
 30
0.0
 40
0.75
  0
CIRCLE
  5
12CD
330
1F
100
AcDbEntity
  8
PCB
  6
ByBlock
100
AcDbCircle
 10
159.5
 20
79.75
 30
0.0
 40
0.75
  0
CIRCLE
  5
12CE
330
1F
100
AcDbEntity
  8
PCB
  6
ByBlock
100
AcDbCircle
 10
173.5
 20
79.25
 30
0.0
 40
0.75
  0
CIRCLE
  5
12CF
330
1F
100
AcDbEntity
  8
PCB
  6
ByBlock
100
AcDbCircle
 10
178.5
 20
79.75
 30
0.0
 40
0.75
  0
CIRCLE
  5
12D0
330
1F
100
AcDbEntity
  8
PCB
  6
ByBlock
100
AcDbCircle
 10
192.5
 20
79.25
 30
0.0
 40
0.75
  0
CIRCLE
  5
12D1
330
1F
100
AcDbEntity
  8
PCB
  6
ByBlock
100
AcDbCircle
 10
197.5
 20
79.75
 30
0.0
 40
0.75
  0
CIRCLE
  5
12D2
330
1F
100
AcDbEntity
  8
PCB
  6
ByBlock
100
AcDbCircle
 10
59.5
 20
99.5
 30
0.0
 40
0.75
  0
CIRCLE
  5
12D3
330
1F
100
AcDbEntity
  8
PCB
  6
ByBlock
100
AcDbCircle
 10
64.5
 20
100.0
 30
0.0
 40
0.75
  0
CIRCLE
  5
12D4
330
1F
100
AcDbEntity
  8
PCB
  6
ByBlock
100
AcDbCircle
 10
78.5
 20
99.5
 30
0.0
 40
0.75
  0
CIRCLE
  5
12D5
330
1F
100
AcDbEntity
  8
PCB
  6
ByBlock
100
AcDbCircle
 10
83.5
 20
100.0
 30
0.0
 40
0.75
  0
CIRCLE
  5
12D6
330
1F
100
AcDbEntity
  8
PCB
  6
ByBlock
100
AcDbCircle
 10
97.5
 20
99.5
 30
0.0
 40
0.75
  0
CIRCLE
  5
12D7
330
1F
100
AcDbEntity
  8
PCB
  6
ByBlock
100
AcDbCircle
 10
102.5
 20
100.0
 30
0.0
 40
0.75
  0
CIRCLE
  5
12D8
330
1F
100
AcDbEntity
  8
PCB
  6
ByBlock
100
AcDbCircle
 10
116.5
 20
99.5
 30
0.0
 40
0.75
  0
CIRCLE
  5
12D9
330
1F
100
AcDbEntity
  8
PCB
  6
ByBlock
100
AcDbCircle
 10
121.5
 20
100.0
 30
0.0
 40
0.75
  0
CIRCLE
  5
12DA
330
1F
100
AcDbEntity
  8
PCB
  6
ByBlock
100
AcDbCircle
 10
135.5
 20
99.5
 30
0.0
 40
0.75
  0
CIRCLE
  5
12DB
330
1F
100
AcDbEntity
  8
PCB
  6
ByBlock
100
AcDbCircle
 10
140.5
 20
100.0
 30
0.0
 40
0.75
  0
CIRCLE
  5
12DC
330
1F
100
AcDbEntity
  8
PCB
  6
ByBlock
100
AcDbCircle
 10
154.5
 20
99.5
 30
0.0
 40
0.75
  0
CIRCLE
  5
12DD
330
1F
100
AcDbEntity
  8
PCB
  6
ByBlock
100
AcDbCircle
 10
159.5
 20
100.0
 30
0.0
 40
0.75
  0
CIRCLE
  5
12DE
330
1F
100
AcDbEntity
  8
PCB
  6
ByBlock
100
AcDbCircle
 10
173.5
 20
99.5
 30
0.0
 40
0.75
  0
CIRCLE
  5
12DF
330
1F
100
AcDbEntity
  8
PCB
  6
ByBlock
100
AcDbCircle
 10
178.5
 20
100.0
 30
0.0
 40
0.75
  0
CIRCLE
  5
12E0
330
1F
100
AcDbEntity
  8
PCB
  6
ByBlock
100
AcDbCircle
 10
192.5
 20
99.5
 30
0.0
 40
0.75
  0
CIRCLE
  5
12E1
330
1F
100
AcDbEntity
  8
PCB
  6
ByBlock
100
AcDbCircle
 10
197.5
 20
100.0
 30
0.0
 40
0.75
  0
CIRCLE
  5
12E2
330
1F
100
AcDbEntity
  8
PCB
  6
ByBlock
100
AcDbCircle
 10
41.75
 20
119.75
 30
0.0
 40
0.5
  0
CIRCLE
  5
12E3
330
1F
100
AcDbEntity
  8
PCB
  6
ByBlock
100
AcDbCircle
 10
44.25
 20
119.75
 30
0.0
 40
0.5
  0
CIRCLE
  5
12E4
330
1F
100
AcDbEntity
  8
PCB
  6
ByBlock
100
AcDbCircle
 10
177.25
 20
119.75
 30
0.0
 40
0.5
  0
CIRCLE
  5
12E5
330
1F
100
AcDbEntity
  8
PCB
  6
ByBlock
100
AcDbCircle
 10
174.75
 20
119.75
 30
0.0
 40
0.5
  0
CIRCLE
  5
12E6
330
1F
100
AcDbEntity
  8
PCB
  6
ByBlock
100
AcDbCircle
 10
69.26150000000001
 20
120.6615
 30
0.0
 40
0.2
  0
CIRCLE
  5
12E7
330
1F
100
AcDbEntity
  8
PCB
  6
ByBlock
100
AcDbCircle
 10
109.244
 20
120.5023
 30
0.0
 40
0.2
  0
CIRCLE
  5
12E8
330
1F
100
AcDbEntity
  8
PCB
  6
ByBlock
100
AcDbCircle
 10
118.363
 20
128.3635
 30
0.0
 40
0.2
  0
CIRCLE
  5
12E9
330
1F
100
AcDbEntity
  8
PCB
  6
ByBlock
100
AcDbCircle
 10
140.604
 20
114.6495
 30
0.0
 40
0.2
  0
CIRCLE
  5
12EA
330
1F
100
AcDbEntity
  8
PCB
  6
ByBlock
100
AcDbCircle
 10
158.873
 20
126.9743
 30
0.0
 40
0.2
  0
CIRCLE
  5
12EB
330
1F
100
AcDbEntity
  8
PCB
  6
ByBlock
100
AcDbCircle
 10
171.874
 20
119.1904
 30
0.0
 40
0.2
  0
CIRCLE
  5
12EC
330
1F
100
AcDbEntity
  8
PCB
  6
ByBlock
100
AcDbCircle
 10
190.251
 20
119.69
 30
0.0
 40
0.2
  0
CIRCLE
  5
12ED
330
1F
100
AcDbEntity
  8
PCB
  6
ByBlock
100
AcDbCircle
 10
81.54399999999998
 20
114.6955
 30
0.0
 40
0.2
  0
CIRCLE
  5
12EE
330
1F
100
AcDbEntity
  8
PCB
  6
ByBlock
100
AcDbCircle
 10
78.45999999999998
 20
115.94
 30
0.0
 40
0.4500000000000171
  0
CIRCLE
  5
12EF
330
1F
100
AcDbEntity
  8
PCB
  6
ByBlock
100
AcDbCircle
 10
80.99999999999997
 20
115.94
 30
0.0
 40
0.4500000000000171
  0
CIRCLE
  5
12F0
330
1F
100
AcDbEntity
  8
PCB
  6
ByBlock
100
AcDbCircle
 10
83.53999999999996
 20
115.94
 30
0.0
 40
0.4500000000000171
  0
CIRCLE
  5
12F1
330
1F
100
AcDbEntity
  8
PCB
  6
ByBlock
100
AcDbCircle
 10
78.45999999999995
 20
123.56
 30
0.0
 40
0.4500000000000171
  0
CIRCLE
  5
12F2
330
1F
100
AcDbEntity
  8
PCB
  6
ByBlock
100
AcDbCircle
 10
80.99999999999997
 20
123.56
 30
0.0
 40
0.4500000000000171
  0
CIRCLE
  5
12F3
330
1F
100
AcDbEntity
  8
PCB
  6
ByBlock
100
AcDbCircle
 10
83.53999999999999
 20
123.56
 30
0.0
 40
0.4500000000000171
  0
CIRCLE
  5
12F4
330
1F
100
AcDbEntity
  8
PCB
  6
ByBlock
100
AcDbCircle
 10
59.45999999999998
 20
123.56
 30
0.0
 40
0.4500000000000171
  0
CIRCLE
  5
12F5
330
1F
100
AcDbEntity
  8
PCB
  6
ByBlock
100
AcDbCircle
 10
61.99999999999994
 20
123.56
 30
0.0
 40
0.4500000000000171
  0
CIRCLE
  5
12F6
330
1F
100
AcDbEntity
  8
PCB
  6
ByBlock
100
AcDbCircle
 10
64.53999999999996
 20
123.56
 30
0.0
 40
0.4500000000000171
  0
CIRCLE
  5
12F7
330
1F
100
AcDbEntity
  8
PCB
  6
ByBlock
100
AcDbCircle
 10
59.45999999999998
 20
115.94
 30
0.0
 40
0.4500000000000171
  0
CIRCLE
  5
12F8
330
1F
100
AcDbEntity
  8
PCB
  6
ByBlock
100
AcDbCircle
 10
61.99999999999994
 20
115.94
 30
0.0
 40
0.4500000000000171
  0
CIRCLE
  5
12F9
330
1F
100
AcDbEntity
  8
PCB
  6
ByBlock
100
AcDbCircle
 10
64.53999999999996
 20
115.94
 30
0.0
 40
0.4500000000000171
  0
CIRCLE
  5
12FA
330
1F
100
AcDbEntity
  8
PCB
  6
ByBlock
100
AcDbCircle
 10
135.46
 20
123.56
 30
0.0
 40
0.4500000000000171
  0
CIRCLE
  5
12FB
330
1F
100
AcDbEntity
  8
PCB
  6
ByBlock
100
AcDbCircle
 10
138.0
 20
123.56
 30
0.0
 40
0.4500000000000171
  0
CIRCLE
  5
12FC
330
1F
100
AcDbEntity
  8
PCB
  6
ByBlock
100
AcDbCircle
 10
140.54
 20
123.56
 30
0.0
 40
0.4500000000000171
  0
CIRCLE
  5
12FD
330
1F
100
AcDbEntity
  8
PCB
  6
ByBlock
100
AcDbCircle
 10
135.46
 20
115.94
 30
0.0
 40
0.4500000000000171
  0
CIRCLE
  5
12FE
330
1F
100
AcDbEntity
  8
PCB
  6
ByBlock
100
AcDbCircle
 10
138.0
 20
115.94
 30
0.0
 40
0.4500000000000171
  0
CIRCLE
  5
12FF
330
1F
100
AcDbEntity
  8
PCB
  6
ByBlock
100
AcDbCircle
 10
140.54
 20
115.94
 30
0.0
 40
0.4500000000000171
  0
CIRCLE
  5
1300
330
1F
100
AcDbEntity
  8
PCB
  6
ByBlock
100
AcDbCircle
 10
154.46
 20
123.56
 30
0.0
 40
0.4500000000000171
  0
CIRCLE
  5
1301
330
1F
100
AcDbEntity
  8
PCB
  6
ByBlock
100
AcDbCircle
 10
157.0
 20
123.56
 30
0.0
 40
0.4500000000000171
  0
CIRCLE
  5
1302
330
1F
100
AcDbEntity
  8
PCB
  6
ByBlock
100
AcDbCircle
 10
159.54
 20
123.56
 30
0.0
 40
0.4500000000000171
  0
CIRCLE
  5
1303
330
1F
100
AcDbEntity
  8
PCB
  6
ByBlock
100
AcDbCircle
 10
154.46
 20
115.94
 30
0.0
 40
0.4500000000000171
  0
CIRCLE
  5
1304
330
1F
100
AcDbEntity
  8
PCB
  6
ByBlock
100
AcDbCircle
 10
157.0
 20
115.94
 30
0.0
 40
0.4500000000000171
  0
CIRCLE
  5
1305
330
1F
100
AcDbEntity
  8
PCB
  6
ByBlock
100
AcDbCircle
 10
159.54
 20
115.94
 30
0.0
 40
0.4500000000000171
  0
LINE
  5
14A3
330
1F
100
AcDbEntity
  8
0
100
AcDbLine
 10
498.9196565087279
 20
170.6041549701793
 30
0.0
 11
514.4196565087279
 21
170.6041549701793
 31
0.0
  0
LINE
  5
14A4
330
1F
100
AcDbEntity
  8
0
100
AcDbLine
 10
498.9196565087279
 20
183.4041549701793
 30
0.0
 11
514.4196565087279
 21
183.4041549701793
 31
0.0
  0
LINE
  5
14A5
330
1F
100
AcDbEntity
  8
0
100
AcDbLine
 10
498.9196565087279
 20
170.6041549701793
 30
0.0
 11
498.9196565087279
 21
183.4041549701793
 31
0.0
  0
LINE
  5
14A6
330
1F
100
AcDbEntity
  8
0
100
AcDbLine
 10
514.4196565087279
 20
170.6041549701793
 30
0.0
 11
514.4196565087279
 21
183.4041549701793
 31
0.0
  0
CIRCLE
  5
14A7
330
1F
100
AcDbEntity
  8
0
100
AcDbCircle
 10
509.1696565087279
 20
181.5041549701793
 30
0.0
 40
0.75
  0
CIRCLE
  5
14A8
330
1F
100
AcDbEntity
  8
0
100
AcDbCircle
 10
504.1696565087279
 20
181.0041549701793
 30
0.0
 40
0.75
  0
LINE
  5
14A9
330
1F
100
AcDbEntity
  8
0
100
AcDbLine
 10
498.0696565087279
 20
184.0041549701793
 30
0.0
 11
515.269656508728
 21
184.0041549701793
 31
0.0
  0
LINE
  5
14AA
330
1F
100
AcDbEntity
  8
0
100
AcDbLine
 10
498.0696565087279
 20
170.0041549701793
 30
0.0
 11
515.269656508728
 21
170.0041549701793
 31
0.0
  0
LINE
  5
14AB
330
1F
100
AcDbEntity
  8
0
100
AcDbLine
 10
498.0696565087279
 20
184.0041549701793
 30
0.0
 11
498.0696565087279
 21
170.0041549701793
 31
0.0
  0
LINE
  5
14AC
330
1F
100
AcDbEntity
  8
0
100
AcDbLine
 10
515.269656508728
 20
184.0041549701793
 30
0.0
 11
515.269656508728
 21
170.0041549701793
 31
0.0
  0
LINE
  5
14AD
330
1F
100
AcDbEntity
  8
0
100
AcDbLine
 10
514.4196565087279
 20
183.4041549701793
 30
0.0
 11
498.9196565087279
 21
170.6041549701793
 31
0.0
  0
LINE
  5
150A
330
1F
100
AcDbEntity
  8
Keymatrix
100
AcDbLine
 10
13.19999999999999
 20
106.7000000000001
 30
0.0
 11
13.19999999999999
 21
16.20000000000011
 31
0.0
  0
LINE
  5
150B
330
1F
100
AcDbEntity
  8
Keymatrix
100
AcDbLine
 10
16.19999999999999
 20
109.7000000000001
 30
0.0
 11
202.8000000000001
 21
109.7000000000001
 31
0.0
  0
LINE
  5
150C
330
1F
100
AcDbEntity
  8
Keymatrix
100
AcDbLine
 10
205.8000000000001
 20
106.7000000000001
 30
0.0
 11
205.8000000000001
 21
16.20000000000011
 31
0.0
  0
ARC
  5
1516
330
1F
100
AcDbEntity
  8
Keymatrix
100
AcDbCircle
 10
16.19999999999999
 20
106.7000000000001
 30
0.0
 40
3.000000000000001
100
AcDbArc
 50
90.0
 51
180.0
  0
ARC
  5
1517
330
1F
100
AcDbEntity
  8
Keymatrix
100
AcDbCircle
 10
202.8000000000001
 20
106.7000000000001
 30
0.0
 40
3.000000000000001
100
AcDbArc
 50
0.0
 51
90.0
  0
LINE
  5
1531
330
1F
100
AcDbEntity
  8
Keymatrix
100
AcDbLine
 10
16.19999999999999
 20
13.20000000000011
 30
0.0
 11
202.8000000000001
 21
13.20000000000011
 31
0.0
  0
ARC
  5
1532
330
1F
100
AcDbEntity
  8
Keymatrix
100
AcDbCircle
 10
16.19999999999999
 20
16.20000000000011
 30
0.0
 40
3.000000000000001
100
AcDbArc
 50
180.0
 51
270.0
  0
ARC
  5
1533
330
1F
100
AcDbEntity
  8
Keymatrix
100
AcDbCircle
 10
202.8000000000001
 20
16.20000000000011
 30
0.0
 40
3.000000000000001
100
AcDbArc
 50
270.0
 51
0.0
  0
LINE
  5
1534
330
1F
100
AcDbEntity
  8
0
100
AcDbLine
 10
271.154823590587
 20
278.5353823451878
 30
0.0
 11
271.154823590587
 21
188.0353823451878
 31
0.0
  0
LINE
  5
1535
330
1F
100
AcDbEntity
  8
0
100
AcDbLine
 10
274.154823590587
 20
281.5353823451878
 30
0.0
 11
460.7548235905871
 21
281.5353823451878
 31
0.0
  0
LINE
  5
1536
330
1F
100
AcDbEntity
  8
0
100
AcDbLine
 10
463.7548235905871
 20
278.5353823451878
 30
0.0
 11
463.7548235905871
 21
188.0353823451878
 31
0.0
  0
ARC
  5
1537
330
1F
100
AcDbEntity
  8
0
100
AcDbCircle
 10
274.154823590587
 20
278.5353823451878
 30
0.0
 40
3.000000000000001
100
AcDbArc
 50
90.0
 51
180.0
  0
ARC
  5
1538
330
1F
100
AcDbEntity
  8
0
100
AcDbCircle
 10
460.7548235905871
 20
278.5353823451878
 30
0.0
 40
3.000000000000001
100
AcDbArc
 50
0.0
 51
90.0
  0
LINE
  5
1539
330
1F
100
AcDbEntity
  8
0
100
AcDbLine
 10
274.154823590587
 20
185.0353823451878
 30
0.0
 11
460.7548235905871
 21
185.0353823451878
 31
0.0
  0
ARC
  5
153A
330
1F
100
AcDbEntity
  8
0
100
AcDbCircle
 10
274.154823590587
 20
188.0353823451878
 30
0.0
 40
3.000000000000001
100
AcDbArc
 50
180.0
 51
270.0
  0
ARC
  5
153B
330
1F
100
AcDbEntity
  8
0
100
AcDbCircle
 10
460.7548235905871
 20
188.0353823451878
 30
0.0
 40
3.000000000000001
100
AcDbArc
 50
270.0
 51
0.0
  0
CIRCLE
  5
1543
330
1F
100
AcDbEntity
  8
LeftOpening
100
AcDbCircle
 10
62.0
 20
119.7534143033949
 30
0.0
 40
3.5
  0
CIRCLE
  5
1544
330
1F
100
AcDbEntity
  8
LeftOpening
100
AcDbCircle
 10
81.0
 20
119.7534143033949
 30
0.0
 40
3.5
  0
CIRCLE
  5
1545
330
1F
100
AcDbEntity
  8
LeftOpening
100
AcDbCircle
 10
43.0
 20
119.7534143033949
 30
0.0
 40
3.0
  0
LINE
  5
1554
330
1F
100
AcDbEntity
  8
RightOpening
100
AcDbLine
 10
15.0
 20
99.50000000000009
 30
0.0
 11
15.0
 21
49.00000000000011
 31
0.0
  0
ARC
  5
1555
330
1F
100
AcDbEntity
  8
RightOpening
100
AcDbCircle
 10
20.0
 20
99.50000000000009
 30
0.0
 40
5.000000000000002
100
AcDbArc
 50
90.0
 51
180.0
  0
LINE
  5
1556
330
1F
100
AcDbEntity
  8
RightOpening
100
AcDbLine
 10
20.0
 20
104.5000000000001
 30
0.0
 11
199.0000000000001
 21
104.5000000000001
 31
0.0
  0
ARC
  5
1557
330
1F
100
AcDbEntity
  8
RightOpening
100
AcDbCircle
 10
24.0
 20
49.00000000000011
 30
0.0
 40
9.0
100
AcDbArc
 50
180.0
 51
270.0
  0
ARC
  5
1558
330
1F
100
AcDbEntity
  8
RightOpening
100
AcDbCircle
 10
60.5
 20
38.00000000000011
 30
0.0
 40
2.000000000000001
100
AcDbArc
 50
0.0
 51
90.0
  0
LINE
  5
1559
330
1F
100
AcDbEntity
  8
RightOpening
100
AcDbLine
 10
62.5
 20
38.00000000000011
 30
0.0
 11
62.5
 21
24.00000000000011
 31
0.0
  0
ARC
  5
155A
330
1F
100
AcDbEntity
  8
RightOpening
100
AcDbCircle
 10
71.5
 20
24.00000000000011
 30
0.0
 40
9.0
100
AcDbArc
 50
180.0
 51
270.0
  0
LINE
  5
155B
330
1F
100
AcDbEntity
  8
RightOpening
100
AcDbLine
 10
71.5
 20
15.00000000000011
 30
0.0
 11
128.5
 21
15.00000000000011
 31
0.0
  0
ARC
  5
155C
330
1F
100
AcDbEntity
  8
RightOpening
100
AcDbCircle
 10
128.5
 20
24.00000000000011
 30
0.0
 40
9.0
100
AcDbArc
 50
270.0
 51
0.0
  0
LINE
  5
155D
330
1F
100
AcDbEntity
  8
RightOpening
100
AcDbLine
 10
137.5
 20
38.00000000000011
 30
0.0
 11
137.5
 21
24.00000000000011
 31
0.0
  0
ARC
  5
155E
330
1F
100
AcDbEntity
  8
RightOpening
100
AcDbCircle
 10
139.5
 20
38.00000000000011
 30
0.0
 40
2.000000000000001
100
AcDbArc
 50
90.0
 51
180.0
  0
LINE
  5
155F
330
1F
100
AcDbEntity
  8
RightOpening
100
AcDbLine
 10
139.5
 20
40.00000000000011
 30
0.0
 11
195.0000000000001
 21
40.00000000000011
 31
0.0
  0
ARC
  5
1560
330
1F
100
AcDbEntity
  8
RightOpening
100
AcDbCircle
 10
195.0000000000001
 20
49.00000000000011
 30
0.0
 40
9.0
100
AcDbArc
 50
270.0
 51
0.0
  0
LINE
  5
1561
330
1F
100
AcDbEntity
  8
RightOpening
100
AcDbLine
 10
204.0000000000001
 20
99.50000000000009
 30
0.0
 11
204.0000000000001
 21
49.00000000000011
 31
0.0
  0
ARC
  5
1562
330
1F
100
AcDbEntity
  8
RightOpening
100
AcDbCircle
 10
199.0000000000001
 20
99.50000000000009
 30
0.0
 40
5.000000000000002
100
AcDbArc
 50
0.0
 51
90.0
  0
LINE
  5
1563
330
1F
100
AcDbEntity
  8
RightOpening
100
AcDbLine
 10
24.0
 20
40.00000000000011
 30
0.0
 11
60.5
 21
40.00000000000011
 31
0.0
  0
CIRCLE
  5
1567
330
1F
100
AcDbEntity
  8
RightOpening
100
AcDbCircle
 10
138.0
 20
119.7534143033949
 30
0.0
 40
3.5
  0
CIRCLE
  5
1568
330
1F
100
AcDbEntity
  8
RightOpening
100
AcDbCircle
 10
157.0000000000001
 20
119.7534143033949
 30
0.0
 40
3.5
  0
CIRCLE
  5
1569
330
1F
100
AcDbEntity
  8
RightOpening
100
AcDbCircle
 10
176.0000000000001
 20
119.7534143033949
 30
0.0
 40
3.0
  0
TEXT
  5
1571
330
1F
100
AcDbEntity
  8
0
100
AcDbText
 10
20.35301796399904
 20
220.3767616700641
 30
0.0
 40
5.0
  1
RightOpening -- key opening in top with right interface
100
AcDbText
  0
CIRCLE
  5
158B
330
1F
100
AcDbEntity
  8
LeftOpeningV1
100
AcDbCircle
 10
43.0
 20
119.7534143033949
 30
0.0
 40
3.0
  0
CIRCLE
  5
158C
330
1F
100
AcDbEntity
  8
LeftOpeningV1
100
AcDbCircle
 10
62.0
 20
119.7534143033949
 30
0.0
 40
3.5
  0
CIRCLE
  5
158D
330
1F
100
AcDbEntity
  8
LeftOpeningV1
100
AcDbCircle
 10
81.0
 20
119.7534143033949
 30
0.0
 40
3.5
  0
TEXT
  5
158E
330
1F
100
AcDbEntity
  8
0
100
AcDbText
 10
20.35301796399904
 20
257.8767616700641
 30
0.0
 40
5.0
  1
LeftOpeningV1 -- original left interface openings
100
AcDbText
  0
TEXT
  5
158F
330
1F
100
AcDbEntity
  8
0
100
AcDbText
 10
20.35301796399904
 20
250.3767616700641
 30
0.0
 40
5.0
  1
RightTopV1 -- original top cover outline with right interface
100
AcDbText
  0
CIRCLE
  5
159F
330
1F
100
AcDbEntity
  8
RightOpeningV1
100
AcDbCircle
 10
176.0000000000001
 20
119.7534143033949
 30
0.0
 40
3.0
  0
CIRCLE
  5
15A0
330
1F
100
AcDbEntity
  8
RightOpeningV1
100
AcDbCircle
 10
157.0000000000001
 20
119.7534143033949
 30
0.0
 40
3.5
  0
CIRCLE
  5
15A1
330
1F
100
AcDbEntity
  8
RightOpeningV1
100
AcDbCircle
 10
138.0
 20
119.7534143033949
 30
0.0
 40
3.5
  0
TEXT
  5
15A7
330
1F
100
AcDbEntity
  8
0
100
AcDbText
 10
20.35301796399904
 20
265.3767616700641
 30
0.0
 40
5.0
  1
TopV1 -- original top cover outline
100
AcDbText
  0
LINE
  5
15AB
330
1F
100
AcDbEntity
  8
TopV1
100
AcDbLine
 10
7.0
 20
139.5000000000001
 30
0.0
 11
212.0000000000001
 21
139.5000000000001
 31
0.0
  0
ARC
  5
15AC
330
1F
100
AcDbEntity
  8
TopV1
100
AcDbCircle
 10
7.0
 20
132.5000000000001
 30
0.0
 40
6.999999999999999
100
AcDbArc
 50
90.0
 51
180.0
  0
ARC
  5
15AD
330
1F
100
AcDbEntity
  8
TopV1
100
AcDbCircle
 10
212.0000000000001
 20
132.5000000000001
 30
0.0
 40
6.999999999999999
100
AcDbArc
 50
0.0
 51
90.0
  0
LINE
  5
15AE
330
1F
100
AcDbEntity
  8
TopV1
100
AcDbLine
 10
0.0
 20
132.5000000000001
 30
0.0
 11
0.0
 21
112.4000000000001
 31
0.0
  0
LINE
  5
15AF
330
1F
100
AcDbEntity
  8
TopV1
100
AcDbLine
 10
219.0000000000001
 20
132.5000000000001
 30
0.0
 11
219.0000000000001
 21
112.4000000000001
 31
0.0
  0
LINE
  5
15B0
330
1F
100
AcDbEntity
  8
TopV1
100
AcDbLine
 10
0.0
 20
112.4000000000001
 30
0.0
 11
219.0
 21
112.4000000000001
 31
0.0
  0
LINE
  5
15DD
330
1F
100
AcDbEntity
  8
0
100
AcDbLine
 10
254.454823590587
 20
304.3353823451878
 30
0.0
 11
254.454823590587
 21
178.8353823451877
 31
0.0
  0
ARC
  5
15DE
330
1F
100
AcDbEntity
  8
0
100
AcDbCircle
 10
264.954823590587
 20
304.3353823451878
 30
0.0
 40
10.5
100
AcDbArc
 50
90.0
 51
180.0
  0
LINE
  5
15DF
330
1F
100
AcDbEntity
  8
0
100
AcDbLine
 10
264.954823590587
 20
314.8353823451878
 30
0.0
 11
469.9548235905871
 21
314.8353823451878
 31
0.0
  0
ARC
  5
15E0
330
1F
100
AcDbEntity
  8
0
100
AcDbCircle
 10
469.9548235905871
 20
304.3353823451878
 30
0.0
 40
10.5
100
AcDbArc
 50
0.0
 51
90.0
  0
LINE
  5
15E1
330
1F
100
AcDbEntity
  8
0
100
AcDbLine
 10
480.4548235905871
 20
304.3353823451878
 30
0.0
 11
480.4548235905869
 21
178.8353823451878
 31
0.0
  0
ARC
  5
15E2
330
1F
100
AcDbEntity
  8
0
100
AcDbCircle
 10
469.9548235905869
 20
178.8353823451878
 30
0.0
 40
10.5
100
AcDbArc
 50
270.0
 51
0.0
  0
LINE
  5
15E3
330
1F
100
AcDbEntity
  8
0
100
AcDbLine
 10
264.954823590587
 20
168.3353823451877
 30
0.0
 11
469.9548235905869
 21
168.3353823451878
 31
0.0
  0
ARC
  5
15E4
330
1F
100
AcDbEntity
  8
0
100
AcDbCircle
 10
264.954823590587
 20
178.8353823451877
 30
0.0
 40
10.5
100
AcDbArc
 50
180.0
 51
270.0
  0
LINE
  5
15F1
330
1F
100
AcDbEntity
  8
Outline
100
AcDbLine
 10
10.5
 20
146.5000000000001
 30
0.0
 11
215.5000000000001
 21
146.5000000000001
 31
0.0
  0
ARC
  5
15F2
330
1F
100
AcDbEntity
  8
Outline
100
AcDbCircle
 10
10.5
 20
136.0000000000001
 30
0.0
 40
10.5
100
AcDbArc
 50
90.0
 51
180.0
  0
LINE
  5
15F3
330
1F
100
AcDbEntity
  8
Outline
100
AcDbLine
 10
0.0
 20
136.0000000000001
 30
0.0
 11
0.0
 21
10.5
 31
0.0
  0
ARC
  5
15F4
330
1F
100
AcDbEntity
  8
Outline
100
AcDbCircle
 10
10.5
 20
10.5
 30
0.0
 40
10.5
100
AcDbArc
 50
180.0
 51
270.0
  0
LINE
  5
15F5
330
1F
100
AcDbEntity
  8
Outline
100
AcDbLine
 10
10.5
 20
0.0
 30
0.0
 11
215.4999999999999
 21
0.0000000000001137
 31
0.0
  0
ARC
  5
15F6
330
1F
100
AcDbEntity
  8
Outline
100
AcDbCircle
 10
215.4999999999999
 20
10.50000000000011
 30
0.0
 40
10.5
100
AcDbArc
 50
270.0
 51
0.0
  0
LINE
  5
15F7
330
1F
100
AcDbEntity
  8
Outline
100
AcDbLine
 10
226.0000000000001
 20
136.0000000000001
 30
0.0
 11
225.9999999999999
 21
10.50000000000011
 31
0.0
  0
ARC
  5
15F8
330
1F
100
AcDbEntity
  8
Outline
100
AcDbCircle
 10
215.5000000000001
 20
136.0000000000001
 30
0.0
 40
10.5
100
AcDbArc
 50
0.0
 51
90.0
  0
LWPOLYLINE
  5
1617
330
1F
100
AcDbEntity
  8
0
100
AcDbPolyline
 90
        2
 70
     1
 43
0.2499999999999999
 10
528.0616640317173
 20
280.9827899816129
 42
1.0
 10
529.2116640317174
 20
280.9827899816129
 42
1.0
  0
LWPOLYLINE
  5
1618
330
1F
100
AcDbEntity
  8
0
100
AcDbPolyline
 90
        2
 70
     1
 43
0.2499999999999999
 10
528.0616640317173
 20
283.5227899816129
 42
1.0
 10
529.2116640317174
 20
283.5227899816129
 42
1.0
  0
LWPOLYLINE
  5
1619
330
1F
100
AcDbEntity
  8
0
100
AcDbPolyline
 90
        2
 70
     1
 43
0.2499999999999999
 10
528.0616640317173
 20
286.0627899816129
 42
1.0
 10
529.2116640317174
 20
286.0627899816129
 42
1.0
  0
LWPOLYLINE
  5
161A
330
1F
100
AcDbEntity
  8
0
100
AcDbPolyline
 90
        2
 70
     1
 43
0.2499999999999999
 10
528.0616640317173
 20
288.6027899816129
 42
1.0
 10
529.2116640317174
 20
288.6027899816129
 42
1.0
  0
LWPOLYLINE
  5
161B
330
1F
100
AcDbEntity
  8
0
100
AcDbPolyline
 90
        2
 70
     1
 43
0.2499999999999999
 10
528.0616640317173
 20
291.142789981613
 42
1.0
 10
529.2116640317174
 20
291.142789981613
 42
1.0
  0
LWPOLYLINE
  5
161C
330
1F
100
AcDbEntity
  8
0
100
AcDbPolyline
 90
        2
 70
     1
 43
0.2499999999999999
 10
528.0616640317173
 20
293.682789981613
 42
1.0
 10
529.2116640317174
 20
293.682789981613
 42
1.0
  0
LWPOLYLINE
  5
161D
330
1F
100
AcDbEntity
  8
0
100
AcDbPolyline
 90
        2
 70
     1
 43
0.2499999999999999
 10
528.0616640317173
 20
296.222789981613
 42
1.0
 10
529.2116640317174
 20
296.222789981613
 42
1.0
  0
LWPOLYLINE
  5
161E
330
1F
100
AcDbEntity
  8
0
100
AcDbPolyline
 90
        2
 70
     1
 43
0.2499999999999999
 10
528.0616640317173
 20
298.762789981613
 42
1.0
 10
529.2116640317174
 20
298.762789981613
 42
1.0
  0
LWPOLYLINE
  5
161F
330
1F
100
AcDbEntity
  8
0
100
AcDbPolyline
 90
        2
 70
     1
 43
0.2499999999999999
 10
528.0616640317173
 20
301.302789981613
 42
1.0
 10
529.2116640317174
 20
301.302789981613
 42
1.0
  0
LWPOLYLINE
  5
1620
330
1F
100
AcDbEntity
  8
0
100
AcDbPolyline
 90
        2
 70
     1
 43
0.2499999999999999
 10
528.0616640317173
 20
303.8427899816131
 42
1.0
 10
529.2116640317174
 20
303.8427899816131
 42
1.0
  0
LWPOLYLINE
  5
1621
330
1F
100
AcDbEntity
  8
0
100
AcDbPolyline
 90
        2
 70
     1
 43
0.2499999999999999
 10
528.0616640317173
 20
306.3827899816131
 42
1.0
 10
529.2116640317174
 20
306.3827899816131
 42
1.0
  0
LWPOLYLINE
  5
1622
330
1F
100
AcDbEntity
  8
0
100
AcDbPolyline
 90
        2
 70
     1
 43
0.2499999999999999
 10
528.0616640317173
 20
308.9227899816131
 42
1.0
 10
529.2116640317174
 20
308.9227899816131
 42
1.0
  0
LWPOLYLINE
  5
1623
330
1F
100
AcDbEntity
  8
0
100
AcDbPolyline
 90
        2
 70
     1
 43
0.2499999999999999
 10
543.5216640317174
 20
308.9227899816131
 42
1.0
 10
544.6716640317175
 20
308.9227899816131
 42
1.0
  0
LWPOLYLINE
  5
1624
330
1F
100
AcDbEntity
  8
0
100
AcDbPolyline
 90
        2
 70
     1
 43
0.2499999999999999
 10
543.5216640317174
 20
306.3827899816131
 42
1.0
 10
544.6716640317175
 20
306.3827899816131
 42
1.0
  0
LWPOLYLINE
  5
1625
330
1F
100
AcDbEntity
  8
0
100
AcDbPolyline
 90
        2
 70
     1
 43
0.2499999999999999
 10
543.5216640317174
 20
303.8427899816131
 42
1.0
 10
544.6716640317175
 20
303.8427899816131
 42
1.0
  0
LWPOLYLINE
  5
1626
330
1F
100
AcDbEntity
  8
0
100
AcDbPolyline
 90
        2
 70
     1
 43
0.2499999999999999
 10
543.5216640317174
 20
301.302789981613
 42
1.0
 10
544.6716640317175
 20
301.302789981613
 42
1.0
  0
LWPOLYLINE
  5
1627
330
1F
100
AcDbEntity
  8
0
100
AcDbPolyline
 90
        2
 70
     1
 43
0.2499999999999999
 10
543.5216640317174
 20
298.762789981613
 42
1.0
 10
544.6716640317175
 20
298.762789981613
 42
1.0
  0
LWPOLYLINE
  5
1628
330
1F
100
AcDbEntity
  8
0
100
AcDbPolyline
 90
        2
 70
     1
 43
0.2499999999999999
 10
543.5216640317174
 20
296.222789981613
 42
1.0
 10
544.6716640317175
 20
296.222789981613
 42
1.0
  0
LWPOLYLINE
  5
1629
330
1F
100
AcDbEntity
  8
0
100
AcDbPolyline
 90
        2
 70
     1
 43
0.2499999999999999
 10
543.5216640317174
 20
293.682789981613
 42
1.0
 10
544.6716640317175
 20
293.682789981613
 42
1.0
  0
LWPOLYLINE
  5
162A
330
1F
100
AcDbEntity
  8
0
100
AcDbPolyline
 90
        2
 70
     1
 43
0.2499999999999999
 10
543.5216640317174
 20
291.142789981613
 42
1.0
 10
544.6716640317175
 20
291.142789981613
 42
1.0
  0
LWPOLYLINE
  5
162B
330
1F
100
AcDbEntity
  8
0
100
AcDbPolyline
 90
        2
 70
     1
 43
0.2499999999999999
 10
543.5216640317174
 20
288.6027899816129
 42
1.0
 10
544.6716640317175
 20
288.6027899816129
 42
1.0
  0
LWPOLYLINE
  5
162C
330
1F
100
AcDbEntity
  8
0
100
AcDbPolyline
 90
        2
 70
     1
 43
0.2499999999999999
 10
543.5216640317174
 20
286.0627899816129
 42
1.0
 10
544.6716640317175
 20
286.0627899816129
 42
1.0
  0
LWPOLYLINE
  5
162D
330
1F
100
AcDbEntity
  8
0
100
AcDbPolyline
 90
        2
 70
     1
 43
0.2499999999999999
 10
543.5216640317174
 20
283.5227899816129
 42
1.0
 10
544.6716640317175
 20
283.5227899816129
 42
1.0
  0
LWPOLYLINE
  5
162E
330
1F
100
AcDbEntity
  8
0
100
AcDbPolyline
 90
        2
 70
     1
 43
0.2499999999999999
 10
543.5216640317174
 20
280.9827899816129
 42
1.0
 10
544.6716640317175
 20
280.9827899816129
 42
1.0
  0
LWPOLYLINE
  5
1634
330
1F
100
AcDbEntity
  8
0
100
AcDbPolyline
 90
        2
 70
     1
 43
0.2499999999999999
 10
530.6016640317173
 20
280.9827899816129
 42
1.0
 10
531.7516640317174
 20
280.9827899816129
 42
1.0
  0
LWPOLYLINE
  5
1635
330
1F
100
AcDbEntity
  8
0
100
AcDbPolyline
 90
        2
 70
     1
 43
0.2499999999999999
 10
533.1416640317173
 20
280.9827899816129
 42
1.0
 10
534.2916640317173
 20
280.9827899816129
 42
1.0
  0
LWPOLYLINE
  5
1636
330
1F
100
AcDbEntity
  8
0
100
AcDbPolyline
 90
        2
 70
     1
 43
0.2499999999999999
 10
535.6816640317172
 20
280.9827899816129
 42
1.0
 10
536.8316640317173
 20
280.9827899816129
 42
1.0
  0
LWPOLYLINE
  5
1637
330
1F
100
AcDbEntity
  8
0
100
AcDbPolyline
 90
        2
 70
     1
 43
0.2499999999999999
 10
538.2216640317172
 20
280.9827899816129
 42
1.0
 10
539.3716640317173
 20
280.9827899816129
 42
1.0
  0
LWPOLYLINE
  5
1638
330
1F
100
AcDbEntity
  8
0
100
AcDbPolyline
 90
        2
 70
     1
 43
0.2499999999999999
 10
540.7616640317171
 20
280.9827899816129
 42
1.0
 10
541.9116640317172
 20
280.9827899816129
 42
1.0
  0
LWPOLYLINE
  5
1639
330
1F
100
AcDbEntity
  8
0
100
AcDbPolyline
 90
        2
 70
     1
 43
0.2499999999999999
 10
530.6016640317173
 20
298.762789981613
 42
1.0
 10
531.7516640317174
 20
298.762789981613
 42
1.0
  0
LWPOLYLINE
  5
163A
330
1F
100
AcDbEntity
  8
0
100
AcDbPolyline
 90
        2
 70
     1
 43
0.2499999999999999
 10
540.7616640317171
 20
298.762789981613
 42
1.0
 10
541.9116640317172
 20
298.762789981613
 42
1.0
  0
TEXT
  5
163B
330
1F
100
AcDbEntity
  8
0
100
AcDbText
 10
518.2204140317175
 20
305.7577899816131
 30
0.0
 40
1.25
  1
Column 1
 72
     2
 11
525.6866640317174
 21
306.3827899816131
 31
0.0
100
AcDbText
 73
     2
  0
TEXT
  5
163E
330
1F
100
AcDbEntity
  8
0
100
AcDbText
 10
518.2204140317175
 20
303.2177899816131
 30
0.0
 40
1.25
  1
Column 2
 72
     2
 11
525.6866640317174
 21
303.8427899816131
 31
0.0
100
AcDbText
 73
     2
  0
TEXT
  5
163F
330
1F
100
AcDbEntity
  8
0
100
AcDbText
 10
518.2204140317175
 20
300.677789981613
 30
0.0
 40
1.25
  1
Column 3
 72
     2
 11
525.6866640317174
 21
301.302789981613
 31
0.0
100
AcDbText
 73
     2
  0
TEXT
  5
1640
330
1F
100
AcDbEntity
  8
0
100
AcDbText
 10
518.2204140317175
 20
298.137789981613
 30
0.0
 40
1.25
  1
Column 4
 72
     2
 11
525.6866640317174
 21
298.762789981613
 31
0.0
100
AcDbText
 73
     2
  0
TEXT
  5
1641
330
1F
100
AcDbEntity
  8
0
100
AcDbText
 10
518.2204140317175
 20
295.597789981613
 30
0.0
 40
1.25
  1
Column 5
 72
     2
 11
525.6866640317174
 21
296.222789981613
 31
0.0
100
AcDbText
 73
     2
  0
TEXT
  5
1642
330
1F
100
AcDbEntity
  8
0
100
AcDbText
 10
518.2204140317175
 20
293.057789981613
 30
0.0
 40
1.25
  1
Column 6
 72
     2
 11
525.6866640317174
 21
293.682789981613
 31
0.0
100
AcDbText
 73
     2
  0
TEXT
  5
1643
330
1F
100
AcDbEntity
  8
0
100
AcDbText
 10
518.2204140317175
 20
290.517789981613
 30
0.0
 40
1.25
  1
Column 7
 72
     2
 11
525.6866640317174
 21
291.142789981613
 31
0.0
100
AcDbText
 73
     2
  0
TEXT
  5
1644
330
1F
100
AcDbEntity
  8
0
100
AcDbText
 10
518.2204140317175
 20
287.9777899816129
 30
0.0
 40
1.25
  1
Column 8
 72
     2
 11
525.6866640317174
 21
288.6027899816129
 31
0.0
100
AcDbText
 73
     2
  0
TEXT
  5
1645
330
1F
100
AcDbEntity
  8
0
100
AcDbText
 10
518.2204140317175
 20
285.4377899816129
 30
0.0
 40
1.25
  1
Column 9
 72
     2
 11
525.6866640317174
 21
286.0627899816129
 31
0.0
100
AcDbText
 73
     2
  0
TEXT
  5
1646
330
1F
100
AcDbEntity
  8
0
100
AcDbText
 10
517.2504140317175
 20
282.8977899816129
 30
0.0
 40
1.25
  1
Column 10
 72
     2
 11
525.6866640317174
 21
283.5227899816129
 31
0.0
100
AcDbText
 73
     2
  0
TEXT
  5
1647
330
1F
100
AcDbEntity
  8
0
100
AcDbText
 10
522.2929140317175
 20
280.3577899816129
 30
0.0
 40
1.25
  1
LED
 72
     2
 11
525.6866640317174
 21
280.9827899816129
 31
0.0
100
AcDbText
 73
     2
  0
TEXT
  5
1648
330
1F
100
AcDbEntity
  8
0
100
AcDbText
 10
546.6866640317174
 20
305.7577899816131
 30
0.0
 40
1.25
  1
Option Row
 11
546.6866640317174
 21
306.3827899816131
 31
0.0
100
AcDbText
 73
     2
  0
TEXT
  5
1649
330
1F
100
AcDbEntity
  8
0
100
AcDbText
 10
546.6866640317174
 20
303.2177899816131
 30
0.0
 40
1.25
  1
Row 4 (Vowels)
 11
546.6866640317174
 21
303.8427899816131
 31
0.0
100
AcDbText
 73
     2
  0
TEXT
  5
164A
330
1F
100
AcDbEntity
  8
0
100
AcDbText
 10
546.6866640317174
 20
300.677789981613
 30
0.0
 40
1.25
  1
Row 3 (Lower)
 11
546.6866640317174
 21
301.302789981613
 31
0.0
100
AcDbText
 73
     2
  0
TEXT
  5
164B
330
1F
100
AcDbEntity
  8
0
100
AcDbText
 10
546.6866640317174
 20
298.137789981613
 30
0.0
 40
1.25
  1
Row 2 (Middle)
 11
546.6866640317174
 21
298.762789981613
 31
0.0
100
AcDbText
 73
     2
  0
TEXT
  5
164C
330
1F
100
AcDbEntity
  8
0
100
AcDbText
 10
546.6866640317174
 20
295.597789981613
 30
0.0
 40
1.25
  1
Row 1 (Upper)
 11
546.6866640317174
 21
296.222789981613
 31
0.0
100
AcDbText
 73
     2
  0
TEXT
  5
164D
330
1F
100
AcDbEntity
  8
0
100
AcDbText
 10
519.8679140317174
 20
308.2977899816131
 30
0.0
 40
1.25
  1
Ground
 72
     2
 11
525.6866640317174
 21
308.9227899816131
 31
0.0
100
AcDbText
 73
     2
  0
LWPOLYLINE
  5
164E
330
1F
100
AcDbEntity
  8
0
100
AcDbPolyline
 90
        8
 70
     1
 43
0.1
 10
545.3666640317174
 20
279.7127899816129
 10
545.3666640317174
 20
310.1927899816131
 10
540.3666640317174
 20
310.1927899816131
 10
540.3666640317174
 20
310.8927899816129
 10
532.3666640317174
 20
310.8927899816129
 10
532.3666640317174
 20
310.1927899816131
 10
527.3666640317174
 20
310.1927899816131
 10
527.3666640317174
 20
279.7127899816129
  0
LINE
  5
167A
330
1F
100
AcDbEntity
  8
0
100
AcDbLine
 10
512.9080524207604
 20
312.9095204195208
 30
0.0
 11
512.9080524207604
 21
322.8748855255307
 31
0.0
  0
LINE
  5
167C
330
1F
100
AcDbEntity
  8
0
100
AcDbLine
 10
512.9080524207604
 20
277.9095204195208
 30
0.0
 11
512.9080524207604
 21
268.3554737161087
 31
0.0
  0
LINE
  5
167D
330
1F
100
AcDbEntity
  8
0
100
AcDbLine
 10
562.9080524207604
 20
277.9095204195208
 30
0.0
 11
562.9080524207604
 21
268.8337141705774
 31
0.0
  0
LINE
  5
167F
330
1F
100
AcDbEntity
  8
0
100
AcDbLine
 10
562.9080524207604
 20
312.9095204195208
 30
0.0
 11
562.9080524207604
 21
321.9184046165935
 31
0.0
  0
LINE
  5
1682
330
1F
100
AcDbEntity
  8
0
100
AcDbLine
 10
512.9080524207604
 20
312.9095204195208
 30
0.0
 11
504.7779646947939
 21
312.9095204195208
 31
0.0
  0
LINE
  5
1683
330
1F
100
AcDbEntity
  8
0
100
AcDbLine
 10
562.9080524207604
 20
312.9095204195208
 30
0.0
 11
568.6015405944335
 21
312.9095204195208
 31
0.0
  0
LINE
  5
1684
330
1F
100
AcDbEntity
  8
0
100
AcDbLine
 10
512.9080524207604
 20
277.9095204195208
 30
0.0
 11
507.4082871943713
 21
277.9095204195208
 31
0.0
  0
LINE
  5
1685
330
1F
100
AcDbEntity
  8
0
100
AcDbLine
 10
562.9080524207604
 20
277.9095204195208
 30
0.0
 11
570.1558220714564
 21
277.9095204195208
 31
0.0
  0
TEXT
  5
168E
330
1F
100
AcDbEntity
  8
0
100
AcDbText
 10
300.5276456942091
 20
128.911172205094
 30
0.0
 40
6.5
  1
Copyright  2017, Mike Ady
100
AcDbText
  0
TEXT
  5
168F
330
1F
100
AcDbEntity
  8
0
100
AcDbText
 10
300.5276456942091
 20
118.911172205094
 30
0.0
 40
6.5
  1
This file is part of the open source Stenokey project.
100
AcDbText
  0
TEXT
  5
1690
330
1F
100
AcDbEntity
  8
0
100
AcDbText
 10
300.5276456942091
 20
108.911172205094
 30
0.0
 40
6.5
  1
This file is licensed under the Creative Commons Attribution-ShareAlike license.
100
AcDbText
  0
ENDSEC
  0
SECTION
  2
OBJECTS
  0
DICTIONARY
  5
C
330
0
100
AcDbDictionary
281
     1
  3
ACAD_COLOR
350
73
  3
ACAD_DETAILVIEWSTYLE
350
FB
  3
ACAD_GROUP
350
D
  3
ACAD_IMAGE_VARS
350
DC
  3
ACAD_LAYOUT
350
1A
  3
ACAD_MATERIAL
350
72
  3
ACAD_MLEADERSTYLE
350
B5
  3
ACAD_MLINESTYLE
350
17
  3
ACAD_PLOTSETTINGS
350
19
  3
ACAD_PLOTSTYLENAME
350
E
  3
ACAD_SCALELIST
350
B6
  3
ACAD_SECTIONVIEWSTYLE
350
FC
  3
ACAD_TABLESTYLE
350
86
  3
ACAD_VISUALSTYLE
350
99
  3
ACDB_RECOMPOSE_DATA
350
169C
  3
AcDbVariableDictionary
350
66
  3
APPDATA
350
E1
  3
DimOffsetDictionary
350
F0
  0
SUN
  5
EE
330
94
100
AcDbSun
 90
        1
290
     0
 63
     7
421
 16777215
 40
1.0
291
     1
 91
  2455826
 92
 54000000
292
     0
 70
     2
 71
   256
280
     1
  0
DICTIONARY
  5
A0F
330
2
100
AcDbDictionary
280
     1
281
     1
  3
ACAD_LAYERSTATES
360
A10
  3
ACLYDICTIONARY
360
15B6
  0
DICTIONARY
  5
73
102
{ACAD_REACTORS
330
C
102
}
330
C
100
AcDbDictionary
281
     1
  0
DICTIONARY
  5
FB
102
{ACAD_REACTORS
330
C
102
}
330
C
100
AcDbDictionary
281
     1
  0
DICTIONARY
  5
D
102
{ACAD_REACTORS
330
C
102
}
330
C
100
AcDbDictionary
281
     1
  0
RASTERVARIABLES
  5
DC
102
{ACAD_REACTORS
330
C
102
}
330
C
100
AcDbRasterVariables
 90
        0
 70
     1
 71
     1
 72
     5
  0
DICTIONARY
  5
1A
102
{ACAD_REACTORS
330
C
102
}
330
C
100
AcDbDictionary
281
     1
  3
Model
350
22
  3
Sheet1
350
59
  3
Sheet2
350
5E
  0
DICTIONARY
  5
72
102
{ACAD_REACTORS
330
C
102
}
330
C
100
AcDbDictionary
281
     1
  3
ByBlock
350
15DC
  3
ByLayer
350
96
  3
Global
350
98
  0
DICTIONARY
  5
B5
102
{ACAD_REACTORS
330
C
102
}
330
C
100
AcDbDictionary
281
     1
  3
Standard
350
ED
  0
DICTIONARY
  5
17
102
{ACAD_REACTORS
330
C
102
}
330
C
100
AcDbDictionary
281
     1
  3
Standard
350
18
  0
DICTIONARY
  5
19
102
{ACAD_REACTORS
330
C
102
}
330
C
100
AcDbDictionary
281
     1
  0
ACDBDICTIONARYWDFLT
  5
E
102
{ACAD_REACTORS
330
C
102
}
330
C
100
AcDbDictionary
281
     1
  3
Normal
350
F
100
AcDbDictionaryWithDefault
340
F
  0
DICTIONARY
  5
B6
102
{ACAD_REACTORS
330
C
102
}
330
C
100
AcDbDictionary
281
     1
  3
A0
350
B7
  3
A1
350
B8
  3
A2
350
B9
  3
A3
350
BA
  3
A4
350
BB
  3
A5
350
BC
  3
A6
350
BD
  3
A7
350
BE
  3
A8
350
BF
  3
A9
350
C0
  3
B0
350
C1
  3
B1
350
C2
  3
B2
350
C3
  3
B3
350
C4
  3
B4
350
C5
  3
B5
350
C6
  3
B6
350
C7
  3
B7
350
C8
  3
B8
350
C9
  3
B9
350
CA
  3
C0
350
CB
  3
C1
350
CC
  3
C2
350
CD
  3
C3
350
CE
  3
C4
350
CF
  3
C5
350
D0
  3
C6
350
D1
  3
C7
350
D2
  3
C8
350
D3
  3
C9
350
D4
  3
D0
350
D5
  3
D1
350
D6
  3
D2
350
D7
  0
DICTIONARY
  5
FC
102
{ACAD_REACTORS
330
C
102
}
330
C
100
AcDbDictionary
281
     1
  0
DICTIONARY
  5
86
102
{ACAD_REACTORS
330
C
102
}
330
C
100
AcDbDictionary
281
     1
  3
Standard
350
87
  0
DICTIONARY
  5
99
102
{ACAD_REACTORS
330
C
102
}
330
C
100
AcDbDictionary
281
     1
  3
2dWireframe
350
9F
  3
3D Hidden
350
A1
  3
3dWireframe
350
A0
  3
Basic
350
9E
  3
Brighten
350
A5
  3
ColorChange
350
A9
  3
Conceptual
350
A2
  3
Dim
350
A4
  3
EdgeColorOff
350
E7
  3
Facepattern
350
A8
  3
Flat
350
9A
  3
FlatWithEdges
350
9B
  3
Gouraud
350
9C
  3
GouraudWithEdges
350
9D
  3
Hidden
350
E4
  3
JitterOff
350
E5
  3
Linepattern
350
A7
  3
OverhangOff
350
E6
  3
Realistic
350
A3
  3
Shaded
350
EC
  3
Shaded with edges
350
EB
  3
Shades of Gray
350
E8
  3
Sketchy
350
E9
  3
Thicken
350
A6
  3
Wireframe
350
E3
  3
X-Ray
350
EA
  0
XRECORD
  5
169C
102
{ACAD_REACTORS
330
C
102
}
330
C
100
AcDbXrecord
280
     1
 90
        1
330
87
  0
DICTIONARY
  5
66
102
{ACAD_REACTORS
330
C
102
}
330
C
100
AcDbDictionary
281
     1
  3
CANNOSCALE
350
D8
  3
CMLEADERSTYLE
350
FA
  3
CTABLESTYLE
350
89
  3
DIMASSOC
350
67
  3
HIDETEXT
350
6B
  3
HPTRANSPARENCY
350
F2
  3
LIGHTSINBLOCKS
350
DF
  3
XCLIPFRAME
350
E0
  0
DICTIONARY
  5
E1
102
{ACAD_REACTORS
330
C
102
}
330
C
100
AcDbDictionary
281
     1
  0
DICTIONARY
  5
F0
102
{ACAD_REACTORS
330
C
102
}
330
C
100
AcDbDictionary
281
     1
  3
DIMRAILANGLE
350
1062
  3
DIMRAILFIRSTOFFSET
350
1060
  3
DIMRAILOFFSET
350
1061
  3
DIMRAILSENABLED
350
1063
  0
DICTIONARY
  5
A10
102
{ACAD_REACTORS
330
A0F
102
}
330
A0F
100
AcDbDictionary
281
     1
  0
DICTIONARY
  5
15B6
102
{ACAD_REACTORS
330
A0F
102
}
330
A0F
100
AcDbDictionary
281
     1
1001
ACAD
1000
<All
  0
LAYOUT
  5
22
102
{ACAD_REACTORS
330
1A
102
}
330
1A
100
AcDbPlotSettings
  1

  2
none_device
  4
ANSI_A_(8.50_x_11.00_Inches)
  6

 40
6.35
 41
19.05
 42
6.35
 43
19.05
 44
215.9
 45
279.4
 46
11.11250000000003
 47
0.0000000000000142
 48
0.0
 49
0.0
140
0.0
141
0.0
142
1.0
143
1.263157894736842
 70
 11444
 72
     0
 73
     1
 74
     1
  7
monochrome.ctb
 75
     0
 76
     0
 77
     2
 78
   300
147
0.7916666666666665
148
-702.8076765758875
149
-496.2830551296954
100
AcDbLayout
  1
Model
 70
     1
 71
     0
 10
0.0
 20
0.0
 11
12.0
 21
9.0
 12
0.0
 22
0.0
 32
0.0
 14
-40.0408928704905
 24
-20.29952443470029
 34
0.0
 15
620.4316456942089
 25
322.8748855255307
 35
0.0
146
0.0
 13
0.0
 23
0.0
 33
0.0
 16
1.0
 26
0.0
 36
0.0
 17
0.0
 27
1.0
 37
0.0
 76
     0
330
1F
331
94
  0
LAYOUT
  5
59
102
{ACAD_REACTORS
330
1A
102
}
330
1A
100
AcDbPlotSettings
  1

  2
None
  4

  6

 40
0.0
 41
0.0
 42
0.0
 43
0.0
 44
0.0
 45
0.0
 46
0.0
 47
0.0
 48
0.0
 49
0.0
140
0.0
141
0.0
142
1.0
143
1.0
 70
   688
 72
     0
 73
     0
 74
     5
  7

 75
    16
 76
     0
 77
     2
 78
   300
147
1.0
148
0.0
149
0.0
100
AcDbLayout
  1
Sheet1
 70
     1
 71
     1
 10
0.0
 20
0.0
 11
12.0
 21
9.0
 12
0.0
 22
0.0
 32
0.0
 14
0.0
 24
0.0
 34
0.0
 15
0.0
 25
0.0
 35
0.0
146
0.0
 13
0.0
 23
0.0
 33
0.0
 16
1.0
 26
0.0
 36
0.0
 17
0.0
 27
1.0
 37
0.0
 76
     0
330
58
  0
LAYOUT
  5
5E
102
{ACAD_REACTORS
330
1A
102
}
330
1A
100
AcDbPlotSettings
  1

  2
None
  4

  6

 40
0.0
 41
0.0
 42
0.0
 43
0.0
 44
0.0
 45
0.0
 46
0.0
 47
0.0
 48
0.0
 49
0.0
140
0.0
141
0.0
142
1.0
143
1.0
 70
   688
 72
     0
 73
     0
 74
     5
  7

 75
    16
 76
     0
 77
     2
 78
   300
147
1.0
148
0.0
149
0.0
100
AcDbLayout
  1
Sheet2
 70
     1
 71
     2
 10
0.0
 20
0.0
 11
12.0
 21
9.0
 12
0.0
 22
0.0
 32
0.0
 14
0.0
 24
0.0
 34
0.0
 15
0.0
 25
0.0
 35
0.0
146
0.0
 13
0.0
 23
0.0
 33
0.0
 16
1.0
 26
0.0
 36
0.0
 17
0.0
 27
1.0
 37
0.0
 76
     0
330
5D
  0
MATERIAL
  5
15DC
102
{ACAD_REACTORS
330
72
102
}
330
72
100
AcDbMaterial
  1
ByBlock
 72
     1
 94
      127
  0
MATERIAL
  5
96
102
{ACAD_REACTORS
330
72
102
}
330
72
100
AcDbMaterial
  1
ByLayer
 72
     1
 94
       63
  0
MATERIAL
  5
98
102
{ACAD_REACTORS
330
72
102
}
330
72
100
AcDbMaterial
  1
Global
 72
     1
 94
       63
  0
MLEADERSTYLE
  5
ED
102
{ACAD_REACTORS
330
B5
102
}
330
B5
100
AcDbMLeaderStyle
179
     2
170
     2
171
     1
172
     0
 90
        2
 40
0.0
 41
0.0
173
     1
 91
-1056964608
340
14
 92
       -2
290
     1
 42
0.09
291
     1
 43
0.36
  3
Standard
341
0
 44
0.18
300

342
11
174
     1
178
     6
175
     1
176
     0
 93
-1056964608
 45
0.18
292
     0
297
     0
 46
0.18
343
0
 94
-1056964608
 47
1.0
 49
1.0
140
1.0
293
     1
141
0.0
294
     1
177
     0
142
1.0
295
     0
296
     0
143
0.125
271
     0
272
     9
273
     9
  0
MLINESTYLE
  5
18
102
{ACAD_REACTORS
330
17
102
}
330
17
100
AcDbMlineStyle
  2
STANDARD
 70
     0
  3

 62
   256
 51
90.0
 52
90.0
 71
     2
 49
0.5
 62
   256
  6
BYLAYER
 49
-0.5
 62
   256
  6
BYLAYER
  0
ACDBPLACEHOLDER
  5
F
102
{ACAD_REACTORS
330
E
102
}
330
E
  0
SCALE
  5
B7
102
{ACAD_REACTORS
330
B6
102
}
330
B6
100
AcDbScale
 70
     0
300
1:1
140
1.0
141
1.0
290
     1
  0
SCALE
  5
B8
102
{ACAD_REACTORS
330
B6
102
}
330
B6
100
AcDbScale
 70
     0
300
1:2
140
1.0
141
2.0
290
     0
  0
SCALE
  5
B9
102
{ACAD_REACTORS
330
B6
102
}
330
B6
100
AcDbScale
 70
     0
300
1:4
140
1.0
141
4.0
290
     0
  0
SCALE
  5
BA
102
{ACAD_REACTORS
330
B6
102
}
330
B6
100
AcDbScale
 70
     0
300
1:5
140
1.0
141
5.0
290
     0
  0
SCALE
  5
BB
102
{ACAD_REACTORS
330
B6
102
}
330
B6
100
AcDbScale
 70
     0
300
1:8
140
1.0
141
8.0
290
     0
  0
SCALE
  5
BC
102
{ACAD_REACTORS
330
B6
102
}
330
B6
100
AcDbScale
 70
     0
300
1:10
140
1.0
141
10.0
290
     0
  0
SCALE
  5
BD
102
{ACAD_REACTORS
330
B6
102
}
330
B6
100
AcDbScale
 70
     0
300
1:16
140
1.0
141
16.0
290
     0
  0
SCALE
  5
BE
102
{ACAD_REACTORS
330
B6
102
}
330
B6
100
AcDbScale
 70
     0
300
1:20
140
1.0
141
20.0
290
     0
  0
SCALE
  5
BF
102
{ACAD_REACTORS
330
B6
102
}
330
B6
100
AcDbScale
 70
     0
300
1:30
140
1.0
141
30.0
290
     0
  0
SCALE
  5
C0
102
{ACAD_REACTORS
330
B6
102
}
330
B6
100
AcDbScale
 70
     0
300
1:40
140
1.0
141
40.0
290
     0
  0
SCALE
  5
C1
102
{ACAD_REACTORS
330
B6
102
}
330
B6
100
AcDbScale
 70
     0
300
1:50
140
1.0
141
50.0
290
     0
  0
SCALE
  5
C2
102
{ACAD_REACTORS
330
B6
102
}
330
B6
100
AcDbScale
 70
     0
300
1:100
140
1.0
141
100.0
290
     0
  0
SCALE
  5
C3
102
{ACAD_REACTORS
330
B6
102
}
330
B6
100
AcDbScale
 70
     0
300
2:1
140
2.0
141
1.0
290
     0
  0
SCALE
  5
C4
102
{ACAD_REACTORS
330
B6
102
}
330
B6
100
AcDbScale
 70
     0
300
4:1
140
4.0
141
1.0
290
     0
  0
SCALE
  5
C5
102
{ACAD_REACTORS
330
B6
102
}
330
B6
100
AcDbScale
 70
     0
300
8:1
140
8.0
141
1.0
290
     0
  0
SCALE
  5
C6
102
{ACAD_REACTORS
330
B6
102
}
330
B6
100
AcDbScale
 70
     0
300
10:1
140
10.0
141
1.0
290
     0
  0
SCALE
  5
C7
102
{ACAD_REACTORS
330
B6
102
}
330
B6
100
AcDbScale
 70
     0
300
100:1
140
100.0
141
1.0
290
     0
  0
SCALE
  5
C8
102
{ACAD_REACTORS
330
B6
102
}
330
B6
100
AcDbScale
 70
     0
300
1/128" = 1'-0"
140
0.0078125
141
12.0
290
     0
  0
SCALE
  5
C9
102
{ACAD_REACTORS
330
B6
102
}
330
B6
100
AcDbScale
 70
     0
300
1/64" = 1'-0"
140
0.015625
141
12.0
290
     0
  0
SCALE
  5
CA
102
{ACAD_REACTORS
330
B6
102
}
330
B6
100
AcDbScale
 70
     0
300
1/32" = 1'-0"
140
0.03125
141
12.0
290
     0
  0
SCALE
  5
CB
102
{ACAD_REACTORS
330
B6
102
}
330
B6
100
AcDbScale
 70
     0
300
1/16" = 1'-0"
140
0.0625
141
12.0
290
     0
  0
SCALE
  5
CC
102
{ACAD_REACTORS
330
B6
102
}
330
B6
100
AcDbScale
 70
     0
300
3/32" = 1'-0"
140
0.09375
141
12.0
290
     0
  0
SCALE
  5
CD
102
{ACAD_REACTORS
330
B6
102
}
330
B6
100
AcDbScale
 70
     0
300
1/8" = 1'-0"
140
0.125
141
12.0
290
     0
  0
SCALE
  5
CE
102
{ACAD_REACTORS
330
B6
102
}
330
B6
100
AcDbScale
 70
     0
300
3/16" = 1'-0"
140
0.1875
141
12.0
290
     0
  0
SCALE
  5
CF
102
{ACAD_REACTORS
330
B6
102
}
330
B6
100
AcDbScale
 70
     0
300
1/4" = 1'-0"
140
0.25
141
12.0
290
     0
  0
SCALE
  5
D0
102
{ACAD_REACTORS
330
B6
102
}
330
B6
100
AcDbScale
 70
     0
300
3/8" = 1'-0"
140
0.375
141
12.0
290
     0
  0
SCALE
  5
D1
102
{ACAD_REACTORS
330
B6
102
}
330
B6
100
AcDbScale
 70
     0
300
1/2" = 1'-0"
140
0.5
141
12.0
290
     0
  0
SCALE
  5
D2
102
{ACAD_REACTORS
330
B6
102
}
330
B6
100
AcDbScale
 70
     0
300
3/4" = 1'-0"
140
0.75
141
12.0
290
     0
  0
SCALE
  5
D3
102
{ACAD_REACTORS
330
B6
102
}
330
B6
100
AcDbScale
 70
     0
300
1" = 1'-0"
140
1.0
141
12.0
290
     0
  0
SCALE
  5
D4
102
{ACAD_REACTORS
330
B6
102
}
330
B6
100
AcDbScale
 70
     0
300
1-1/2" = 1'-0"
140
1.5
141
12.0
290
     0
  0
SCALE
  5
D5
102
{ACAD_REACTORS
330
B6
102
}
330
B6
100
AcDbScale
 70
     0
300
3" = 1'-0"
140
3.0
141
12.0
290
     0
  0
SCALE
  5
D6
102
{ACAD_REACTORS
330
B6
102
}
330
B6
100
AcDbScale
 70
     0
300
6" = 1'-0"
140
6.0
141
12.0
290
     0
  0
SCALE
  5
D7
102
{ACAD_REACTORS
330
B6
102
}
330
B6
100
AcDbScale
 70
     0
300
1'-0" = 1'-0"
140
12.0
141
12.0
290
     0
  0
TABLESTYLE
  5
87
102
{ACAD_REACTORS
330
86
102
}
102
{ACAD_XDICTIONARY
360
169A
102
}
330
86
100
AcDbTableStyle
  3
Standard
 70
     0
 71
     0
 40
0.06
 41
0.06
280
     0
281
     0
  7
Standard
140
0.18
170
     2
 62
     0
 63
   257
283
     0
 90
      512
 91
        0
  1

274
    -2
284
     1
 64
     0
275
    -2
285
     1
 65
     0
276
    -2
286
     1
 66
     0
277
    -2
287
     1
 67
     0
278
    -2
288
     1
 68
     0
279
    -2
289
     1
 69
     0
  7
Standard
140
0.25
170
     5
 62
     0
 63
   257
283
     0
 90
      512
 91
        0
  1

274
    -2
284
     1
 64
     0
275
    -2
285
     1
 65
     0
276
    -2
286
     1
 66
     0
277
    -2
287
     1
 67
     0
278
    -2
288
     1
 68
     0
279
    -2
289
     1
 69
     0
  7
Standard
140
0.18
170
     5
 62
     0
 63
   257
283
     0
 90
      512
 91
        0
  1

274
    -2
284
     1
 64
     0
275
    -2
285
     1
 65
     0
276
    -2
286
     1
 66
     0
277
    -2
287
     1
 67
     0
278
    -2
288
     1
 68
     0
279
    -2
289
     1
 69
     0
  0
VISUALSTYLE
  5
9F
102
{ACAD_REACTORS
330
99
102
}
330
99
100
AcDbVisualStyle
  2
2dWireframe
 70
     4
177
     2
291
     0
 71
     0
176
     1
 72
     2
176
     1
 73
     1
176
     1
 90
        0
176
     1
 40
-0.6
176
     1
 41
-30.0
176
     1
 62
     5
 63
     7
421
 16777215
176
     1
 74
     1
176
     1
 91
        4
176
     1
 64
     7
176
     1
 65
   257
176
     1
 75
     1
176
     1
175
     1
176
     1
 42
1.0
176
     1
 92
        0
176
     1
 66
   257
176
     1
 43
1.0
176
     1
 76
     1
176
     1
 77
     6
176
     1
 78
     2
176
     1
 67
     7
176
     1
 79
     5
176
     1
170
     0
176
     1
171
     0
176
     1
290
     0
176
     1
 93
        1
176
     1
 44
0.0
176
     1
173
     0
176
     1
  0
VISUALSTYLE
  5
A1
102
{ACAD_REACTORS
330
99
102
}
330
99
100
AcDbVisualStyle
  2
3D Hidden
 70
     6
177
     2
291
     0
 71
     1
176
     1
 72
     2
176
     1
 73
     2
176
     1
 90
        0
176
     1
 40
-0.6
176
     1
 41
-30.0
176
     1
 62
     5
 63
     7
421
 16777215
176
     1
 74
     2
176
     1
 91
        2
176
     1
 64
     7
176
     1
 65
   257
176
     1
 75
     2
176
     1
175
     1
176
     1
 42
40.0
176
     1
 92
        0
176
     1
 66
   257
176
     1
 43
1.0
176
     1
 76
     1
176
     1
 77
     6
176
     1
 78
     2
176
     1
 67
     7
176
     1
 79
     3
176
     1
170
     0
176
     1
171
     0
176
     1
290
     0
176
     1
 93
        1
176
     1
 44
0.0
176
     1
173
     0
176
     1
  0
VISUALSTYLE
  5
A0
102
{ACAD_REACTORS
330
99
102
}
330
99
100
AcDbVisualStyle
  2
3dWireframe
 70
     5
177
     2
291
     0
 71
     0
176
     1
 72
     2
176
     1
 73
     1
176
     1
 90
        0
176
     1
 40
-0.6
176
     1
 41
-30.0
176
     1
 62
     5
 63
     7
421
 16777215
176
     1
 74
     1
176
     1
 91
        4
176
     1
 64
     7
176
     1
 65
   257
176
     1
 75
     1
176
     1
175
     1
176
     1
 42
1.0
176
     1
 92
        0
176
     1
 66
   257
176
     1
 43
1.0
176
     1
 76
     1
176
     1
 77
     6
176
     1
 78
     2
176
     1
 67
     7
176
     1
 79
     5
176
     1
170
     0
176
     1
171
     0
176
     1
290
     0
176
     1
 93
        1
176
     1
 44
0.0
176
     1
173
     0
176
     1
  0
VISUALSTYLE
  5
9E
102
{ACAD_REACTORS
330
99
102
}
330
99
100
AcDbVisualStyle
  2
Basic
 70
     7
177
     2
291
     1
 71
     1
176
     1
 72
     0
176
     1
 73
     1
176
     1
 90
        0
176
     1
 40
-0.6
176
     1
 41
-30.0
176
     1
 62
     5
 63
     7
421
 16777215
176
     1
 74
     0
176
     1
 91
        4
176
     1
 64
     7
176
     1
 65
   257
176
     1
 75
     1
176
     1
175
     1
176
     1
 42
1.0
176
     1
 92
        8
176
     1
 66
     7
176
     1
 43
1.0
176
     1
 76
     1
176
     1
 77
     6
176
     1
 78
     2
176
     1
 67
     7
176
     1
 79
     5
176
     1
170
     0
176
     1
171
     0
176
     1
290
     0
176
     1
 93
        1
176
     1
 44
0.0
176
     1
173
     0
176
     1
  0
VISUALSTYLE
  5
A5
102
{ACAD_REACTORS
330
99
102
}
330
99
100
AcDbVisualStyle
  2
Brighten
 70
    12
177
     2
291
     1
 71
     2
176
     1
 72
     2
176
     1
 73
     1
176
     1
 90
        0
176
     1
 40
-0.6
176
     1
 41
-30.0
176
     1
 62
     5
 63
     7
421
 16777215
176
     1
 74
     1
176
     1
 91
        4
176
     1
 64
     7
176
     1
 65
   257
176
     1
 75
     1
176
     1
175
     1
176
     1
 42
1.0
176
     1
 92
        8
176
     1
 66
     7
176
     1
 43
1.0
176
     1
 76
     1
176
     1
 77
     6
176
     1
 78
     2
176
     1
 67
     7
176
     1
 79
     5
176
     1
170
     0
176
     1
171
     0
176
     1
290
     0
176
     1
 93
        1
176
     1
 44
50.0
176
     1
173
     0
176
     1
  0
VISUALSTYLE
  5
A9
102
{ACAD_REACTORS
330
99
102
}
330
99
100
AcDbVisualStyle
  2
ColorChange
 70
    16
177
     2
291
     1
 71
     2
176
     1
 72
     2
176
     1
 73
     3
176
     1
 90
        0
176
     1
 40
-0.6
176
     1
 41
-30.0
176
     1
 62
     5
 63
     8
421
  8421504
176
     1
 74
     1
176
     1
 91
        4
176
     1
 64
     7
176
     1
 65
   257
176
     1
 75
     1
176
     1
175
     1
176
     1
 42
1.0
176
     1
 92
        8
176
     1
 66
     8
424
  8421504
176
     1
 43
1.0
176
     1
 76
     1
176
     1
 77
     6
176
     1
 78
     2
176
     1
 67
     7
176
     1
 79
     5
176
     1
170
     0
176
     1
171
     0
176
     1
290
     0
176
     1
 93
        1
176
     1
 44
0.0
176
     1
173
     0
176
     1
  0
VISUALSTYLE
  5
A2
102
{ACAD_REACTORS
330
99
102
}
330
99
100
AcDbVisualStyle
  2
Conceptual
 70
     9
177
     2
291
     0
 71
     3
176
     1
 72
     2
176
     1
 73
     1
176
     1
 90
        0
176
     1
 40
-0.6
176
     1
 41
-30.0
176
     1
 62
     5
 63
     7
421
 16777215
176
     1
 74
     2
176
     1
 91
        2
176
     1
 64
     7
176
     1
 65
   257
176
     1
 75
     1
176
     1
175
     1
176
     1
 42
40.0
176
     1
 92
        8
176
     1
 66
     7
176
     1
 43
1.0
176
     1
 76
     1
176
     1
 77
     6
176
     1
 78
     2
176
     1
 67
     7
176
     1
 79
     3
176
     1
170
     0
176
     1
171
     0
176
     1
290
     0
176
     1
 93
        1
176
     1
 44
0.0
176
     1
173
     0
176
     1
  0
VISUALSTYLE
  5
A4
102
{ACAD_REACTORS
330
99
102
}
330
99
100
AcDbVisualStyle
  2
Dim
 70
    11
177
     2
291
     1
 71
     2
176
     1
 72
     2
176
     1
 73
     1
176
     1
 90
        0
176
     1
 40
-0.6
176
     1
 41
-30.0
176
     1
 62
     5
 63
     7
421
 16777215
176
     1
 74
     1
176
     1
 91
        4
176
     1
 64
     7
176
     1
 65
   257
176
     1
 75
     1
176
     1
175
     1
176
     1
 42
1.0
176
     1
 92
        8
176
     1
 66
     7
176
     1
 43
1.0
176
     1
 76
     1
176
     1
 77
     6
176
     1
 78
     2
176
     1
 67
     7
176
     1
 79
     5
176
     1
170
     0
176
     1
171
     0
176
     1
290
     0
176
     1
 93
        1
176
     1
 44
-50.0
176
     1
173
     0
176
     1
  0
VISUALSTYLE
  5
E7
102
{ACAD_REACTORS
330
99
102
}
330
99
100
AcDbVisualStyle
  2
EdgeColorOff
 70
    22
177
     2
291
     1
 71
     2
176
     0
 72
     2
176
     0
 73
     0
176
     0
 90
        0
176
     0
 40
0.6
176
     0
 41
30.0
176
     0
 62
     5
 63
     7
421
 16777215
176
     0
 74
     1
176
     0
 91
        4
176
     0
 64
     7
176
     0
 65
   257
176
     0
 75
     1
176
     0
175
     1
176
     0
 42
1.0
176
     0
 92
        8
176
     2
 66
     7
176
     0
 43
1.0
176
     0
 76
     1
176
     0
 77
     6
176
     0
 78
     2
176
     0
 67
     7
176
     0
 79
     5
176
     0
170
     0
176
     0
171
     0
176
     0
290
     0
176
     0
 93
        1
176
     0
 44
0.0
176
     0
173
     0
176
     0
  0
VISUALSTYLE
  5
A8
102
{ACAD_REACTORS
330
99
102
}
330
99
100
AcDbVisualStyle
  2
Facepattern
 70
    15
177
     2
291
     1
 71
     2
176
     1
 72
     2
176
     1
 73
     1
176
     1
 90
        0
176
     1
 40
-0.6
176
     1
 41
-30.0
176
     1
 62
     5
 63
     7
421
 16777215
176
     1
 74
     1
176
     1
 91
        4
176
     1
 64
     7
176
     1
 65
   257
176
     1
 75
     1
176
     1
175
     1
176
     1
 42
1.0
176
     1
 92
        8
176
     1
 66
     7
176
     1
 43
1.0
176
     1
 76
     1
176
     1
 77
     6
176
     1
 78
     2
176
     1
 67
     7
176
     1
 79
     5
176
     1
170
     0
176
     1
171
     0
176
     1
290
     0
176
     1
 93
        1
176
     1
 44
0.0
176
     1
173
     0
176
     1
  0
VISUALSTYLE
  5
9A
102
{ACAD_REACTORS
330
99
102
}
330
99
100
AcDbVisualStyle
  2
Flat
 70
     0
177
     2
291
     1
 71
     2
176
     1
 72
     1
176
     1
 73
     1
176
     1
 90
        2
176
     1
 40
-0.6
176
     1
 41
30.0
176
     1
 62
     5
 63
     7
421
 16777215
176
     1
 74
     0
176
     1
 91
        4
176
     1
 64
     7
176
     1
 65
   257
176
     1
 75
     1
176
     1
175
     1
176
     1
 42
1.0
176
     1
 92
        8
176
     1
 66
     7
176
     1
 43
1.0
176
     1
 76
     1
176
     1
 77
     6
176
     1
 78
     2
176
     1
 67
     7
176
     1
 79
     5
176
     1
170
     0
176
     1
171
     0
176
     1
290
     0
176
     1
 93
        1
176
     1
 44
0.0
176
     1
173
     0
176
     1
  0
VISUALSTYLE
  5
9B
102
{ACAD_REACTORS
330
99
102
}
330
99
100
AcDbVisualStyle
  2
FlatWithEdges
 70
     1
177
     2
291
     1
 71
     2
176
     1
 72
     1
176
     1
 73
     1
176
     1
 90
        2
176
     1
 40
-0.6
176
     1
 41
30.0
176
     1
 62
     5
 63
     7
421
 16777215
176
     1
 74
     1
176
     1
 91
        4
176
     1
 64
     7
176
     1
 65
   257
176
     1
 75
     1
176
     1
175
     1
176
     1
 42
1.0
176
     1
 92
        0
176
     1
 66
   257
176
     1
 43
1.0
176
     1
 76
     1
176
     1
 77
     6
176
     1
 78
     2
176
     1
 67
     7
176
     1
 79
     5
176
     1
170
     0
176
     1
171
     0
176
     1
290
     0
176
     1
 93
        1
176
     1
 44
0.0
176
     1
173
     0
176
     1
  0
VISUALSTYLE
  5
9C
102
{ACAD_REACTORS
330
99
102
}
330
99
100
AcDbVisualStyle
  2
Gouraud
 70
     2
177
     2
291
     1
 71
     2
176
     1
 72
     2
176
     1
 73
     1
176
     1
 90
        2
176
     1
 40
-0.6
176
     1
 41
30.0
176
     1
 62
     5
 63
     7
421
 16777215
176
     1
 74
     0
176
     1
 91
        4
176
     1
 64
     7
176
     1
 65
   257
176
     1
 75
     1
176
     1
175
     1
176
     1
 42
1.0
176
     1
 92
        0
176
     1
 66
     7
176
     1
 43
1.0
176
     1
 76
     1
176
     1
 77
     6
176
     1
 78
     2
176
     1
 67
     7
176
     1
 79
     5
176
     1
170
     0
176
     1
171
     0
176
     1
290
     0
176
     1
 93
        1
176
     1
 44
0.0
176
     1
173
     0
176
     1
  0
VISUALSTYLE
  5
9D
102
{ACAD_REACTORS
330
99
102
}
330
99
100
AcDbVisualStyle
  2
GouraudWithEdges
 70
     3
177
     2
291
     1
 71
     2
176
     1
 72
     2
176
     1
 73
     1
176
     1
 90
        2
176
     1
 40
-0.6
176
     1
 41
30.0
176
     1
 62
     5
 63
     7
421
 16777215
176
     1
 74
     1
176
     1
 91
        4
176
     1
 64
     7
176
     1
 65
   257
176
     1
 75
     1
176
     1
175
     1
176
     1
 42
1.0
176
     1
 92
        0
176
     1
 66
   257
176
     1
 43
1.0
176
     1
 76
     1
176
     1
 77
     6
176
     1
 78
     2
176
     1
 67
     7
176
     1
 79
     5
176
     1
170
     0
176
     1
171
     0
176
     1
290
     0
176
     1
 93
        1
176
     1
 44
0.0
176
     1
173
     0
176
     1
  0
VISUALSTYLE
  5
E4
102
{ACAD_REACTORS
330
99
102
}
330
99
100
AcDbVisualStyle
  2
Hidden
 70
     6
177
     2
291
     0
 71
     1
176
     1
 72
     2
176
     1
 73
     2
176
     1
 90
        0
176
     1
 40
0.6
176
     1
 41
30.0
176
     1
 62
     5
 63
     7
421
 16777215
176
     1
 74
     2
176
     1
 91
        2
176
     1
 64
     7
176
     1
 65
   257
176
     1
 75
     2
176
     1
175
     1
176
     1
 42
40.0
176
     1
 92
        0
176
     1
 66
   257
176
     1
 43
1.0
176
     1
 76
     1
176
     1
 77
     6
176
     1
 78
     2
176
     1
 67
     7
176
     1
 79
     3
176
     1
170
     0
176
     1
171
     0
176
     1
290
     0
176
     1
 93
        1
176
     1
 44
0.0
176
     1
173
     0
176
     1
  0
VISUALSTYLE
  5
E5
102
{ACAD_REACTORS
330
99
102
}
330
99
100
AcDbVisualStyle
  2
JitterOff
 70
    20
177
     2
291
     1
 71
     2
176
     0
 72
     2
176
     0
 73
     0
176
     0
 90
        0
176
     0
 40
0.6
176
     0
 41
30.0
176
     0
 62
     5
 63
     7
421
 16777215
176
     0
 74
     1
176
     0
 91
        4
176
     0
 64
     7
176
     0
 65
   257
176
     0
 75
     1
176
     0
175
     1
176
     0
 42
1.0
176
     0
 92
       10
176
     2
 66
     7
176
     0
 43
1.0
176
     0
 76
     1
176
     0
 77
     6
176
     0
 78
     2
176
     0
 67
     7
176
     0
 79
     5
176
     0
170
     0
176
     0
171
     0
176
     0
290
     0
176
     0
 93
        1
176
     0
 44
0.0
176
     0
173
     0
176
     0
  0
VISUALSTYLE
  5
A7
102
{ACAD_REACTORS
330
99
102
}
330
99
100
AcDbVisualStyle
  2
Linepattern
 70
    14
177
     2
291
     1
 71
     2
176
     1
 72
     2
176
     1
 73
     1
176
     1
 90
        0
176
     1
 40
-0.6
176
     1
 41
-30.0
176
     1
 62
     5
 63
     7
421
 16777215
176
     1
 74
     1
176
     1
 91
        4
176
     1
 64
     7
176
     1
 65
   257
176
     1
 75
     7
176
     1
175
     7
176
     1
 42
1.0
176
     1
 92
        8
176
     1
 66
     7
176
     1
 43
1.0
176
     1
 76
     1
176
     1
 77
     6
176
     1
 78
     2
176
     1
 67
     7
176
     1
 79
     5
176
     1
170
     0
176
     1
171
     0
176
     1
290
     0
176
     1
 93
        1
176
     1
 44
0.0
176
     1
173
     0
176
     1
  0
VISUALSTYLE
  5
E6
102
{ACAD_REACTORS
330
99
102
}
330
99
100
AcDbVisualStyle
  2
OverhangOff
 70
    21
177
     2
291
     1
 71
     2
176
     0
 72
     2
176
     0
 73
     0
176
     0
 90
        0
176
     0
 40
0.6
176
     0
 41
30.0
176
     0
 62
     5
 63
     7
421
 16777215
176
     0
 74
     1
176
     0
 91
        4
176
     0
 64
     7
176
     0
 65
   257
176
     0
 75
     1
176
     0
175
     1
176
     0
 42
1.0
176
     0
 92
        9
176
     2
 66
     7
176
     0
 43
1.0
176
     0
 76
     1
176
     0
 77
     6
176
     0
 78
     2
176
     0
 67
     7
176
     0
 79
     5
176
     0
170
     0
176
     0
171
     0
176
     0
290
     0
176
     0
 93
        1
176
     0
 44
0.0
176
     0
173
     0
176
     0
  0
VISUALSTYLE
  5
A3
102
{ACAD_REACTORS
330
99
102
}
330
99
100
AcDbVisualStyle
  2
Realistic
 70
     8
177
     2
291
     0
 71
     2
176
     1
 72
     2
176
     1
 73
     1
176
     1
 90
        0
176
     1
 40
-0.6
176
     1
 41
-30.0
176
     1
 62
     5
 63
     7
421
 16777215
176
     1
 74
     1
176
     1
 91
        0
176
     1
 64
     7
176
     1
 65
   257
176
     1
 75
     1
176
     1
175
     1
176
     1
 42
1.0
176
     1
 92
        8
176
     1
 66
     8
424
  7895160
176
     1
 43
1.0
176
     1
 76
     1
176
     1
 77
     6
176
     1
 78
     2
176
     1
 67
     7
176
     1
 79
     5
176
     1
170
     0
176
     1
171
     0
176
     1
290
     0
176
     1
 93
       13
176
     1
 44
0.0
176
     1
173
     0
176
     1
  0
VISUALSTYLE
  5
EC
102
{ACAD_REACTORS
330
99
102
}
330
99
100
AcDbVisualStyle
  2
Shaded
 70
    27
177
     2
291
     0
 71
     2
176
     1
 72
     2
176
     1
 73
     1
176
     1
 90
        2
176
     1
 40
0.6
176
     1
 41
30.0
176
     1
 62
     5
 63
     7
421
 16777215
176
     1
 74
     0
176
     1
 91
        4
176
     1
 64
     7
176
     1
 65
   257
176
     1
 75
     1
176
     1
175
     1
176
     1
 42
1.0
176
     1
 92
        8
176
     1
 66
   257
176
     1
 43
1.0
176
     1
 76
     1
176
     1
 77
     6
176
     1
 78
     2
176
     1
 67
     8
425
  7895160
176
     1
 79
     3
176
     1
170
     0
176
     1
171
     0
176
     1
290
     0
176
     1
 93
        5
176
     1
 44
0.0
176
     1
173
     0
176
     1
  0
VISUALSTYLE
  5
EB
102
{ACAD_REACTORS
330
99
102
}
330
99
100
AcDbVisualStyle
  2
Shaded with edges
 70
    26
177
     2
291
     0
 71
     2
176
     1
 72
     2
176
     1
 73
     1
176
     1
 90
        2
176
     1
 40
0.6
176
     1
 41
30.0
176
     1
 62
     5
 63
     7
421
 16777215
176
     1
 74
     1
176
     1
 91
       10
176
     1
 64
     7
176
     1
 65
   257
176
     1
 75
     2
176
     1
175
     1
176
     1
 42
1.0
176
     1
 92
        8
176
     1
 66
   257
176
     1
 43
1.0
176
     1
 76
     1
176
     1
 77
     6
176
     1
 78
     2
176
     1
 67
     7
176
     1
 79
     3
176
     1
170
     0
176
     1
171
     0
176
     1
290
     0
176
     1
 93
        5
176
     1
 44
0.0
176
     1
173
     0
176
     1
  0
VISUALSTYLE
  5
E8
102
{ACAD_REACTORS
330
99
102
}
330
99
100
AcDbVisualStyle
  2
Shades of Gray
 70
    23
177
     2
291
     0
 71
     2
176
     1
 72
     2
176
     1
 73
     3
176
     1
 90
        0
176
     1
 40
0.6
176
     1
 41
30.0
176
     1
 62
     5
 63
     7
421
 16777215
176
     1
 74
     2
176
     1
 91
        2
176
     1
 64
     7
176
     1
 65
     7
176
     1
 75
     1
176
     1
175
     1
176
     1
 42
40.0
176
     1
 92
        8
176
     1
 66
     7
176
     1
 43
1.0
176
     1
 76
     1
176
     1
 77
     6
176
     1
 78
     2
176
     1
 67
     7
176
     1
 79
     3
176
     1
170
     0
176
     1
171
     0
176
     1
290
     0
176
     1
 93
        1
176
     1
 44
0.0
176
     1
173
     0
176
     1
  0
VISUALSTYLE
  5
E9
102
{ACAD_REACTORS
330
99
102
}
330
99
100
AcDbVisualStyle
  2
Sketchy
 70
    24
177
     2
291
     0
 71
     1
176
     1
 72
     2
176
     1
 73
     2
176
     1
 90
        0
176
     1
 40
0.6
176
     1
 41
30.0
176
     1
 62
     5
 63
     7
421
 16777215
176
     1
 74
     2
176
     1
 91
        2
176
     1
 64
     7
176
     1
 65
     7
176
     1
 75
     1
176
     1
175
     1
176
     1
 42
40.0
176
     1
 92
       11
176
     1
 66
     7
176
     1
 43
1.0
176
     1
 76
     1
176
     1
 77
     6
176
     1
 78
     2
176
     1
 67
     7
176
     1
 79
     6
176
     1
170
     0
176
     1
171
     0
176
     1
290
     0
176
     1
 93
        1
176
     1
 44
0.0
176
     1
173
     0
176
     1
  0
VISUALSTYLE
  5
A6
102
{ACAD_REACTORS
330
99
102
}
330
99
100
AcDbVisualStyle
  2
Thicken
 70
    13
177
     2
291
     1
 71
     2
176
     1
 72
     2
176
     1
 73
     1
176
     1
 90
        0
176
     1
 40
-0.6
176
     1
 41
-30.0
176
     1
 62
     5
 63
     7
421
 16777215
176
     1
 74
     1
176
     1
 91
        4
176
     1
 64
     7
176
     1
 65
   257
176
     1
 75
     1
176
     1
175
     1
176
     1
 42
1.0
176
     1
 92
       12
176
     1
 66
     7
176
     1
 43
1.0
176
     1
 76
     1
176
     1
 77
     6
176
     1
 78
     2
176
     1
 67
     7
176
     1
 79
     5
176
     1
170
     0
176
     1
171
     0
176
     1
290
     0
176
     1
 93
        1
176
     1
 44
0.0
176
     1
173
     0
176
     1
  0
VISUALSTYLE
  5
E3
102
{ACAD_REACTORS
330
99
102
}
330
99
100
AcDbVisualStyle
  2
Wireframe
 70
     5
177
     2
291
     0
 71
     0
176
     1
 72
     2
176
     1
 73
     0
176
     1
 90
        0
176
     1
 40
0.6
176
     1
 41
30.0
176
     1
 62
     5
 63
     7
421
 16777215
176
     1
 74
     1
176
     1
 91
        4
176
     1
 64
     7
176
     1
 65
   257
176
     1
 75
     1
176
     1
175
     1
176
     1
 42
1.0
176
     1
 92
        0
176
     1
 66
   257
176
     1
 43
1.0
176
     1
 76
     1
176
     1
 77
     6
176
     1
 78
     2
176
     1
 67
     7
176
     1
 79
     3
176
     1
170
     0
176
     1
171
     0
176
     1
290
     0
176
     1
 93
        1
176
     1
 44
0.0
176
     1
173
     0
176
     1
  0
VISUALSTYLE
  5
EA
102
{ACAD_REACTORS
330
99
102
}
330
99
100
AcDbVisualStyle
  2
X-Ray
 70
    25
177
     2
291
     0
 71
     2
176
     1
 72
     2
176
     1
 73
     1
176
     1
 90
        1
176
     1
 40
0.5
176
     1
 41
30.0
176
     1
 62
     5
 63
     7
421
 16777215
176
     1
 74
     1
176
     1
 91
        0
176
     1
 64
     7
176
     1
 65
   257
176
     1
 75
     1
176
     1
175
     1
176
     1
 42
1.0
176
     1
 92
        8
176
     1
 66
     7
176
     1
 43
1.0
176
     1
 76
     1
176
     1
 77
     6
176
     1
 78
     2
176
     1
 67
     7
176
     1
 79
     3
176
     1
170
     0
176
     1
171
     0
176
     1
290
     0
176
     1
 93
       13
176
     1
 44
0.0
176
     1
173
     0
176
     1
  0
DICTIONARYVAR
  5
D8
102
{ACAD_REACTORS
330
66
102
}
330
66
100
DictionaryVariables
280
     0
  1
1:1
  0
DICTIONARYVAR
  5
FA
102
{ACAD_REACTORS
330
66
102
}
330
66
100
DictionaryVariables
280
     0
  1
Standard
  0
DICTIONARYVAR
  5
89
102
{ACAD_REACTORS
330
66
102
}
330
66
100
DictionaryVariables
280
     0
  1
Standard
  0
DICTIONARYVAR
  5
67
102
{ACAD_REACTORS
330
66
102
}
330
66
100
DictionaryVariables
280
     0
  1
2
  0
DICTIONARYVAR
  5
6B
102
{ACAD_REACTORS
330
66
102
}
330
66
100
DictionaryVariables
280
     0
  1
1
  0
DICTIONARYVAR
  5
F2
102
{ACAD_REACTORS
330
66
102
}
330
66
100
DictionaryVariables
280
     0
  1
ByLayer
  0
DICTIONARYVAR
  5
DF
102
{ACAD_REACTORS
330
66
102
}
330
66
100
DictionaryVariables
280
     0
  1
0
  0
DICTIONARYVAR
  5
E0
102
{ACAD_REACTORS
330
66
102
}
330
66
100
DictionaryVariables
280
     0
  1
0
  0
DICTIONARYVAR
  5
1062
102
{ACAD_REACTORS
330
F0
102
}
330
F0
100
DictionaryVariables
280
     0
  1
0.261799
  0
DICTIONARYVAR
  5
1060
102
{ACAD_REACTORS
330
F0
102
}
330
F0
100
DictionaryVariables
280
     0
  1
0.400000
  0
DICTIONARYVAR
  5
1061
102
{ACAD_REACTORS
330
F0
102
}
330
F0
100
DictionaryVariables
280
     0
  1
0.250000
  0
DICTIONARYVAR
  5
1063
102
{ACAD_REACTORS
330
F0
102
}
330
F0
100
DictionaryVariables
280
     0
  1
1
  0
DICTIONARY
  5
169A
330
87
100
AcDbDictionary
280
     1
281
     1
  3
ACAD_ROUNDTRIP_2008_TABLESTYLE_CELLSTYLEMAP
360
169B
  0
CELLSTYLEMAP
  5
169B
102
{ACAD_REACTORS
330
169A
102
}
330
169A
100
AcDbCellStyleMap
 90
        3
300
CELLSTYLE
  1
TABLEFORMAT_BEGIN
 90
        5
170
     1
 91
        0
 92
    32768
 62
   257
 93
        1
300
CONTENTFORMAT
  1
CONTENTFORMAT_BEGIN
 90
        0
 91
        0
 92
      512
 93
        0
300

 40
0.0
140
1.0
 94
        5
 62
     0
340
11
144
0.25
309
CONTENTFORMAT_END
171
     0
 94
        6
 95
        1
302
GRIDFORMAT
  1
GRIDFORMAT_BEGIN
 90
        0
 91
        1
 62
     0
 92
       -2
340
0
 93
        0
 40
0.045
309
GRIDFORMAT_END
 95
        2
302
GRIDFORMAT
  1
GRIDFORMAT_BEGIN
 90
        0
 91
        1
 62
     0
 92
       -2
340
0
 93
        0
 40
0.045
309
GRIDFORMAT_END
 95
        4
302
GRIDFORMAT
  1
GRIDFORMAT_BEGIN
 90
        0
 91
        1
 62
     0
 92
       -2
340
0
 93
        0
 40
0.045
309
GRIDFORMAT_END
 95
        8
302
GRIDFORMAT
  1
GRIDFORMAT_BEGIN
 90
        0
 91
        1
 62
     0
 92
       -2
340
0
 93
        0
 40
0.045
309
GRIDFORMAT_END
 95
       16
302
GRIDFORMAT
  1
GRIDFORMAT_BEGIN
 90
        0
 91
        1
 62
     0
 92
       -2
340
0
 93
        0
 40
0.045
309
GRIDFORMAT_END
 95
       32
302
GRIDFORMAT
  1
GRIDFORMAT_BEGIN
 90
        0
 91
        1
 62
     0
 92
       -2
340
0
 93
        0
 40
0.045
309
GRIDFORMAT_END
309
TABLEFORMAT_END
  1
CELLSTYLE_BEGIN
 90
        1
 91
        1
300
_TITLE
309
CELLSTYLE_END
300
CELLSTYLE
  1
TABLEFORMAT_BEGIN
 90
        5
170
     1
 91
        0
 92
        0
 62
   257
 93
        1
300
CONTENTFORMAT
  1
CONTENTFORMAT_BEGIN
 90
        0
 91
        0
 92
      512
 93
        0
300

 40
0.0
140
1.0
 94
        5
 62
     0
340
11
144
0.18
309
CONTENTFORMAT_END
171
     0
 94
        6
 95
        1
302
GRIDFORMAT
  1
GRIDFORMAT_BEGIN
 90
        0
 91
        1
 62
     0
 92
       -2
340
0
 93
        0
 40
0.045
309
GRIDFORMAT_END
 95
        2
302
GRIDFORMAT
  1
GRIDFORMAT_BEGIN
 90
        0
 91
        1
 62
     0
 92
       -2
340
0
 93
        0
 40
0.045
309
GRIDFORMAT_END
 95
        4
302
GRIDFORMAT
  1
GRIDFORMAT_BEGIN
 90
        0
 91
        1
 62
     0
 92
       -2
340
0
 93
        0
 40
0.045
309
GRIDFORMAT_END
 95
        8
302
GRIDFORMAT
  1
GRIDFORMAT_BEGIN
 90
        0
 91
        1
 62
     0
 92
       -2
340
0
 93
        0
 40
0.045
309
GRIDFORMAT_END
 95
       16
302
GRIDFORMAT
  1
GRIDFORMAT_BEGIN
 90
        0
 91
        1
 62
     0
 92
       -2
340
0
 93
        0
 40
0.045
309
GRIDFORMAT_END
 95
       32
302
GRIDFORMAT
  1
GRIDFORMAT_BEGIN
 90
        0
 91
        1
 62
     0
 92
       -2
340
0
 93
        0
 40
0.045
309
GRIDFORMAT_END
309
TABLEFORMAT_END
  1
CELLSTYLE_BEGIN
 90
        2
 91
        1
300
_HEADER
309
CELLSTYLE_END
300
CELLSTYLE
  1
TABLEFORMAT_BEGIN
 90
        5
170
     1
 91
        0
 92
        0
 62
   257
 93
        1
300
CONTENTFORMAT
  1
CONTENTFORMAT_BEGIN
 90
        0
 91
        0
 92
      512
 93
        0
300

 40
0.0
140
1.0
 94
        2
 62
     0
340
11
144
0.18
309
CONTENTFORMAT_END
171
     0
 94
        6
 95
        1
302
GRIDFORMAT
  1
GRIDFORMAT_BEGIN
 90
        0
 91
        1
 62
     0
 92
       -2
340
0
 93
        0
 40
0.045
309
GRIDFORMAT_END
 95
        2
302
GRIDFORMAT
  1
GRIDFORMAT_BEGIN
 90
        0
 91
        1
 62
     0
 92
       -2
340
0
 93
        0
 40
0.045
309
GRIDFORMAT_END
 95
        4
302
GRIDFORMAT
  1
GRIDFORMAT_BEGIN
 90
        0
 91
        1
 62
     0
 92
       -2
340
0
 93
        0
 40
0.045
309
GRIDFORMAT_END
 95
        8
302
GRIDFORMAT
  1
GRIDFORMAT_BEGIN
 90
        0
 91
        1
 62
     0
 92
       -2
340
0
 93
        0
 40
0.045
309
GRIDFORMAT_END
 95
       16
302
GRIDFORMAT
  1
GRIDFORMAT_BEGIN
 90
        0
 91
        1
 62
     0
 92
       -2
340
0
 93
        0
 40
0.045
309
GRIDFORMAT_END
 95
       32
302
GRIDFORMAT
  1
GRIDFORMAT_BEGIN
 90
        0
 91
        1
 62
     0
 92
       -2
340
0
 93
        0
 40
0.045
309
GRIDFORMAT_END
309
TABLEFORMAT_END
  1
CELLSTYLE_BEGIN
 90
        3
 91
        2
300
_DATA
309
CELLSTYLE_END
  0
ENDSEC
  0
EOF
