<?xml version="1.0" encoding="UTF-8" standalone="no"?>
<!-- Created with Inkscape (http://www.inkscape.org/) -->

<svg
   xmlns:dc="http://purl.org/dc/elements/1.1/"
   xmlns:cc="http://creativecommons.org/ns#"
   xmlns:rdf="http://www.w3.org/1999/02/22-rdf-syntax-ns#"
   xmlns:svg="http://www.w3.org/2000/svg"
   xmlns="http://www.w3.org/2000/svg"
   xmlns:sodipodi="http://sodipodi.sourceforge.net/DTD/sodipodi-0.dtd"
   xmlns:inkscape="http://www.inkscape.org/namespaces/inkscape"
   width="210mm"
   height="297mm"
   viewBox="0 0 210 297"
   version="1.1"
   id="svg8"
   inkscape:version="0.92.2 (5c3e80d, 2017-08-06)"
   sodipodi:docname="StenoKeyLogo1.svg">
  <defs
     id="defs2" />
  <sodipodi:namedview
     id="base"
     pagecolor="#ffffff"
     bordercolor="#666666"
     borderopacity="1.0"
     inkscape:pageopacity="0.0"
     inkscape:pageshadow="2"
     inkscape:zoom="1.979899"
     inkscape:cx="189.60448"
     inkscape:cy="535.72891"
     inkscape:document-units="mm"
     inkscape:current-layer="layer2"
     showgrid="false"
     inkscape:window-width="1920"
     inkscape:window-height="975"
     inkscape:window-x="-8"
     inkscape:window-y="-8"
     inkscape:window-maximized="1" />
  <metadata
     id="metadata5">
    <rdf:RDF>
      <cc:Work
         rdf:about="">
        <dc:format>image/svg+xml</dc:format>
        <dc:type
           rdf:resource="http://purl.org/dc/dcmitype/StillImage" />
        <dc:title></dc:title>
      </cc:Work>
    </rdf:RDF>
  </metadata>
  <g
     inkscape:groupmode="layer"
     id="layer2"
     inkscape:label="SilkS">
    <text
       xml:space="preserve"
       style="font-style:normal;font-variant:normal;font-weight:normal;font-stretch:normal;font-size:10.58333302px;line-height:1000%;font-family:Criovision-Font;-inkscape-font-specification:Criovision-Font;text-align:start;letter-spacing:0px;word-spacing:0px;writing-mode:lr-tb;text-anchor:start;fill:#000000;fill-opacity:1;stroke:none;stroke-width:0.26458332px;stroke-linecap:butt;stroke-linejoin:miter;stroke-opacity:1"
       x="44.979168"
       y="66.056549"
       id="text891"><tspan
         sodipodi:role="line"
         id="tspan889"
         x="44.979168"
         y="124.26488"
         style="stroke-width:0.26458332px" /></text>
    <flowRoot
       xml:space="preserve"
       id="flowRoot920"
       style="fill:black;stroke:none;stroke-opacity:1;stroke-width:1px;stroke-linejoin:miter;stroke-linecap:butt;fill-opacity:1;font-family:Criovision-Font;font-style:normal;font-weight:normal;font-size:40px;line-height:1000%;letter-spacing:0px;word-spacing:0px;-inkscape-font-specification:Criovision-Font;font-stretch:normal;font-variant:normal;text-anchor:start;text-align:start;writing-mode:lr"><flowRegion
         id="flowRegion922"><rect
           id="rect924"
           width="118.57143"
           height="51.42857"
           x="153.57143"
           y="218.23398" /></flowRegion><flowPara
         id="flowPara926" /></flowRoot>    <path
       inkscape:connector-curvature="0"
       id="path841"
       style="font-style:normal;font-variant:normal;font-weight:normal;font-stretch:normal;font-size:medium;line-height:1000%;font-family:Criovision-Font;-inkscape-font-specification:Criovision-Font;text-align:start;letter-spacing:0px;word-spacing:0px;writing-mode:lr-tb;text-anchor:start;fill:#000000;fill-opacity:1;stroke:none;stroke-width:0.26458332px;stroke-linecap:butt;stroke-linejoin:miter;stroke-opacity:1"
       d="m 44.897626,151.84642 q 0.5715,0 0.5715,-0.68791 0,-0.65617 -0.560917,-0.65617 h -4.868333 q -1.820333,0 -1.820333,-2.42358 0,-2.36009 1.820333,-2.36009 h 5.767917 q 0.656166,0.0106 1.291166,0.635 0.275167,0.27517 0.381,0.71967 0.0635,0.30692 0.07408,0.37042 H 41.04529 q -0.53975,0 -0.53975,0.62441 0,0.635 0.53975,0.635 h 4.783666 q 1.883833,0 1.883833,2.36009 0,2.49766 -1.883833,2.49766 H 40.56904 q -1.502834,-0.0106 -1.947334,-0.62441 -0.402166,-0.51859 -0.402166,-1.09009 z" />
    <path
       inkscape:connector-curvature="0"
       id="path843"
       style="font-style:normal;font-variant:normal;font-weight:normal;font-stretch:normal;font-size:medium;line-height:1000%;font-family:Criovision-Font;-inkscape-font-specification:Criovision-Font;text-align:start;letter-spacing:0px;word-spacing:0px;writing-mode:lr-tb;text-anchor:start;fill:#000000;fill-opacity:1;stroke:none;stroke-width:0.26458332px;stroke-linecap:butt;stroke-linejoin:miter;stroke-opacity:1"
       d="m 49.836404,145.81392 h 8.9535 v 2.032 h -3.302 v 5.63034 h -2.3495 v -5.63034 h -3.302 z" />
    <path
       inkscape:connector-curvature="0"
       id="path845"
       style="font-style:normal;font-variant:normal;font-weight:normal;font-stretch:normal;font-size:medium;line-height:1000%;font-family:Criovision-Font;-inkscape-font-specification:Criovision-Font;text-align:start;letter-spacing:0px;word-spacing:0px;writing-mode:lr-tb;text-anchor:start;fill:#000000;fill-opacity:1;stroke:none;stroke-width:0.26458332px;stroke-linecap:butt;stroke-linejoin:miter;stroke-opacity:1"
       d="m 63.307665,150.53409 v 0.32808 q 0.04233,0.35984 0.211667,0.508 0.22225,0.21167 0.550333,0.24342 h 6.709833 q 0,0.32808 -0.07408,0.56092 -0.127,0.43391 -0.582083,0.91016 -0.497417,0.47625 -1.651,0.48684 l -4.974167,-0.0106 q -1.291167,-0.0423 -1.926167,-0.59266 -0.656166,-0.58209 -0.656166,-1.5875 v -3.40784 q 0,-0.99483 0.66675,-1.5875 0.66675,-0.5715 1.905,-0.58208 h 5.027083 q 0.867833,0 1.598083,0.635 0.359834,0.30692 0.560917,0.85725 0.105833,0.35983 0.105833,0.45508 h -6.720416 q -0.338667,0 -0.550334,0.22225 -0.1905,0.22225 -0.201083,0.5715 v 0.34925 h 6.455833 v 1.64042 z" />
    <path
       inkscape:connector-curvature="0"
       id="path847"
       style="font-style:normal;font-variant:normal;font-weight:normal;font-stretch:normal;font-size:medium;line-height:1000%;font-family:Criovision-Font;-inkscape-font-specification:Criovision-Font;text-align:start;letter-spacing:0px;word-spacing:0px;writing-mode:lr-tb;text-anchor:start;fill:#000000;fill-opacity:1;stroke:none;stroke-width:0.26458332px;stroke-linecap:butt;stroke-linejoin:miter;stroke-opacity:1"
       d="m 72.61951,145.81392 h 3.640666 l 4.434417,5.56684 v -5.56684 h 2.3495 v 7.66234 h -3.640667 l -4.434416,-5.56684 v 5.56684 h -2.3495 z" />
    <path
       style="font-style:normal;font-variant:normal;font-weight:normal;font-stretch:normal;font-size:medium;line-height:1000%;font-family:Criovision-Font;-inkscape-font-specification:Criovision-Font;text-align:start;letter-spacing:0px;word-spacing:0px;writing-mode:lr-tb;text-anchor:start;fill:#000000;fill-opacity:1;stroke:none;stroke-width:0.99999994px;stroke-linecap:butt;stroke-linejoin:miter;stroke-opacity:1"
       d="M 332.5293 550.78711 C 325.43597 550.78711 321.88867 554.28092 321.88867 561.26758 L 321.88867 569.9082 C 321.88867 576.89486 325.43597 580.38867 332.5293 580.38867 L 350.80859 580.38867 C 357.95526 580.38867 361.5293 576.89486 361.5293 569.9082 L 361.5293 561.26758 C 361.5293 554.28092 357.95526 550.78711 350.80859 550.78711 L 332.5293 550.78711 z M 336.44922 558.22852 L 346.84961 558.22852 C 350.55628 558.22852 352.41016 559.8417 352.41016 563.06836 L 352.41016 568.06836 C 352.41016 571.32168 350.71675 572.94727 347.33008 572.94727 L 335.96875 572.94727 C 332.58208 572.94727 330.88867 571.32168 330.88867 568.06836 L 330.88867 563.06836 C 330.88867 559.8417 332.74255 558.22852 336.44922 558.22852 z "
       transform="scale(0.26458333)"
       id="path868" />
    <path
       inkscape:connector-curvature="0"
       id="path851"
       style="font-style:normal;font-variant:normal;font-weight:normal;font-stretch:normal;font-size:medium;line-height:1000%;font-family:Criovision-Font;-inkscape-font-specification:Criovision-Font;text-align:start;letter-spacing:0px;word-spacing:0px;writing-mode:lr-tb;text-anchor:start;fill:#000000;fill-opacity:1;stroke:none;stroke-width:0.26458332px;stroke-linecap:butt;stroke-linejoin:miter;stroke-opacity:1"
       d="m 97.775596,145.81392 h 2.349504 v 2.81517 h 0.98425 l 3.28083,-2.81517 h 2.99508 l -4.14866,3.7465 4.54025,3.91584 h -3.32317 l -3.40783,-2.94217 h -0.92075 v 2.94217 h -2.349504 z" />
    <path
       inkscape:connector-curvature="0"
       id="path853"
       style="font-style:normal;font-variant:normal;font-weight:normal;font-stretch:normal;font-size:medium;line-height:1000%;font-family:Criovision-Font;-inkscape-font-specification:Criovision-Font;text-align:start;letter-spacing:0px;word-spacing:0px;writing-mode:lr-tb;text-anchor:start;fill:#000000;fill-opacity:1;stroke:none;stroke-width:0.26458332px;stroke-linecap:butt;stroke-linejoin:miter;stroke-opacity:1"
       d="m 111.22204,150.53409 v 0.32808 q 0.0423,0.35984 0.21167,0.508 0.22225,0.21167 0.55033,0.24342 h 6.70984 q 0,0.32808 -0.0741,0.56092 -0.127,0.43391 -0.58208,0.91016 -0.49742,0.47625 -1.651,0.48684 l -4.97417,-0.0106 q -1.29116,-0.0423 -1.92616,-0.59266 -0.65617,-0.58209 -0.65617,-1.5875 v -3.40784 q 0,-0.99483 0.66675,-1.5875 0.66675,-0.5715 1.905,-0.58208 h 5.02708 q 0.86784,0 1.59809,0.635 0.35983,0.30692 0.56091,0.85725 0.10584,0.35983 0.10584,0.45508 h -6.72042 q -0.33867,0 -0.55033,0.22225 -0.1905,0.22225 -0.20109,0.5715 v 0.34925 h 6.45584 v 1.64042 z" />
    <path
       inkscape:connector-curvature="0"
       id="path855"
       style="font-style:normal;font-variant:normal;font-weight:normal;font-stretch:normal;font-size:medium;line-height:1000%;font-family:Criovision-Font;-inkscape-font-specification:Criovision-Font;text-align:start;letter-spacing:0px;word-spacing:0px;writing-mode:lr-tb;text-anchor:start;fill:#000000;fill-opacity:1;stroke:none;stroke-width:0.26458332px;stroke-linecap:butt;stroke-linejoin:miter;stroke-opacity:1"
       d="m 123.71947,151.15851 -4.24391,-5.34459 h 2.83633 l 2.58233,3.13267 2.58234,-3.13267 h 2.83633 l -4.24392,5.34459 v 2.31775 h -2.3495 z" />
  </g>
</svg>
