G04 #@! TF.FileFunction,Copper,L1,Top,Signal*
%FSLAX46Y46*%
G04 Gerber Fmt 4.6, Leading zero omitted, Abs format (unit mm)*
G04 Created by KiCad (PCBNEW 4.0.7) date 11/07/17 14:35:55*
%MOMM*%
%LPD*%
G01*
G04 APERTURE LIST*
%ADD10C,0.200000*%
%ADD11C,0.300000*%
%ADD12R,1.500000X1.500000*%
%ADD13C,1.500000*%
%ADD14R,3.000000X3.000000*%
%ADD15C,3.000000*%
%ADD16R,1.400000X1.400000*%
%ADD17C,1.400000*%
%ADD18C,8.000000*%
%ADD19C,0.600000*%
%ADD20C,0.500000*%
G04 APERTURE END LIST*
D10*
D11*
X111214286Y-201250000D02*
X111071429Y-201178571D01*
X110857143Y-201178571D01*
X110642858Y-201250000D01*
X110500000Y-201392857D01*
X110428572Y-201535714D01*
X110357143Y-201821429D01*
X110357143Y-202035714D01*
X110428572Y-202321429D01*
X110500000Y-202464286D01*
X110642858Y-202607143D01*
X110857143Y-202678571D01*
X111000000Y-202678571D01*
X111214286Y-202607143D01*
X111285715Y-202535714D01*
X111285715Y-202035714D01*
X111000000Y-202035714D01*
X111714286Y-201178571D02*
X112571429Y-201178571D01*
X112142858Y-202678571D02*
X112142858Y-201178571D01*
X113785715Y-202678571D02*
X113071429Y-202678571D01*
X113071429Y-201178571D01*
D12*
X133000000Y-96000000D03*
D13*
X141000000Y-96000000D03*
D12*
X152000000Y-96000000D03*
D13*
X160000000Y-96000000D03*
D12*
X171000000Y-96000000D03*
D13*
X179000000Y-96000000D03*
D12*
X190000000Y-96000000D03*
D13*
X198000000Y-96000000D03*
D12*
X209000000Y-96000000D03*
D13*
X217000000Y-96000000D03*
D12*
X228000000Y-96000000D03*
D13*
X236000000Y-96000000D03*
D12*
X247000000Y-96000000D03*
D13*
X255000000Y-96000000D03*
D12*
X266000000Y-96000000D03*
D13*
X274000000Y-96000000D03*
D12*
X285000000Y-96000000D03*
D13*
X293000000Y-96000000D03*
D12*
X304000000Y-96000000D03*
D13*
X312000000Y-96000000D03*
D12*
X133000000Y-116500000D03*
D13*
X141000000Y-116500000D03*
D12*
X152000000Y-116500000D03*
D13*
X160000000Y-116500000D03*
D12*
X171000000Y-116500000D03*
D13*
X179000000Y-116500000D03*
D12*
X190000000Y-116500000D03*
D13*
X198000000Y-116500000D03*
D12*
X209000000Y-116500000D03*
D13*
X217000000Y-116500000D03*
D12*
X228000000Y-116500000D03*
D13*
X236000000Y-116500000D03*
D12*
X247000000Y-116500000D03*
D13*
X255000000Y-116500000D03*
D12*
X266000000Y-116500000D03*
D13*
X274000000Y-116500000D03*
D12*
X285000000Y-116500000D03*
D13*
X293000000Y-116500000D03*
D12*
X304000000Y-116500000D03*
D13*
X312000000Y-116500000D03*
D12*
X133000000Y-139500000D03*
D13*
X141000000Y-139500000D03*
D12*
X152000000Y-139500000D03*
D13*
X160000000Y-139500000D03*
D12*
X171000000Y-139500000D03*
D13*
X179000000Y-139500000D03*
D12*
X190000000Y-139500000D03*
D13*
X198000000Y-139500000D03*
D12*
X209000000Y-139500000D03*
D13*
X217000000Y-139500000D03*
D12*
X228000000Y-139500000D03*
D13*
X236000000Y-139500000D03*
D12*
X247000000Y-139500000D03*
D13*
X255000000Y-139500000D03*
D12*
X266000000Y-139500000D03*
D13*
X274000000Y-139500000D03*
D12*
X285000000Y-139500000D03*
D13*
X293000000Y-139500000D03*
D12*
X304000000Y-139500000D03*
D13*
X312000000Y-139500000D03*
D12*
X180500000Y-164500000D03*
D13*
X188500000Y-164500000D03*
D12*
X199500000Y-164500000D03*
D13*
X207500000Y-164500000D03*
D12*
X201000000Y-77000000D03*
D13*
X209000000Y-77000000D03*
D12*
X201000000Y-84000000D03*
D13*
X209000000Y-84000000D03*
D12*
X215000000Y-77000000D03*
D13*
X223000000Y-77000000D03*
D12*
X218500000Y-164500000D03*
D13*
X226500000Y-164500000D03*
D12*
X237500000Y-164500000D03*
D13*
X245500000Y-164500000D03*
D12*
X215000000Y-84000000D03*
D13*
X223000000Y-84000000D03*
D12*
X229000000Y-77000000D03*
D13*
X237000000Y-77000000D03*
D12*
X229000000Y-84000000D03*
D13*
X237000000Y-84000000D03*
X154250000Y-80250000D03*
D12*
X151750000Y-80250000D03*
X149000000Y-73250000D03*
D13*
X157000000Y-73250000D03*
D14*
X131500000Y-100500000D03*
D15*
X136500000Y-100000000D03*
D14*
X150500000Y-100500000D03*
D15*
X155500000Y-100000000D03*
D14*
X169500000Y-100500000D03*
D15*
X174500000Y-100000000D03*
D14*
X188500000Y-100500000D03*
D15*
X193500000Y-100000000D03*
D14*
X207500000Y-100500000D03*
D15*
X212500000Y-100000000D03*
D14*
X226500000Y-100500000D03*
D15*
X231500000Y-100000000D03*
D14*
X245500000Y-100500000D03*
D15*
X250500000Y-100000000D03*
D14*
X264500000Y-100500000D03*
D15*
X269500000Y-100000000D03*
D14*
X283500000Y-100500000D03*
D15*
X288500000Y-100000000D03*
D14*
X302500000Y-100500000D03*
D15*
X307500000Y-100000000D03*
D14*
X131500000Y-120750000D03*
D15*
X136500000Y-120250000D03*
D14*
X150500000Y-120750000D03*
D15*
X155500000Y-120250000D03*
D14*
X169500000Y-120750000D03*
D15*
X174500000Y-120250000D03*
D14*
X188500000Y-120750000D03*
D15*
X193500000Y-120250000D03*
D14*
X207500000Y-120750000D03*
D15*
X212500000Y-120250000D03*
D14*
X226500000Y-120750000D03*
D15*
X231500000Y-120250000D03*
D14*
X245500000Y-120750000D03*
D15*
X250500000Y-120250000D03*
D14*
X264500000Y-120750000D03*
D15*
X269500000Y-120250000D03*
D14*
X283500000Y-120750000D03*
D15*
X288500000Y-120250000D03*
D14*
X302500000Y-120750000D03*
D15*
X307500000Y-120250000D03*
D14*
X131500000Y-144000000D03*
D15*
X136500000Y-143500000D03*
D14*
X150500000Y-144000000D03*
D15*
X155500000Y-143500000D03*
D14*
X169500000Y-144000000D03*
D15*
X174500000Y-143500000D03*
D14*
X188500000Y-144000000D03*
D15*
X193500000Y-143500000D03*
D14*
X207500000Y-144000000D03*
D15*
X212500000Y-143500000D03*
D14*
X226500000Y-144000000D03*
D15*
X231500000Y-143500000D03*
D14*
X245500000Y-144000000D03*
D15*
X250500000Y-143500000D03*
D14*
X264500000Y-144000000D03*
D15*
X269500000Y-143500000D03*
D14*
X283500000Y-144000000D03*
D15*
X288500000Y-143500000D03*
D14*
X302500000Y-144000000D03*
D15*
X307500000Y-143500000D03*
D14*
X179000000Y-169000000D03*
D15*
X184000000Y-168500000D03*
D14*
X198000000Y-169000000D03*
D15*
X203000000Y-168500000D03*
D14*
X217000000Y-169000000D03*
D15*
X222000000Y-168500000D03*
D14*
X236000000Y-169000000D03*
D15*
X241000000Y-168500000D03*
D16*
X264460000Y-84060000D03*
D17*
X267000000Y-84060000D03*
X269540000Y-84060000D03*
X269540000Y-76440000D03*
X267000000Y-76440000D03*
X264460000Y-76440000D03*
D16*
X245460000Y-84060000D03*
D17*
X248000000Y-84060000D03*
X250540000Y-84060000D03*
X250540000Y-76440000D03*
X248000000Y-76440000D03*
X245460000Y-76440000D03*
D16*
X169460000Y-84060000D03*
D17*
X172000000Y-84060000D03*
X174540000Y-84060000D03*
X174540000Y-76440000D03*
X172000000Y-76440000D03*
X169460000Y-76440000D03*
D16*
X188460000Y-84060000D03*
D17*
X191000000Y-84060000D03*
X193540000Y-84060000D03*
X193540000Y-76440000D03*
X191000000Y-76440000D03*
X188460000Y-76440000D03*
D13*
X287250000Y-80250000D03*
D12*
X284750000Y-80250000D03*
X282000000Y-73500000D03*
D13*
X290000000Y-73500000D03*
D18*
X160000000Y-67500000D03*
X170000000Y-67500000D03*
X269000000Y-67500000D03*
X279000000Y-67500000D03*
X322000000Y-90500000D03*
X322000000Y-100500000D03*
X322000000Y-160000000D03*
X322000000Y-170000000D03*
X279000000Y-193000000D03*
X269000000Y-193000000D03*
X170000000Y-193000000D03*
X160000000Y-193000000D03*
X117000000Y-170000000D03*
X117000000Y-160000000D03*
X117000000Y-100500000D03*
X117000000Y-90500000D03*
D16*
X111280000Y-84120000D03*
D17*
X113820000Y-84120000D03*
X116360000Y-84120000D03*
X118900000Y-84120000D03*
X121440000Y-84120000D03*
X123980000Y-84120000D03*
X126520000Y-84120000D03*
X129060000Y-84120000D03*
X131600000Y-84120000D03*
X134140000Y-84120000D03*
X136680000Y-84120000D03*
X139220000Y-84120000D03*
X139220000Y-81580000D03*
X139220000Y-79040000D03*
X139220000Y-76500000D03*
X139220000Y-73960000D03*
X139220000Y-71420000D03*
X131600000Y-68880000D03*
X134140000Y-68880000D03*
X139220000Y-68880000D03*
X136680000Y-68880000D03*
X129060000Y-68880000D03*
X126520000Y-68880000D03*
X123980000Y-68880000D03*
X121440000Y-68880000D03*
X118900000Y-68880000D03*
X116360000Y-68880000D03*
X113820000Y-68880000D03*
X111280000Y-68880000D03*
X121440000Y-81580000D03*
X121440000Y-71420000D03*
D16*
X327720000Y-68880000D03*
D17*
X325180000Y-68880000D03*
X322640000Y-68880000D03*
X320100000Y-68880000D03*
X317560000Y-68880000D03*
X315020000Y-68880000D03*
X312480000Y-68880000D03*
X309940000Y-68880000D03*
X307400000Y-68880000D03*
X304860000Y-68880000D03*
X302320000Y-68880000D03*
X299780000Y-68880000D03*
X299780000Y-71420000D03*
X299780000Y-73960000D03*
X299780000Y-76500000D03*
X299780000Y-79040000D03*
X299780000Y-81580000D03*
X307400000Y-84120000D03*
X304860000Y-84120000D03*
X299780000Y-84120000D03*
X302320000Y-84120000D03*
X309940000Y-84120000D03*
X312480000Y-84120000D03*
X315020000Y-84120000D03*
X317560000Y-84120000D03*
X320100000Y-84120000D03*
X322640000Y-84120000D03*
X325180000Y-84120000D03*
X327720000Y-84120000D03*
X317560000Y-71420000D03*
X317560000Y-81580000D03*
D19*
X281874200Y-80809600D03*
X219243900Y-79497700D03*
X228363500Y-71636500D03*
X250603600Y-85350500D03*
X300251400Y-80310000D03*
X179261500Y-79338500D03*
X191543600Y-85304500D03*
X268872800Y-73025700D03*
D20*
X139749700Y-94749700D02*
X141000000Y-96000000D01*
X127604700Y-94749700D02*
X139749700Y-94749700D01*
X127344300Y-95010100D02*
X127604700Y-94749700D01*
X115128200Y-95010100D02*
X127344300Y-95010100D01*
X112437000Y-92318900D02*
X115128200Y-95010100D01*
X112437000Y-85503000D02*
X112437000Y-92318900D01*
X113820000Y-84120000D02*
X112437000Y-85503000D01*
X116984600Y-84120000D02*
X116360000Y-84120000D01*
X126864000Y-93999400D02*
X116984600Y-84120000D01*
X157999400Y-93999400D02*
X126864000Y-93999400D01*
X160000000Y-96000000D02*
X157999400Y-93999400D01*
X176244400Y-93244400D02*
X179000000Y-96000000D01*
X128024400Y-93244400D02*
X176244400Y-93244400D01*
X118900000Y-84120000D02*
X128024400Y-93244400D01*
X318830000Y-70150000D02*
X320100000Y-68880000D01*
X283751500Y-70150000D02*
X318830000Y-70150000D01*
X281651900Y-72249600D02*
X283751500Y-70150000D01*
X271003000Y-72249600D02*
X281651900Y-72249600D01*
X269170800Y-74081800D02*
X271003000Y-72249600D01*
X211918200Y-74081800D02*
X269170800Y-74081800D01*
X209000000Y-77000000D02*
X211918200Y-74081800D01*
X194107700Y-92107700D02*
X198000000Y-96000000D01*
X129427700Y-92107700D02*
X194107700Y-92107700D01*
X121440000Y-84120000D02*
X129427700Y-92107700D01*
X222247700Y-80809600D02*
X281874200Y-80809600D01*
X220494000Y-82563300D02*
X222247700Y-80809600D01*
X210436700Y-82563300D02*
X220494000Y-82563300D01*
X209000000Y-84000000D02*
X210436700Y-82563300D01*
X212357400Y-91357400D02*
X217000000Y-96000000D01*
X131217400Y-91357400D02*
X212357400Y-91357400D01*
X123980000Y-84120000D02*
X131217400Y-91357400D01*
X221741600Y-77000000D02*
X219243900Y-79497700D01*
X223000000Y-77000000D02*
X221741600Y-77000000D01*
X237028800Y-62971200D02*
X228363500Y-71636500D01*
X309111200Y-62971200D02*
X237028800Y-62971200D01*
X315020000Y-68880000D02*
X309111200Y-62971200D01*
X229898300Y-89898300D02*
X236000000Y-96000000D01*
X132298300Y-89898300D02*
X229898300Y-89898300D01*
X126520000Y-84120000D02*
X132298300Y-89898300D01*
X247970100Y-88970100D02*
X255000000Y-96000000D01*
X133910100Y-88970100D02*
X247970100Y-88970100D01*
X129060000Y-84120000D02*
X133910100Y-88970100D01*
X220142700Y-86857300D02*
X223000000Y-84000000D01*
X134337300Y-86857300D02*
X220142700Y-86857300D01*
X131600000Y-84120000D02*
X134337300Y-86857300D01*
X266219700Y-88219700D02*
X274000000Y-96000000D01*
X227219700Y-88219700D02*
X266219700Y-88219700D01*
X223000000Y-84000000D02*
X227219700Y-88219700D01*
X235749600Y-75749600D02*
X237000000Y-77000000D01*
X212031400Y-75749600D02*
X235749600Y-75749600D01*
X209506100Y-78274900D02*
X212031400Y-75749600D01*
X149516300Y-78274900D02*
X209506100Y-78274900D01*
X144941200Y-82850000D02*
X149516300Y-78274900D01*
X135410000Y-82850000D02*
X144941200Y-82850000D01*
X134140000Y-84120000D02*
X135410000Y-82850000D01*
X282350500Y-85350500D02*
X250603600Y-85350500D01*
X293000000Y-96000000D02*
X282350500Y-85350500D01*
X235749700Y-82749700D02*
X237000000Y-84000000D01*
X222430100Y-82749700D02*
X235749700Y-82749700D01*
X219074600Y-86105200D02*
X222430100Y-82749700D01*
X138665200Y-86105200D02*
X219074600Y-86105200D01*
X136680000Y-84120000D02*
X138665200Y-86105200D01*
X238260400Y-85260400D02*
X237000000Y-84000000D01*
X246403500Y-85260400D02*
X238260400Y-85260400D01*
X246660400Y-85003500D02*
X246403500Y-85260400D01*
X246660400Y-83694400D02*
X246660400Y-85003500D01*
X248492500Y-81862300D02*
X246660400Y-83694400D01*
X292281200Y-81862300D02*
X248492500Y-81862300D01*
X293833500Y-80310000D02*
X292281200Y-81862300D01*
X300251400Y-80310000D02*
X293833500Y-80310000D01*
X210000300Y-117750300D02*
X209000000Y-117750300D01*
X212500000Y-120250000D02*
X210000300Y-117750300D01*
X209000000Y-116500000D02*
X209000000Y-117750300D01*
X267000300Y-117750300D02*
X266000000Y-117750300D01*
X269500000Y-120250000D02*
X267000300Y-117750300D01*
X266000000Y-116500000D02*
X266000000Y-117750300D01*
X305000300Y-117750300D02*
X304000000Y-117750300D01*
X307500000Y-120250000D02*
X305000300Y-117750300D01*
X304000000Y-116500000D02*
X304000000Y-117750300D01*
X152750300Y-140750300D02*
X152000000Y-140750300D01*
X155500000Y-143500000D02*
X152750300Y-140750300D01*
X152000000Y-139500000D02*
X152000000Y-140750300D01*
X209750300Y-140750300D02*
X209000000Y-140750300D01*
X212500000Y-143500000D02*
X209750300Y-140750300D01*
X209000000Y-139500000D02*
X209000000Y-140750300D01*
X304750300Y-140750300D02*
X304000000Y-140750300D01*
X307500000Y-143500000D02*
X304750300Y-140750300D01*
X304000000Y-139500000D02*
X304000000Y-140750300D01*
X201000000Y-84000000D02*
X202250300Y-84000000D01*
X204437300Y-81813000D02*
X202250300Y-84000000D01*
X220183100Y-81813000D02*
X204437300Y-81813000D01*
X221936800Y-80059300D02*
X220183100Y-81813000D01*
X265920700Y-80059300D02*
X221936800Y-80059300D01*
X269540000Y-76440000D02*
X265920700Y-80059300D01*
X215000000Y-77000000D02*
X213749700Y-77000000D01*
X211411200Y-79338500D02*
X179261500Y-79338500D01*
X213749700Y-77000000D02*
X211411200Y-79338500D01*
X245460000Y-84060000D02*
X244259700Y-84060000D01*
X215000000Y-84000000D02*
X216250300Y-84000000D01*
X215000000Y-84000000D02*
X213749700Y-84000000D01*
X212445200Y-85304500D02*
X191543600Y-85304500D01*
X213749700Y-84000000D02*
X212445200Y-85304500D01*
X242136500Y-81936800D02*
X244259700Y-84060000D01*
X222181800Y-81936800D02*
X242136500Y-81936800D01*
X220118600Y-84000000D02*
X222181800Y-81936800D01*
X216250300Y-84000000D02*
X220118600Y-84000000D01*
X229000000Y-84000000D02*
X230250300Y-84000000D01*
X232261600Y-86011300D02*
X230250300Y-84000000D01*
X248588700Y-86011300D02*
X232261600Y-86011300D01*
X250540000Y-84060000D02*
X248588700Y-86011300D01*
X150380000Y-84120000D02*
X154250000Y-80250000D01*
X139220000Y-84120000D02*
X150380000Y-84120000D01*
X154312400Y-80312400D02*
X154250000Y-80250000D01*
X219561300Y-80312400D02*
X154312400Y-80312400D01*
X221315000Y-78558700D02*
X219561300Y-80312400D01*
X237309200Y-78558700D02*
X221315000Y-78558700D01*
X240655600Y-75212300D02*
X237309200Y-78558700D01*
X282212300Y-75212300D02*
X240655600Y-75212300D01*
X287250000Y-80250000D02*
X282212300Y-75212300D01*
X282000000Y-73500000D02*
X283250300Y-73500000D01*
X327720000Y-68880000D02*
X326519700Y-68880000D01*
X326519700Y-69255100D02*
X326519700Y-68880000D01*
X323139900Y-72634900D02*
X326519700Y-69255100D01*
X298969400Y-72634900D02*
X323139900Y-72634900D01*
X298584100Y-72249600D02*
X298969400Y-72634900D01*
X284500700Y-72249600D02*
X298584100Y-72249600D01*
X283250300Y-73500000D02*
X284500700Y-72249600D01*
X149000000Y-73250000D02*
X150250300Y-73250000D01*
X145769700Y-75230000D02*
X147749700Y-73250000D01*
X120995200Y-75230000D02*
X145769700Y-75230000D01*
X112480300Y-83744900D02*
X120995200Y-75230000D01*
X112480300Y-84120000D02*
X112480300Y-83744900D01*
X111280000Y-84120000D02*
X112480300Y-84120000D01*
X149000000Y-73250000D02*
X147749700Y-73250000D01*
X185087700Y-73025700D02*
X268872800Y-73025700D01*
X183572100Y-74541300D02*
X185087700Y-73025700D01*
X151541600Y-74541300D02*
X183572100Y-74541300D01*
X150250300Y-73250000D02*
X151541600Y-74541300D01*
X188500000Y-100500000D02*
X186499700Y-100500000D01*
X207500000Y-100500000D02*
X205499700Y-100500000D01*
X226500000Y-100500000D02*
X224499700Y-100500000D01*
X207500000Y-100500000D02*
X209500300Y-100500000D01*
X211000700Y-102000400D02*
X209500300Y-100500000D01*
X222999300Y-102000400D02*
X211000700Y-102000400D01*
X224499700Y-100500000D02*
X222999300Y-102000400D01*
X245500000Y-100500000D02*
X243499700Y-100500000D01*
X241499400Y-102500300D02*
X243499700Y-100500000D01*
X226500000Y-102500300D02*
X241499400Y-102500300D01*
X224499700Y-100500000D02*
X226500000Y-102500300D01*
X265500200Y-100500000D02*
X266500300Y-100500000D01*
X265500200Y-100500000D02*
X264500000Y-100500000D01*
X249000700Y-102000400D02*
X247500300Y-100500000D01*
X260999300Y-102000400D02*
X249000700Y-102000400D01*
X262499700Y-100500000D02*
X260999300Y-102000400D01*
X264500000Y-100500000D02*
X262499700Y-100500000D01*
X245500000Y-100500000D02*
X247500300Y-100500000D01*
X268031600Y-102031300D02*
X266500300Y-100500000D01*
X279968400Y-102031300D02*
X268031600Y-102031300D01*
X281499700Y-100500000D02*
X279968400Y-102031300D01*
X315020000Y-87229900D02*
X315020000Y-84120000D01*
X303750200Y-98499700D02*
X315020000Y-87229900D01*
X302500000Y-98499700D02*
X303750200Y-98499700D01*
X302500000Y-100500000D02*
X302500000Y-98499700D01*
X146999300Y-102000400D02*
X148499700Y-100500000D01*
X135000700Y-102000400D02*
X146999300Y-102000400D01*
X133500300Y-100500000D02*
X135000700Y-102000400D01*
X131500000Y-100500000D02*
X133500300Y-100500000D01*
X149499900Y-100500000D02*
X149945900Y-100500000D01*
X149499900Y-100500000D02*
X148499700Y-100500000D01*
X150500000Y-100500000D02*
X149945900Y-100500000D01*
X165999300Y-102000400D02*
X167499700Y-100500000D01*
X151446300Y-102000400D02*
X165999300Y-102000400D01*
X149945900Y-100500000D02*
X151446300Y-102000400D01*
X169500000Y-100500000D02*
X167499700Y-100500000D01*
X169500000Y-100500000D02*
X171500300Y-100500000D01*
X186499700Y-100500000D02*
X186499700Y-102062700D01*
X203937000Y-102062700D02*
X186499700Y-102062700D01*
X205499700Y-100500000D02*
X203937000Y-102062700D01*
X173063000Y-102062700D02*
X171500300Y-100500000D01*
X186499700Y-102062700D02*
X173063000Y-102062700D01*
X282499900Y-100500000D02*
X281499700Y-100500000D01*
X282499900Y-100500000D02*
X283500000Y-100500000D01*
X298987400Y-102012300D02*
X300499700Y-100500000D01*
X287012600Y-102012300D02*
X298987400Y-102012300D01*
X285500300Y-100500000D02*
X287012600Y-102012300D01*
X283500000Y-100500000D02*
X285500300Y-100500000D01*
X302500000Y-100500000D02*
X300499700Y-100500000D01*
X283500000Y-120750000D02*
X285500300Y-120750000D01*
X302500000Y-120750000D02*
X300499700Y-120750000D01*
X165987400Y-122262300D02*
X167499700Y-120750000D01*
X154012600Y-122262300D02*
X165987400Y-122262300D01*
X152500300Y-120750000D02*
X154012600Y-122262300D01*
X150500000Y-120750000D02*
X152500300Y-120750000D01*
X203987400Y-122262300D02*
X205499700Y-120750000D01*
X192012600Y-122262300D02*
X203987400Y-122262300D01*
X190500300Y-120750000D02*
X192012600Y-122262300D01*
X188500000Y-120750000D02*
X190500300Y-120750000D01*
X206499900Y-120750000D02*
X205499700Y-120750000D01*
X260987400Y-122262300D02*
X262499700Y-120750000D01*
X249012600Y-122262300D02*
X260987400Y-122262300D01*
X247500300Y-120750000D02*
X249012600Y-122262300D01*
X245500000Y-120750000D02*
X247500300Y-120750000D01*
X263499900Y-120750000D02*
X262499700Y-120750000D01*
X263499900Y-120750000D02*
X264500000Y-120750000D01*
X279987400Y-122262300D02*
X281499700Y-120750000D01*
X268012600Y-122262300D02*
X279987400Y-122262300D01*
X266500300Y-120750000D02*
X268012600Y-122262300D01*
X264500000Y-120750000D02*
X266500300Y-120750000D01*
X283500000Y-120750000D02*
X281499700Y-120750000D01*
X287655900Y-118219300D02*
X297969000Y-118219300D01*
X285500300Y-120374900D02*
X287655900Y-118219300D01*
X285500300Y-120750000D02*
X285500300Y-120374900D01*
X297969000Y-118219300D02*
X300499700Y-120750000D01*
X305116200Y-111072100D02*
X297969000Y-118219300D01*
X305116200Y-98208300D02*
X305116200Y-111072100D01*
X317560000Y-85764500D02*
X305116200Y-98208300D01*
X317560000Y-84120000D02*
X317560000Y-85764500D01*
X146987400Y-122262300D02*
X148499700Y-120750000D01*
X135012600Y-122262300D02*
X146987400Y-122262300D01*
X133500300Y-120750000D02*
X135012600Y-122262300D01*
X131500000Y-120750000D02*
X133500300Y-120750000D01*
X150500000Y-120750000D02*
X148499700Y-120750000D01*
X168499900Y-120750000D02*
X167499700Y-120750000D01*
X168499900Y-120750000D02*
X169500000Y-120750000D01*
X184987400Y-122262300D02*
X186499700Y-120750000D01*
X173012600Y-122262300D02*
X184987400Y-122262300D01*
X171500300Y-120750000D02*
X173012600Y-122262300D01*
X169500000Y-120750000D02*
X171500300Y-120750000D01*
X188500000Y-120750000D02*
X186499700Y-120750000D01*
X241987400Y-122262300D02*
X243499700Y-120750000D01*
X230012600Y-122262300D02*
X241987400Y-122262300D01*
X228500300Y-120750000D02*
X230012600Y-122262300D01*
X226500000Y-120750000D02*
X228500300Y-120750000D01*
X245500000Y-120750000D02*
X243499700Y-120750000D01*
X226500000Y-120750000D02*
X224499700Y-120750000D01*
X206499900Y-120750000D02*
X207500000Y-120750000D01*
X222951300Y-122298400D02*
X224499700Y-120750000D01*
X211048700Y-122298400D02*
X222951300Y-122298400D01*
X209500300Y-120750000D02*
X211048700Y-122298400D01*
X207500000Y-120750000D02*
X209500300Y-120750000D01*
X287063200Y-145562900D02*
X285500300Y-144000000D01*
X298936800Y-145562900D02*
X287063200Y-145562900D01*
X300499700Y-144000000D02*
X298936800Y-145562900D01*
X284500200Y-144000000D02*
X285500300Y-144000000D01*
X284500200Y-144000000D02*
X283500000Y-144000000D01*
X268086600Y-145586300D02*
X266500300Y-144000000D01*
X279913400Y-145586300D02*
X268086600Y-145586300D01*
X281499700Y-144000000D02*
X279913400Y-145586300D01*
X283500000Y-144000000D02*
X281499700Y-144000000D01*
X265500200Y-144000000D02*
X266500300Y-144000000D01*
X265500200Y-144000000D02*
X264500000Y-144000000D01*
X249050800Y-145550500D02*
X247500300Y-144000000D01*
X260949200Y-145550500D02*
X249050800Y-145550500D01*
X262499700Y-144000000D02*
X260949200Y-145550500D01*
X264500000Y-144000000D02*
X262499700Y-144000000D01*
X154028400Y-145528100D02*
X152500300Y-144000000D01*
X165971600Y-145528100D02*
X154028400Y-145528100D01*
X167499700Y-144000000D02*
X165971600Y-145528100D01*
X169500000Y-144000000D02*
X167499700Y-144000000D01*
X151500200Y-144000000D02*
X152500300Y-144000000D01*
X151500200Y-144000000D02*
X150500000Y-144000000D01*
X146999300Y-145500400D02*
X148499700Y-144000000D01*
X135000700Y-145500400D02*
X146999300Y-145500400D01*
X133500300Y-144000000D02*
X135000700Y-145500400D01*
X131500000Y-144000000D02*
X133500300Y-144000000D01*
X150500000Y-144000000D02*
X148499700Y-144000000D01*
X207500000Y-144000000D02*
X207749600Y-144000000D01*
X188500000Y-144000000D02*
X190500300Y-144000000D01*
X192001100Y-145500800D02*
X190500300Y-144000000D01*
X206248800Y-145500800D02*
X192001100Y-145500800D01*
X207749600Y-144000000D02*
X206248800Y-145500800D01*
X226500000Y-144000000D02*
X224499700Y-144000000D01*
X222959700Y-145540000D02*
X224499700Y-144000000D01*
X209289600Y-145540000D02*
X222959700Y-145540000D01*
X207749600Y-144000000D02*
X209289600Y-145540000D01*
X246500200Y-144000000D02*
X247500300Y-144000000D01*
X246500200Y-144000000D02*
X245500000Y-144000000D01*
X230000700Y-145500400D02*
X228500300Y-144000000D01*
X241999300Y-145500400D02*
X230000700Y-145500400D01*
X243499700Y-144000000D02*
X241999300Y-145500400D01*
X245500000Y-144000000D02*
X243499700Y-144000000D01*
X226500000Y-144000000D02*
X228500300Y-144000000D01*
X302500000Y-144000000D02*
X301499900Y-144000000D01*
X301499900Y-144000000D02*
X300499700Y-144000000D01*
X301499900Y-135158600D02*
X301499900Y-144000000D01*
X309500400Y-127158100D02*
X301499900Y-135158600D01*
X309500400Y-95094100D02*
X309500400Y-127158100D01*
X320100000Y-84494500D02*
X309500400Y-95094100D01*
X320100000Y-84120000D02*
X320100000Y-84494500D01*
X201532100Y-170531800D02*
X200000300Y-169000000D01*
X213467900Y-170531800D02*
X201532100Y-170531800D01*
X214999700Y-169000000D02*
X213467900Y-170531800D01*
X217000000Y-169000000D02*
X214999700Y-169000000D01*
X199000200Y-169000000D02*
X200000300Y-169000000D01*
X199000200Y-169000000D02*
X198000000Y-169000000D01*
X182500800Y-170500500D02*
X181000300Y-169000000D01*
X194499200Y-170500500D02*
X182500800Y-170500500D01*
X195999700Y-169000000D02*
X194499200Y-170500500D01*
X198000000Y-169000000D02*
X195999700Y-169000000D01*
X179000000Y-169000000D02*
X181000300Y-169000000D01*
X322002100Y-84120000D02*
X322640000Y-84120000D01*
X316344900Y-89777200D02*
X322002100Y-84120000D01*
X316344900Y-124654300D02*
X316344900Y-89777200D01*
X302749600Y-138249600D02*
X316344900Y-124654300D01*
X302749600Y-140597200D02*
X302749600Y-138249600D01*
X304152000Y-141999600D02*
X302749600Y-140597200D01*
X304245600Y-141999600D02*
X304152000Y-141999600D01*
X304528500Y-142282500D02*
X304245600Y-141999600D01*
X304528500Y-145694600D02*
X304528500Y-142282500D01*
X302824000Y-147399100D02*
X304528500Y-145694600D01*
X259226100Y-147399100D02*
X302824000Y-147399100D01*
X238000300Y-168624900D02*
X259226100Y-147399100D01*
X238000300Y-169000000D02*
X238000300Y-168624900D01*
X236000000Y-169000000D02*
X238000300Y-169000000D01*
X173200400Y-85260400D02*
X172000000Y-84060000D01*
X189799600Y-85260400D02*
X173200400Y-85260400D01*
X191000000Y-84060000D02*
X189799600Y-85260400D01*
X193997300Y-81062700D02*
X191000000Y-84060000D01*
X219872200Y-81062700D02*
X193997300Y-81062700D01*
X221625900Y-79309000D02*
X219872200Y-81062700D01*
X245131000Y-79309000D02*
X221625900Y-79309000D01*
X248000000Y-76440000D02*
X245131000Y-79309000D01*
X265799600Y-82859600D02*
X267000000Y-84060000D01*
X249200400Y-82859600D02*
X265799600Y-82859600D01*
X248000000Y-84060000D02*
X249200400Y-82859600D01*
X268200400Y-82859600D02*
X267000000Y-84060000D01*
X323919600Y-82859600D02*
X268200400Y-82859600D01*
X325180000Y-84120000D02*
X323919600Y-82859600D01*
M02*
