M48
;DRILL file {KiCad 4.0.7} date 11/07/17 14:36:44
;FORMAT={-:-/ absolute / metric / decimal}
FMAT,2
METRIC,TZ
T1C0.400
T2C0.800
T3C0.900
T4C1.000
T5C1.500
T6C6.000
%
G90
G05
M71
T1
X179.261Y-79.338
X191.544Y-85.304
X219.244Y-79.498
X228.363Y-71.636
X250.604Y-85.35
X268.873Y-73.026
X281.874Y-80.81
X300.251Y-80.31
T2
X133.Y-96.
X133.Y-116.5
X133.Y-139.5
X141.Y-96.
X141.Y-116.5
X141.Y-139.5
X149.Y-73.25
X152.Y-96.
X152.Y-116.5
X152.Y-139.5
X157.Y-73.25
X160.Y-96.
X160.Y-116.5
X160.Y-139.5
X171.Y-96.
X171.Y-116.5
X171.Y-139.5
X179.Y-96.
X179.Y-116.5
X179.Y-139.5
X180.5Y-164.5
X188.5Y-164.5
X190.Y-96.
X190.Y-116.5
X190.Y-139.5
X198.Y-96.
X198.Y-116.5
X198.Y-139.5
X199.5Y-164.5
X201.Y-77.
X201.Y-84.
X207.5Y-164.5
X209.Y-77.
X209.Y-84.
X209.Y-96.
X209.Y-116.5
X209.Y-139.5
X215.Y-77.
X215.Y-84.
X217.Y-96.
X217.Y-116.5
X217.Y-139.5
X218.5Y-164.5
X223.Y-77.
X223.Y-84.
X226.5Y-164.5
X228.Y-96.
X228.Y-116.5
X228.Y-139.5
X229.Y-77.
X229.Y-84.
X236.Y-96.
X236.Y-116.5
X236.Y-139.5
X237.Y-77.
X237.Y-84.
X237.5Y-164.5
X245.5Y-164.5
X247.Y-96.
X247.Y-116.5
X247.Y-139.5
X255.Y-96.
X255.Y-116.5
X255.Y-139.5
X266.Y-96.
X266.Y-116.5
X266.Y-139.5
X274.Y-96.
X274.Y-116.5
X274.Y-139.5
X282.Y-73.5
X285.Y-96.
X285.Y-116.5
X285.Y-139.5
X290.Y-73.5
X293.Y-96.
X293.Y-116.5
X293.Y-139.5
X304.Y-96.
X304.Y-116.5
X304.Y-139.5
X312.Y-96.
X312.Y-116.5
X312.Y-139.5
T3
X111.28Y-68.88
X111.28Y-84.12
X113.82Y-68.88
X113.82Y-84.12
X116.36Y-68.88
X116.36Y-84.12
X118.9Y-68.88
X118.9Y-84.12
X121.44Y-68.88
X121.44Y-71.42
X121.44Y-81.58
X121.44Y-84.12
X123.98Y-68.88
X123.98Y-84.12
X126.52Y-68.88
X126.52Y-84.12
X129.06Y-68.88
X129.06Y-84.12
X131.6Y-68.88
X131.6Y-84.12
X134.14Y-68.88
X134.14Y-84.12
X136.68Y-68.88
X136.68Y-84.12
X139.22Y-68.88
X139.22Y-71.42
X139.22Y-73.96
X139.22Y-76.5
X139.22Y-79.04
X139.22Y-81.58
X139.22Y-84.12
X169.46Y-76.44
X169.46Y-84.06
X172.Y-76.44
X172.Y-84.06
X174.54Y-76.44
X174.54Y-84.06
X188.46Y-76.44
X188.46Y-84.06
X191.Y-76.44
X191.Y-84.06
X193.54Y-76.44
X193.54Y-84.06
X245.46Y-76.44
X245.46Y-84.06
X248.Y-76.44
X248.Y-84.06
X250.54Y-76.44
X250.54Y-84.06
X264.46Y-76.44
X264.46Y-84.06
X267.Y-76.44
X267.Y-84.06
X269.54Y-76.44
X269.54Y-84.06
X299.78Y-68.88
X299.78Y-71.42
X299.78Y-73.96
X299.78Y-76.5
X299.78Y-79.04
X299.78Y-81.58
X299.78Y-84.12
X302.32Y-68.88
X302.32Y-84.12
X304.86Y-68.88
X304.86Y-84.12
X307.4Y-68.88
X307.4Y-84.12
X309.94Y-68.88
X309.94Y-84.12
X312.48Y-68.88
X312.48Y-84.12
X315.02Y-68.88
X315.02Y-84.12
X317.56Y-68.88
X317.56Y-71.42
X317.56Y-81.58
X317.56Y-84.12
X320.1Y-68.88
X320.1Y-84.12
X322.64Y-68.88
X322.64Y-84.12
X325.18Y-68.88
X325.18Y-84.12
X327.72Y-68.88
X327.72Y-84.12
T4
X151.75Y-80.25
X154.25Y-80.25
X284.75Y-80.25
X287.25Y-80.25
T5
X131.5Y-100.5
X131.5Y-120.75
X131.5Y-144.
X136.5Y-100.
X136.5Y-120.25
X136.5Y-143.5
X150.5Y-100.5
X150.5Y-120.75
X150.5Y-144.
X155.5Y-100.
X155.5Y-120.25
X155.5Y-143.5
X169.5Y-100.5
X169.5Y-120.75
X169.5Y-144.
X174.5Y-100.
X174.5Y-120.25
X174.5Y-143.5
X179.Y-169.
X184.Y-168.5
X188.5Y-100.5
X188.5Y-120.75
X188.5Y-144.
X193.5Y-100.
X193.5Y-120.25
X193.5Y-143.5
X198.Y-169.
X203.Y-168.5
X207.5Y-100.5
X207.5Y-120.75
X207.5Y-144.
X212.5Y-100.
X212.5Y-120.25
X212.5Y-143.5
X217.Y-169.
X222.Y-168.5
X226.5Y-100.5
X226.5Y-120.75
X226.5Y-144.
X231.5Y-100.
X231.5Y-120.25
X231.5Y-143.5
X236.Y-169.
X241.Y-168.5
X245.5Y-100.5
X245.5Y-120.75
X245.5Y-144.
X250.5Y-100.
X250.5Y-120.25
X250.5Y-143.5
X264.5Y-100.5
X264.5Y-120.75
X264.5Y-144.
X269.5Y-100.
X269.5Y-120.25
X269.5Y-143.5
X283.5Y-100.5
X283.5Y-120.75
X283.5Y-144.
X288.5Y-100.
X288.5Y-120.25
X288.5Y-143.5
X302.5Y-100.5
X302.5Y-120.75
X302.5Y-144.
X307.5Y-100.
X307.5Y-120.25
X307.5Y-143.5
T6
X117.Y-90.5
X117.Y-100.5
X117.Y-160.
X117.Y-170.
X160.Y-67.5
X160.Y-193.
X170.Y-67.5
X170.Y-193.
X269.Y-67.5
X269.Y-193.
X279.Y-67.5
X279.Y-193.
X322.Y-90.5
X322.Y-100.5
X322.Y-160.
X322.Y-170.
T0
M30
